<svg width="192" height="171" viewBox="0 0 192 171" fill="none" xmlns="http://www.w3.org/2000/svg">
<path d="M1.92898 14.0795C1.68371 14.0795 1.47325 13.9917 1.29759 13.8161C1.12192 13.6404 1.03409 13.4299 1.03409 13.1847C1.03409 12.9394 1.12192 12.7289 1.29759 12.5533C1.47325 12.3776 1.68371 12.2898 1.92898 12.2898C2.17424 12.2898 2.38471 12.3776 2.56037 12.5533C2.73603 12.7289 2.82386 12.9394 2.82386 13.1847C2.82386 13.3471 2.78243 13.4962 2.69957 13.6321C2.62003 13.768 2.51231 13.8774 2.37642 13.9602C2.24384 14.0398 2.0947 14.0795 1.92898 14.0795ZM8.03161 14.1591C7.3157 14.1591 6.69922 13.9901 6.18217 13.652C5.66513 13.3139 5.2674 12.8482 4.98899 12.255C4.71058 11.6617 4.57138 10.9839 4.57138 10.2216C4.57138 9.44602 4.7139 8.7616 4.99893 8.16832C5.28729 7.57173 5.68833 7.10606 6.20206 6.77131C6.71911 6.43324 7.32232 6.2642 8.01172 6.2642C8.54865 6.2642 9.03255 6.36364 9.46342 6.5625C9.89429 6.76136 10.2473 7.03977 10.5224 7.39773C10.7975 7.75568 10.9682 8.1733 11.0344 8.65057H9.86115C9.77166 8.30256 9.5728 7.99432 9.26456 7.72585C8.95964 7.45407 8.54865 7.31818 8.03161 7.31818C7.57422 7.31818 7.17318 7.4375 6.82848 7.67614C6.4871 7.91146 6.22029 8.24455 6.02805 8.67543C5.83913 9.10298 5.74467 9.60511 5.74467 10.1818C5.74467 10.7718 5.83748 11.2855 6.02308 11.723C6.212 12.1605 6.47715 12.5002 6.81854 12.7422C7.16323 12.9841 7.56759 13.1051 8.03161 13.1051C8.33653 13.1051 8.61328 13.0521 8.86186 12.946C9.11044 12.84 9.3209 12.6875 9.49325 12.4886C9.6656 12.2898 9.78823 12.0511 9.86115 11.7727H11.0344C10.9682 12.2235 10.8041 12.6295 10.5423 12.9908C10.2837 13.3487 9.9407 13.6338 9.51314 13.8459C9.0889 14.0547 8.59505 14.1591 8.03161 14.1591ZM15.8519 14.1591C15.1625 14.1591 14.5576 13.995 14.0373 13.6669C13.5202 13.3388 13.1159 12.8797 12.8242 12.2898C12.5359 11.6998 12.3917 11.0104 12.3917 10.2216C12.3917 9.42614 12.5359 8.73177 12.8242 8.13849C13.1159 7.54522 13.5202 7.08452 14.0373 6.75639C14.5576 6.42827 15.1625 6.2642 15.8519 6.2642C16.5413 6.2642 17.1445 6.42827 17.6616 6.75639C18.1819 7.08452 18.5863 7.54522 18.8746 8.13849C19.1663 8.73177 19.3121 9.42614 19.3121 10.2216C19.3121 11.0104 19.1663 11.6998 18.8746 12.2898C18.5863 12.8797 18.1819 13.3388 17.6616 13.6669C17.1445 13.995 16.5413 14.1591 15.8519 14.1591ZM15.8519 13.1051C16.3756 13.1051 16.8065 12.9709 17.1445 12.7024C17.4826 12.4339 17.7328 12.081 17.8952 11.6435C18.0576 11.206 18.1388 10.732 18.1388 10.2216C18.1388 9.71117 18.0576 9.23556 17.8952 8.79474C17.7328 8.35393 17.4826 7.99763 17.1445 7.72585C16.8065 7.45407 16.3756 7.31818 15.8519 7.31818C15.3282 7.31818 14.8974 7.45407 14.5593 7.72585C14.2212 7.99763 13.971 8.35393 13.8086 8.79474C13.6462 9.23556 13.565 9.71117 13.565 10.2216C13.565 10.732 13.6462 11.206 13.8086 11.6435C13.971 12.081 14.2212 12.4339 14.5593 12.7024C14.8974 12.9709 15.3282 13.1051 15.8519 13.1051ZM23.9867 14.1591C23.3503 14.1591 22.7885 13.9983 22.3013 13.6768C21.8141 13.352 21.4329 12.8946 21.1578 12.3047C20.8828 11.7114 20.7452 11.0104 20.7452 10.2017C20.7452 9.39962 20.8828 8.7036 21.1578 8.11364C21.4329 7.52367 21.8158 7.06794 22.3063 6.74645C22.7968 6.42495 23.3636 6.2642 24.0066 6.2642C24.5037 6.2642 24.8965 6.34706 25.1848 6.51278C25.4765 6.67519 25.6986 6.8608 25.851 7.0696C26.0068 7.27509 26.1278 7.44413 26.214 7.5767H26.3134V3.81818H27.4867V14H26.3532V12.8267H26.214C26.1278 12.9659 26.0051 13.1416 25.8461 13.3537C25.687 13.5625 25.4599 13.7498 25.165 13.9155C24.87 14.0779 24.4772 14.1591 23.9867 14.1591ZM24.1458 13.1051C24.6164 13.1051 25.0141 12.9825 25.339 12.7372C25.6638 12.4886 25.9107 12.1456 26.0797 11.7081C26.2488 11.2673 26.3333 10.7585 26.3333 10.1818C26.3333 9.61174 26.2504 9.11293 26.0847 8.68537C25.919 8.2545 25.6737 7.91974 25.3489 7.68111C25.0241 7.43916 24.623 7.31818 24.1458 7.31818C23.6486 7.31818 23.2343 7.44579 22.9029 7.70099C22.5748 7.95289 22.3278 8.29593 22.1621 8.73011C21.9997 9.16098 21.9185 9.64489 21.9185 10.1818C21.9185 10.7254 22.0014 11.2192 22.1671 11.6634C22.3361 12.1042 22.5847 12.4555 22.9128 12.7173C23.2443 12.9759 23.6552 13.1051 24.1458 13.1051ZM33.0002 14.1591C32.2644 14.1591 31.6297 13.9967 31.0961 13.6719C30.5658 13.3438 30.1564 12.8864 29.8681 12.2997C29.583 11.7098 29.4405 11.0237 29.4405 10.2415C29.4405 9.45928 29.583 8.76989 29.8681 8.1733C30.1564 7.57339 30.5575 7.10606 31.0712 6.77131C31.5882 6.43324 32.1915 6.2642 32.8809 6.2642C33.2786 6.2642 33.6713 6.33049 34.0591 6.46307C34.4469 6.59564 34.7999 6.81108 35.1181 7.10938C35.4363 7.40436 35.6898 7.79545 35.8787 8.28267C36.0676 8.76989 36.1621 9.36979 36.1621 10.0824V10.5795H30.2757V9.56534H34.9689C34.9689 9.13447 34.8828 8.75 34.7104 8.41193C34.5414 8.07386 34.2994 7.80705 33.9846 7.61151C33.673 7.41596 33.3051 7.31818 32.8809 7.31818C32.4135 7.31818 32.0092 7.43419 31.6678 7.66619C31.3297 7.89489 31.0695 8.19318 30.8873 8.56108C30.705 8.92898 30.6138 9.32339 30.6138 9.74432V10.4205C30.6138 10.9972 30.7132 11.486 30.9121 11.8871C31.1143 12.2848 31.3944 12.5881 31.7523 12.7969C32.1103 13.0024 32.5262 13.1051 33.0002 13.1051C33.3084 13.1051 33.5868 13.062 33.8354 12.9759C34.0873 12.8864 34.3044 12.7538 34.4867 12.5781C34.669 12.3991 34.8098 12.1771 34.9093 11.9119L36.0428 12.2301C35.9235 12.6146 35.723 12.9527 35.4412 13.2443C35.1595 13.5327 34.8115 13.758 34.3972 13.9205C33.9829 14.0795 33.5172 14.1591 33.0002 14.1591Z" fill="white" style="mix-blend-mode:soft-light"/>
<path d="M0.517045 31.7244V31.108C1.07055 31.108 1.45668 30.992 1.67543 30.7599C1.89749 30.5279 2.00852 30.1402 2.00852 29.5966V28.0057C2.00852 27.5483 2.05161 27.1522 2.13778 26.8175C2.22727 26.4827 2.37145 26.206 2.57031 25.9872C2.76918 25.7685 3.03433 25.6061 3.36577 25.5C3.69721 25.3939 4.10653 25.3409 4.59375 25.3409V26.3153C4.20928 26.3153 3.90601 26.375 3.68395 26.4943C3.4652 26.6136 3.30942 26.7992 3.21662 27.0511C3.12713 27.2997 3.08239 27.6179 3.08239 28.0057V29.9943C3.08239 30.2528 3.04759 30.4882 2.97798 30.7003C2.9117 30.9124 2.78741 31.0947 2.60511 31.2472C2.42282 31.3996 2.16264 31.5173 1.82457 31.6001C1.48982 31.683 1.05398 31.7244 0.517045 31.7244ZM4.59375 38.0682C4.10653 38.0682 3.69721 38.0152 3.36577 37.9091C3.03433 37.803 2.76918 37.6406 2.57031 37.4219C2.37145 37.2031 2.22727 36.9264 2.13778 36.5916C2.05161 36.2569 2.00852 35.8608 2.00852 35.4034V33.8125C2.00852 33.2689 1.89749 32.8812 1.67543 32.6491C1.45668 32.4171 1.07055 32.3011 0.517045 32.3011V31.6847C1.05398 31.6847 1.48982 31.7261 1.82457 31.8089C2.16264 31.8918 2.42282 32.0095 2.60511 32.1619C2.78741 32.3144 2.9117 32.4967 2.97798 32.7088C3.04759 32.9209 3.08239 33.1562 3.08239 33.4148V35.4034C3.08239 35.7912 3.12713 36.1094 3.21662 36.358C3.30942 36.6065 3.4652 36.7905 3.68395 36.9098C3.90601 37.0324 4.20928 37.0938 4.59375 37.0938V38.0682ZM0.517045 32.3011V31.108H1.69034V32.3011H0.517045Z" fill="white" style="mix-blend-mode:soft-light"/>
<path d="M1.23295 58V47.8182H4.79261C5.50189 47.8182 6.08688 47.9408 6.54759 48.1861C7.00829 48.428 7.35133 48.7545 7.5767 49.1655C7.80208 49.5732 7.91477 50.0256 7.91477 50.5227C7.91477 50.9602 7.83688 51.3215 7.68111 51.6065C7.52865 51.8916 7.32647 52.117 7.07457 52.2827C6.82599 52.4484 6.55587 52.571 6.2642 52.6506V52.75C6.57576 52.7699 6.88897 52.8793 7.20384 53.0781C7.5187 53.277 7.7822 53.562 7.99432 53.9332C8.20644 54.3045 8.3125 54.7585 8.3125 55.2955C8.3125 55.8059 8.1965 56.2649 7.96449 56.6726C7.73248 57.0803 7.36624 57.4034 6.86577 57.642C6.36529 57.8807 5.71402 58 4.91193 58H1.23295ZM2.46591 56.9062H4.91193C5.71733 56.9062 6.28906 56.7505 6.62713 56.4389C6.96851 56.1241 7.1392 55.7429 7.1392 55.2955C7.1392 54.9508 7.05137 54.6326 6.87571 54.3409C6.70005 54.0459 6.44981 53.8106 6.125 53.6349C5.80019 53.456 5.41572 53.3665 4.97159 53.3665H2.46591V56.9062ZM2.46591 52.2926H4.75284C5.12405 52.2926 5.45881 52.2197 5.7571 52.0739C6.05871 51.928 6.29735 51.7225 6.47301 51.4574C6.65199 51.1922 6.74148 50.8807 6.74148 50.5227C6.74148 50.0753 6.5857 49.6958 6.27415 49.3842C5.9626 49.0694 5.46875 48.9119 4.79261 48.9119H2.46591V52.2926ZM13.2816 58.1591C12.5922 58.1591 11.9873 57.995 11.467 57.6669C10.9499 57.3388 10.5456 56.8797 10.2539 56.2898C9.96555 55.6998 9.82138 55.0104 9.82138 54.2216C9.82138 53.4261 9.96555 52.7318 10.2539 52.1385C10.5456 51.5452 10.9499 51.0845 11.467 50.7564C11.9873 50.4283 12.5922 50.2642 13.2816 50.2642C13.971 50.2642 14.5742 50.4283 15.0913 50.7564C15.6116 51.0845 16.016 51.5452 16.3043 52.1385C16.596 52.7318 16.7418 53.4261 16.7418 54.2216C16.7418 55.0104 16.596 55.6998 16.3043 56.2898C16.016 56.8797 15.6116 57.3388 15.0913 57.6669C14.5742 57.995 13.971 58.1591 13.2816 58.1591ZM13.2816 57.1051C13.8053 57.1051 14.2362 56.9709 14.5742 56.7024C14.9123 56.4339 15.1625 56.081 15.3249 55.6435C15.4873 55.206 15.5685 54.732 15.5685 54.2216C15.5685 53.7112 15.4873 53.2356 15.3249 52.7947C15.1625 52.3539 14.9123 51.9976 14.5742 51.7259C14.2362 51.4541 13.8053 51.3182 13.2816 51.3182C12.7579 51.3182 12.3271 51.4541 11.989 51.7259C11.6509 51.9976 11.4007 52.3539 11.2383 52.7947C11.0759 53.2356 10.9947 53.7112 10.9947 54.2216C10.9947 54.732 11.0759 55.206 11.2383 55.6435C11.4007 56.081 11.6509 56.4339 11.989 56.7024C12.3271 56.9709 12.7579 57.1051 13.2816 57.1051ZM18.5328 58V50.3636H19.6664V51.517H19.7459C19.8851 51.1392 20.137 50.8326 20.5016 50.5973C20.8662 50.362 21.2772 50.2443 21.7346 50.2443C21.8207 50.2443 21.9284 50.246 22.0577 50.2493C22.187 50.2526 22.2847 50.2576 22.351 50.2642V51.4574C22.3113 51.4474 22.2201 51.4325 22.0776 51.4126C21.9384 51.3894 21.7909 51.3778 21.6351 51.3778C21.2639 51.3778 20.9325 51.4557 20.6408 51.6115C20.3525 51.764 20.1238 51.9761 19.9547 52.2479C19.789 52.5163 19.7061 52.8229 19.7061 53.1676V58H18.5328ZM26.3929 58.1591C25.7566 58.1591 25.1948 57.9983 24.7076 57.6768C24.2203 57.352 23.8392 56.8946 23.5641 56.3047C23.289 55.7114 23.1515 55.0104 23.1515 54.2017C23.1515 53.3996 23.289 52.7036 23.5641 52.1136C23.8392 51.5237 24.222 51.0679 24.7125 50.7464C25.2031 50.425 25.7698 50.2642 26.4128 50.2642C26.91 50.2642 27.3027 50.3471 27.5911 50.5128C27.8828 50.6752 28.1048 50.8608 28.2573 51.0696C28.4131 51.2751 28.534 51.4441 28.6202 51.5767H28.7196V47.8182H29.8929V58H28.7594V56.8267H28.6202C28.534 56.9659 28.4114 57.1416 28.2523 57.3537C28.0932 57.5625 27.8662 57.7498 27.5712 57.9155C27.2762 58.0779 26.8835 58.1591 26.3929 58.1591ZM26.552 57.1051C27.0227 57.1051 27.4204 56.9825 27.7452 56.7372C28.07 56.4886 28.3169 56.1456 28.486 55.7081C28.655 55.2673 28.7395 54.7585 28.7395 54.1818C28.7395 53.6117 28.6567 53.1129 28.4909 52.6854C28.3252 52.2545 28.08 51.9197 27.7551 51.6811C27.4303 51.4392 27.0293 51.3182 26.552 51.3182C26.0549 51.3182 25.6406 51.4458 25.3091 51.701C24.981 51.9529 24.7341 52.2959 24.5684 52.7301C24.406 53.161 24.3248 53.6449 24.3248 54.1818C24.3248 54.7254 24.4076 55.2192 24.5733 55.6634C24.7424 56.1042 24.9909 56.4555 25.3191 56.7173C25.6505 56.9759 26.0615 57.1051 26.552 57.1051ZM35.4064 58.1591C34.6706 58.1591 34.0359 57.9967 33.5023 57.6719C32.972 57.3438 32.5627 56.8864 32.2743 56.2997C31.9893 55.7098 31.8468 55.0237 31.8468 54.2415C31.8468 53.4593 31.9893 52.7699 32.2743 52.1733C32.5627 51.5734 32.9637 51.1061 33.4775 50.7713C33.9945 50.4332 34.5977 50.2642 35.2871 50.2642C35.6848 50.2642 36.0776 50.3305 36.4654 50.4631C36.8532 50.5956 37.2061 50.8111 37.5243 51.1094C37.8425 51.4044 38.0961 51.7955 38.285 52.2827C38.4739 52.7699 38.5684 53.3698 38.5684 54.0824V54.5795H32.682V53.5653H37.3752C37.3752 53.1345 37.289 52.75 37.1167 52.4119C36.9476 52.0739 36.7057 51.8071 36.3908 51.6115C36.0792 51.416 35.7114 51.3182 35.2871 51.3182C34.8198 51.3182 34.4154 51.4342 34.074 51.6662C33.736 51.8949 33.4758 52.1932 33.2935 52.5611C33.1112 52.929 33.0201 53.3234 33.0201 53.7443V54.4205C33.0201 54.9972 33.1195 55.486 33.3184 55.8871C33.5205 56.2848 33.8006 56.5881 34.1586 56.7969C34.5165 57.0024 34.9325 57.1051 35.4064 57.1051C35.7147 57.1051 35.9931 57.062 36.2417 56.9759C36.4935 56.8864 36.7106 56.7538 36.8929 56.5781C37.0752 56.3991 37.2161 56.1771 37.3155 55.9119L38.449 56.2301C38.3297 56.6146 38.1292 56.9527 37.8475 57.2443C37.5658 57.5327 37.2177 57.758 36.8034 57.9205C36.3891 58.0795 35.9235 58.1591 35.4064 58.1591ZM40.3532 58V50.3636H41.4867V51.517H41.5662C41.7054 51.1392 41.9573 50.8326 42.3219 50.5973C42.6865 50.362 43.0975 50.2443 43.5549 50.2443C43.641 50.2443 43.7488 50.246 43.878 50.2493C44.0073 50.2526 44.1051 50.2576 44.1713 50.2642V51.4574C44.1316 51.4474 44.0404 51.4325 43.8979 51.4126C43.7587 51.3894 43.6112 51.3778 43.4554 51.3778C43.0842 51.3778 42.7528 51.4557 42.4611 51.6115C42.1728 51.764 41.9441 51.9761 41.775 52.2479C41.6093 52.5163 41.5265 52.8229 41.5265 53.1676V58H40.3532ZM46.4173 58.0795C46.172 58.0795 45.9615 57.9917 45.7859 57.8161C45.6102 57.6404 45.5224 57.4299 45.5224 57.1847C45.5224 56.9394 45.6102 56.7289 45.7859 56.5533C45.9615 56.3776 46.172 56.2898 46.4173 56.2898C46.6625 56.2898 46.873 56.3776 47.0487 56.5533C47.2243 56.7289 47.3121 56.9394 47.3121 57.1847C47.3121 57.3471 47.2707 57.4962 47.1879 57.6321C47.1083 57.768 47.0006 57.8774 46.8647 57.9602C46.7321 58.0398 46.583 58.0795 46.4173 58.0795ZM46.4173 52.4119C46.172 52.4119 45.9615 52.3241 45.7859 52.1484C45.6102 51.9728 45.5224 51.7623 45.5224 51.517C45.5224 51.2718 45.6102 51.0613 45.7859 50.8857C45.9615 50.71 46.172 50.6222 46.4173 50.6222C46.6625 50.6222 46.873 50.71 47.0487 50.8857C47.2243 51.0613 47.3121 51.2718 47.3121 51.517C47.3121 51.6795 47.2707 51.8286 47.1879 51.9645C47.1083 52.1004 47.0006 52.2098 46.8647 52.2926C46.7321 52.3722 46.583 52.4119 46.4173 52.4119ZM56.9148 47.8182V58H55.6818V49.1108H55.6222L53.1364 50.7614V49.5085L55.6818 47.8182H56.9148ZM59.8629 60.8636V50.3636H60.9964V51.5767H61.1357C61.2218 51.4441 61.3411 51.2751 61.4936 51.0696C61.6494 50.8608 61.8714 50.6752 62.1598 50.5128C62.4515 50.3471 62.8459 50.2642 63.343 50.2642C63.986 50.2642 64.5528 50.425 65.0433 50.7464C65.5339 51.0679 65.9167 51.5237 66.1918 52.1136C66.4669 52.7036 66.6044 53.3996 66.6044 54.2017C66.6044 55.0104 66.4669 55.7114 66.1918 56.3047C65.9167 56.8946 65.5355 57.352 65.0483 57.6768C64.5611 57.9983 63.9993 58.1591 63.3629 58.1591C62.8724 58.1591 62.4796 58.0779 62.1847 57.9155C61.8897 57.7498 61.6626 57.5625 61.5036 57.3537C61.3445 57.1416 61.2218 56.9659 61.1357 56.8267H61.0362V60.8636H59.8629ZM61.0163 54.1818C61.0163 54.7585 61.1009 55.2673 61.2699 55.7081C61.4389 56.1456 61.6858 56.4886 62.0107 56.7372C62.3355 56.9825 62.7332 57.1051 63.2038 57.1051C63.6944 57.1051 64.1037 56.9759 64.4318 56.7173C64.7633 56.4555 65.0118 56.1042 65.1776 55.6634C65.3466 55.2192 65.4311 54.7254 65.4311 54.1818C65.4311 53.6449 65.3482 53.161 65.1825 52.7301C65.0201 52.2959 64.7732 51.9529 64.4418 51.701C64.1136 51.4458 63.701 51.3182 63.2038 51.3182C62.7266 51.3182 62.3255 51.4392 62.0007 51.6811C61.6759 51.9197 61.4306 52.2545 61.2649 52.6854C61.0992 53.1129 61.0163 53.6117 61.0163 54.1818ZM68.9547 50.3636L70.7843 53.4858L72.6138 50.3636H73.9661L71.5002 54.1818L73.9661 58H72.6138L70.7843 55.0369L68.9547 58H67.6025L70.0286 54.1818L67.6025 50.3636H68.9547ZM84.9869 52.0739L83.9329 52.3722C83.8666 52.1965 83.7688 52.0258 83.6396 51.8601C83.5136 51.6911 83.3413 51.5518 83.1225 51.4425C82.9038 51.3331 82.6237 51.2784 82.2823 51.2784C81.815 51.2784 81.4255 51.3861 81.114 51.6016C80.8058 51.8137 80.6516 52.0838 80.6516 52.4119C80.6516 52.7036 80.7577 52.9339 80.9698 53.103C81.1819 53.272 81.5134 53.4129 81.9641 53.5256L83.0977 53.804C83.7804 53.9697 84.2892 54.2232 84.6239 54.5646C84.9587 54.9027 85.1261 55.3385 85.1261 55.8722C85.1261 56.3097 85.0001 56.7008 84.7482 57.0455C84.4996 57.3902 84.1516 57.6619 83.7042 57.8608C83.2567 58.0597 82.7364 58.1591 82.1431 58.1591C81.3642 58.1591 80.7196 57.9901 80.2092 57.652C79.6987 57.3139 79.3756 56.8201 79.2397 56.1705L80.3533 55.892C80.4594 56.303 80.6599 56.6113 80.9549 56.8168C81.2532 57.0223 81.6426 57.125 82.1232 57.125C82.6701 57.125 83.1043 57.009 83.4258 56.777C83.7506 56.5417 83.913 56.2599 83.913 55.9318C83.913 55.6667 83.8202 55.4446 83.6346 55.2656C83.449 55.0833 83.1639 54.9474 82.7795 54.858L81.5067 54.5597C80.8074 54.3939 80.2937 54.1371 79.9656 53.7891C79.6407 53.4377 79.4783 52.9986 79.4783 52.4716C79.4783 52.0407 79.5993 51.6596 79.8413 51.3281C80.0865 50.9967 80.4196 50.7365 80.8406 50.5476C81.2648 50.3587 81.7454 50.2642 82.2823 50.2642C83.038 50.2642 83.6313 50.4299 84.0621 50.7614C84.4963 51.0928 84.8046 51.5303 84.9869 52.0739ZM89.9945 58.1591C89.3051 58.1591 88.7002 57.995 88.1799 57.6669C87.6628 57.3388 87.2585 56.8797 86.9668 56.2898C86.6784 55.6998 86.5343 55.0104 86.5343 54.2216C86.5343 53.4261 86.6784 52.7318 86.9668 52.1385C87.2585 51.5452 87.6628 51.0845 88.1799 50.7564C88.7002 50.4283 89.3051 50.2642 89.9945 50.2642C90.6839 50.2642 91.2871 50.4283 91.8042 50.7564C92.3245 51.0845 92.7289 51.5452 93.0172 52.1385C93.3089 52.7318 93.4547 53.4261 93.4547 54.2216C93.4547 55.0104 93.3089 55.6998 93.0172 56.2898C92.7289 56.8797 92.3245 57.3388 91.8042 57.6669C91.2871 57.995 90.6839 58.1591 89.9945 58.1591ZM89.9945 57.1051C90.5182 57.1051 90.949 56.9709 91.2871 56.7024C91.6252 56.4339 91.8754 56.081 92.0378 55.6435C92.2002 55.206 92.2814 54.732 92.2814 54.2216C92.2814 53.7112 92.2002 53.2356 92.0378 52.7947C91.8754 52.3539 91.6252 51.9976 91.2871 51.7259C90.949 51.4541 90.5182 51.3182 89.9945 51.3182C89.4708 51.3182 89.04 51.4541 88.7019 51.7259C88.3638 51.9976 88.1136 52.3539 87.9512 52.7947C87.7888 53.2356 87.7076 53.7112 87.7076 54.2216C87.7076 54.732 87.7888 55.206 87.9512 55.6435C88.1136 56.081 88.3638 56.4339 88.7019 56.7024C89.04 56.9709 89.4708 57.1051 89.9945 57.1051ZM96.419 47.8182V58H95.2457V47.8182H96.419ZM98.568 58V50.3636H99.7413V58H98.568ZM99.1646 49.0909C98.9359 49.0909 98.7387 49.013 98.573 48.8572C98.4106 48.7015 98.3294 48.5142 98.3294 48.2955C98.3294 48.0767 98.4106 47.8894 98.573 47.7337C98.7387 47.5779 98.9359 47.5 99.1646 47.5C99.3933 47.5 99.5888 47.5779 99.7512 47.7337C99.917 47.8894 99.9998 48.0767 99.9998 48.2955C99.9998 48.5142 99.917 48.7015 99.7512 48.8572C99.5888 49.013 99.3933 49.0909 99.1646 49.0909ZM104.774 58.1591C104.137 58.1591 103.576 57.9983 103.088 57.6768C102.601 57.352 102.22 56.8946 101.945 56.3047C101.67 55.7114 101.532 55.0104 101.532 54.2017C101.532 53.3996 101.67 52.7036 101.945 52.1136C102.22 51.5237 102.603 51.0679 103.093 50.7464C103.584 50.425 104.151 50.2642 104.794 50.2642C105.291 50.2642 105.684 50.3471 105.972 50.5128C106.264 50.6752 106.486 50.8608 106.638 51.0696C106.794 51.2751 106.915 51.4441 107.001 51.5767H107.1V47.8182H108.274V58H107.14V56.8267H107.001C106.915 56.9659 106.792 57.1416 106.633 57.3537C106.474 57.5625 106.247 57.7498 105.952 57.9155C105.657 58.0779 105.264 58.1591 104.774 58.1591ZM104.933 57.1051C105.404 57.1051 105.801 56.9825 106.126 56.7372C106.451 56.4886 106.698 56.1456 106.867 55.7081C107.036 55.2673 107.12 54.7585 107.12 54.1818C107.12 53.6117 107.038 53.1129 106.872 52.6854C106.706 52.2545 106.461 51.9197 106.136 51.6811C105.811 51.4392 105.41 51.3182 104.933 51.3182C104.436 51.3182 104.021 51.4458 103.69 51.701C103.362 51.9529 103.115 52.2959 102.949 52.7301C102.787 53.161 102.706 53.6449 102.706 54.1818C102.706 54.7254 102.788 55.2192 102.954 55.6634C103.123 56.1042 103.372 56.4555 103.7 56.7173C104.031 56.9759 104.442 57.1051 104.933 57.1051ZM118.321 58L119.992 47.8182H120.986L119.316 58H118.321ZM113.688 55.1761L113.847 54.1818H121.444L121.284 55.1761H113.688ZM114.742 58L116.412 47.8182H117.407L115.736 58H114.742ZM114.284 51.6364L114.444 50.642H122.04L121.881 51.6364H114.284ZM123.514 58V47.8182H129.659V48.9119H124.747V52.3523H129.341V53.446H124.747V56.9062H129.739V58H123.514ZM135.023 58.1392C134.274 58.1392 133.636 57.9354 133.109 57.5277C132.582 57.1167 132.18 56.5218 131.901 55.7429C131.623 54.9607 131.484 54.0161 131.484 52.9091C131.484 51.8087 131.623 50.8691 131.901 50.0902C132.183 49.308 132.587 48.7114 133.114 48.3004C133.645 47.8861 134.281 47.679 135.023 47.679C135.766 47.679 136.401 47.8861 136.928 48.3004C137.458 48.7114 137.862 49.308 138.141 50.0902C138.422 50.8691 138.563 51.8087 138.563 52.9091C138.563 54.0161 138.424 54.9607 138.146 55.7429C137.867 56.5218 137.464 57.1167 136.938 57.5277C136.411 57.9354 135.772 58.1392 135.023 58.1392ZM135.023 57.0455C135.766 57.0455 136.343 56.6875 136.754 55.9716C137.165 55.2557 137.37 54.2348 137.37 52.9091C137.37 52.0275 137.276 51.2768 137.087 50.657C136.901 50.0372 136.633 49.5649 136.281 49.2401C135.933 48.9152 135.514 48.7528 135.023 48.7528C134.288 48.7528 133.713 49.1158 133.298 49.8416C132.884 50.5642 132.677 51.5866 132.677 52.9091C132.677 53.7907 132.77 54.5398 132.955 55.1562C133.141 55.7727 133.408 56.2417 133.756 56.5632C134.107 56.8847 134.53 57.0455 135.023 57.0455ZM140.631 58V47.8182H146.776V48.9119H141.864V52.3523H146.458V53.446H141.864V56.9062H146.856V58H140.631ZM152.141 58.1392C151.392 58.1392 150.754 57.9354 150.227 57.5277C149.7 57.1167 149.297 56.5218 149.018 55.7429C148.74 54.9607 148.601 54.0161 148.601 52.9091C148.601 51.8087 148.74 50.8691 149.018 50.0902C149.3 49.308 149.705 48.7114 150.232 48.3004C150.762 47.8861 151.398 47.679 152.141 47.679C152.883 47.679 153.518 47.8861 154.045 48.3004C154.575 48.7114 154.979 49.308 155.258 50.0902C155.54 50.8691 155.68 51.8087 155.68 52.9091C155.68 54.0161 155.541 54.9607 155.263 55.7429C154.984 56.5218 154.582 57.1167 154.055 57.5277C153.528 57.9354 152.89 58.1392 152.141 58.1392ZM152.141 57.0455C152.883 57.0455 153.46 56.6875 153.871 55.9716C154.282 55.2557 154.487 54.2348 154.487 52.9091C154.487 52.0275 154.393 51.2768 154.204 50.657C154.018 50.0372 153.75 49.5649 153.398 49.2401C153.05 48.9152 152.631 48.7528 152.141 48.7528C151.405 48.7528 150.83 49.1158 150.415 49.8416C150.001 50.5642 149.794 51.5866 149.794 52.9091C149.794 53.7907 149.887 54.5398 150.072 55.1562C150.258 55.7727 150.525 56.2417 150.873 56.5632C151.224 56.8847 151.647 57.0455 152.141 57.0455ZM157.749 58V47.8182H163.893V48.9119H158.982V52.3523H163.575V53.446H158.982V56.9062H163.973V58H157.749ZM169.258 58.1392C168.509 58.1392 167.871 57.9354 167.344 57.5277C166.817 57.1167 166.414 56.5218 166.136 55.7429C165.857 54.9607 165.718 54.0161 165.718 52.9091C165.718 51.8087 165.857 50.8691 166.136 50.0902C166.417 49.308 166.822 48.7114 167.349 48.3004C167.879 47.8861 168.515 47.679 169.258 47.679C170 47.679 170.635 47.8861 171.162 48.3004C171.692 48.7114 172.097 49.308 172.375 50.0902C172.657 50.8691 172.798 51.8087 172.798 52.9091C172.798 54.0161 172.658 54.9607 172.38 55.7429C172.102 56.5218 171.699 57.1167 171.172 57.5277C170.645 57.9354 170.007 58.1392 169.258 58.1392ZM169.258 57.0455C170 57.0455 170.577 56.6875 170.988 55.9716C171.399 55.2557 171.604 54.2348 171.604 52.9091C171.604 52.0275 171.51 51.2768 171.321 50.657C171.135 50.0372 170.867 49.5649 170.516 49.2401C170.168 48.9152 169.748 48.7528 169.258 48.7528C168.522 48.7528 167.947 49.1158 167.533 49.8416C167.118 50.5642 166.911 51.5866 166.911 52.9091C166.911 53.7907 167.004 54.5398 167.19 55.1562C167.375 55.7727 167.642 56.2417 167.99 56.5632C168.341 56.8847 168.764 57.0455 169.258 57.0455ZM176.457 56.608L176.377 57.1449C176.321 57.5227 176.235 57.9271 176.119 58.358C176.006 58.7888 175.888 59.1948 175.766 59.576C175.643 59.9571 175.542 60.2604 175.462 60.4858H174.567C174.611 60.2737 174.667 59.9936 174.737 59.6456C174.806 59.2976 174.876 58.9081 174.945 58.4773C175.018 58.0497 175.078 57.6122 175.124 57.1648L175.184 56.608H176.457ZM175.741 52.4119C175.496 52.4119 175.285 52.3241 175.109 52.1484C174.934 51.9728 174.846 51.7623 174.846 51.517C174.846 51.2718 174.934 51.0613 175.109 50.8857C175.285 50.71 175.496 50.6222 175.741 50.6222C175.986 50.6222 176.196 50.71 176.372 50.8857C176.548 51.0613 176.636 51.2718 176.636 51.517C176.636 51.6795 176.594 51.8286 176.511 51.9645C176.432 52.1004 176.324 52.2098 176.188 52.2926C176.056 52.3722 175.906 52.4119 175.741 52.4119Z" fill="white" style="mix-blend-mode:soft-light"/>
<path d="M1.07386 82.8636V72.3636H2.20739V73.5767H2.34659C2.43277 73.4441 2.55208 73.2751 2.70455 73.0696C2.86032 72.8608 3.08239 72.6752 3.37074 72.5128C3.66241 72.3471 4.05682 72.2642 4.55398 72.2642C5.19697 72.2642 5.76373 72.425 6.25426 72.7464C6.74479 73.0679 7.1276 73.5237 7.4027 74.1136C7.67779 74.7036 7.81534 75.3996 7.81534 76.2017C7.81534 77.0104 7.67779 77.7114 7.4027 78.3047C7.1276 78.8946 6.74645 79.352 6.25923 79.6768C5.77202 79.9983 5.21023 80.1591 4.57386 80.1591C4.08333 80.1591 3.69058 80.0779 3.3956 79.9155C3.10062 79.7498 2.87358 79.5625 2.71449 79.3537C2.5554 79.1416 2.43277 78.9659 2.34659 78.8267H2.24716V82.8636H1.07386ZM2.22727 76.1818C2.22727 76.7585 2.31179 77.2673 2.48082 77.7081C2.64986 78.1456 2.89678 78.4886 3.22159 78.7372C3.5464 78.9825 3.94413 79.1051 4.41477 79.1051C4.9053 79.1051 5.31463 78.9759 5.64276 78.7173C5.9742 78.4555 6.22277 78.1042 6.38849 77.6634C6.55753 77.2192 6.64205 76.7254 6.64205 76.1818C6.64205 75.6449 6.55919 75.161 6.39347 74.7301C6.23106 74.2959 5.98414 73.9529 5.6527 73.701C5.32457 73.4458 4.91193 73.3182 4.41477 73.3182C3.9375 73.3182 3.53646 73.4392 3.21165 73.6811C2.88684 73.9197 2.64157 74.2545 2.47585 74.6854C2.31013 75.1129 2.22727 75.6117 2.22727 76.1818ZM11.8523 80.179C11.3684 80.179 10.9292 80.0878 10.5348 79.9055C10.1404 79.7199 9.82718 79.4531 9.59517 79.1051C9.36316 78.7538 9.24716 78.3295 9.24716 77.8324C9.24716 77.3949 9.33333 77.0402 9.50568 76.7685C9.67803 76.4934 9.90838 76.2779 10.1967 76.1222C10.4851 75.9664 10.8033 75.8504 11.1513 75.7741C11.5026 75.6946 11.8556 75.6316 12.2102 75.5852C12.6742 75.5256 13.0504 75.4808 13.3388 75.451C13.6304 75.4179 13.8426 75.3632 13.9751 75.2869C14.111 75.2107 14.179 75.0781 14.179 74.8892V74.8494C14.179 74.3589 14.0447 73.9777 13.7763 73.706C13.5111 73.4342 13.1084 73.2983 12.5682 73.2983C12.008 73.2983 11.5689 73.4209 11.2507 73.6662C10.9325 73.9115 10.7088 74.1733 10.5795 74.4517L9.46591 74.054C9.66477 73.59 9.92992 73.2287 10.2614 72.9702C10.5961 72.7083 10.9607 72.526 11.3551 72.4233C11.7528 72.3172 12.1439 72.2642 12.5284 72.2642C12.7737 72.2642 13.0554 72.294 13.3736 72.3537C13.6951 72.41 14.005 72.5277 14.3033 72.7067C14.6049 72.8857 14.8551 73.1558 15.054 73.517C15.2528 73.8783 15.3523 74.3622 15.3523 74.9688V80H14.179V78.9659H14.1193C14.0398 79.1316 13.9072 79.3089 13.7216 79.4979C13.536 79.6868 13.2891 79.8475 12.9808 79.9801C12.6726 80.1127 12.2964 80.179 11.8523 80.179ZM12.0312 79.125C12.4953 79.125 12.8864 79.0339 13.2045 78.8516C13.526 78.6693 13.768 78.4339 13.9304 78.1456C14.0961 77.8572 14.179 77.554 14.179 77.2358V76.1619C14.1293 76.2216 14.0199 76.2763 13.8509 76.326C13.6851 76.3724 13.4929 76.4138 13.2741 76.4503C13.0587 76.4834 12.8482 76.5133 12.6428 76.5398C12.4406 76.563 12.2765 76.5829 12.1506 76.5994C11.8456 76.6392 11.5606 76.7038 11.2955 76.7933C11.0336 76.8795 10.8215 77.0104 10.6591 77.1861C10.5 77.3584 10.4205 77.5937 10.4205 77.892C10.4205 78.2997 10.5713 78.608 10.8729 78.8168C11.1778 79.0223 11.5639 79.125 12.0312 79.125ZM20.3773 80.1591C19.7409 80.1591 19.1792 79.9983 18.6919 79.6768C18.2047 79.352 17.8236 78.8946 17.5485 78.3047C17.2734 77.7114 17.1358 77.0104 17.1358 76.2017C17.1358 75.3996 17.2734 74.7036 17.5485 74.1136C17.8236 73.5237 18.2064 73.0679 18.6969 72.7464C19.1874 72.425 19.7542 72.2642 20.3972 72.2642C20.8944 72.2642 21.2871 72.3471 21.5755 72.5128C21.8671 72.6752 22.0892 72.8608 22.2417 73.0696C22.3974 73.2751 22.5184 73.4441 22.6046 73.5767H22.704V69.8182H23.8773V80H22.7438V78.8267H22.6046C22.5184 78.9659 22.3958 79.1416 22.2367 79.3537C22.0776 79.5625 21.8506 79.7498 21.5556 79.9155C21.2606 80.0779 20.8678 80.1591 20.3773 80.1591ZM20.5364 79.1051C21.007 79.1051 21.4048 78.9825 21.7296 78.7372C22.0544 78.4886 22.3013 78.1456 22.4703 77.7081C22.6394 77.2673 22.7239 76.7585 22.7239 76.1818C22.7239 75.6117 22.641 75.1129 22.4753 74.6854C22.3096 74.2545 22.0643 73.9197 21.7395 73.6811C21.4147 73.4392 21.0137 73.3182 20.5364 73.3182C20.0392 73.3182 19.6249 73.4458 19.2935 73.701C18.9654 73.9529 18.7185 74.2959 18.5527 74.7301C18.3903 75.161 18.3091 75.6449 18.3091 76.1818C18.3091 76.7254 18.392 77.2192 18.5577 77.6634C18.7267 78.1042 18.9753 78.4555 19.3034 78.7173C19.6349 78.9759 20.0459 79.1051 20.5364 79.1051ZM29.0726 80.1591C28.4363 80.1591 27.8745 79.9983 27.3873 79.6768C26.9 79.352 26.5189 78.8946 26.2438 78.3047C25.9687 77.7114 25.8311 77.0104 25.8311 76.2017C25.8311 75.3996 25.9687 74.7036 26.2438 74.1136C26.5189 73.5237 26.9017 73.0679 27.3922 72.7464C27.8828 72.425 28.4495 72.2642 29.0925 72.2642C29.5897 72.2642 29.9824 72.3471 30.2708 72.5128C30.5624 72.6752 30.7845 72.8608 30.937 73.0696C31.0927 73.2751 31.2137 73.4441 31.2999 73.5767H31.3993V69.8182H32.5726V80H31.4391V78.8267H31.2999C31.2137 78.9659 31.0911 79.1416 30.932 79.3537C30.7729 79.5625 30.5459 79.7498 30.2509 79.9155C29.9559 80.0779 29.5632 80.1591 29.0726 80.1591ZM29.2317 79.1051C29.7024 79.1051 30.1001 78.9825 30.4249 78.7372C30.7497 78.4886 30.9966 78.1456 31.1657 77.7081C31.3347 77.2673 31.4192 76.7585 31.4192 76.1818C31.4192 75.6117 31.3364 75.1129 31.1706 74.6854C31.0049 74.2545 30.7596 73.9197 30.4348 73.6811C30.11 73.4392 29.709 73.3182 29.2317 73.3182C28.7346 73.3182 28.3203 73.4458 27.9888 73.701C27.6607 73.9529 27.4138 74.2959 27.248 74.7301C27.0856 75.161 27.0044 75.6449 27.0044 76.1818C27.0044 76.7254 27.0873 77.2192 27.253 77.6634C27.4221 78.1042 27.6706 78.4555 27.9988 78.7173C28.3302 78.9759 28.7412 79.1051 29.2317 79.1051ZM34.8844 80V72.3636H36.0577V80H34.8844ZM35.481 71.0909C35.2523 71.0909 35.0551 71.013 34.8894 70.8572C34.727 70.7015 34.6458 70.5142 34.6458 70.2955C34.6458 70.0767 34.727 69.8894 34.8894 69.7337C35.0551 69.5779 35.2523 69.5 35.481 69.5C35.7097 69.5 35.9052 69.5779 36.0676 69.7337C36.2334 69.8894 36.3162 70.0767 36.3162 70.2955C36.3162 70.5142 36.2334 70.7015 36.0676 70.8572C35.9052 71.013 35.7097 71.0909 35.481 71.0909ZM39.38 75.4062V80H38.2067V72.3636H39.3402V73.5568H39.4396C39.6186 73.169 39.8904 72.8575 40.255 72.6222C40.6196 72.3835 41.0902 72.2642 41.6669 72.2642C42.1839 72.2642 42.6364 72.3703 43.0241 72.5824C43.4119 72.7912 43.7135 73.1094 43.929 73.5369C44.1444 73.9612 44.2521 74.4981 44.2521 75.1477V80H43.0788V75.2273C43.0788 74.6274 42.9231 74.16 42.6115 73.8253C42.3 73.4872 41.8724 73.3182 41.3288 73.3182C40.9543 73.3182 40.6196 73.3994 40.3246 73.5618C40.0329 73.7242 39.8026 73.9612 39.6335 74.2727C39.4645 74.5843 39.38 74.9621 39.38 75.4062ZM49.4785 83.0227C48.9118 83.0227 48.4245 82.9498 48.0169 82.804C47.6092 82.6615 47.2695 82.4725 46.9977 82.2372C46.7292 82.0052 46.5154 81.7566 46.3564 81.4915L47.291 80.8352C47.3971 80.9744 47.5313 81.1335 47.6937 81.3125C47.8561 81.4948 48.0782 81.6522 48.3599 81.7848C48.6449 81.9207 49.0178 81.9886 49.4785 81.9886C50.095 81.9886 50.6038 81.8395 51.0048 81.5412C51.4058 81.2429 51.6064 80.7756 51.6064 80.1392V78.5881H51.5069C51.4208 78.7273 51.2981 78.8996 51.139 79.1051C50.9833 79.3073 50.7579 79.4879 50.4629 79.647C50.1712 79.8028 49.7768 79.8807 49.2797 79.8807C48.6632 79.8807 48.1097 79.7348 47.6191 79.4432C47.1319 79.1515 46.7458 78.7273 46.4608 78.1705C46.179 77.6136 46.0382 76.9375 46.0382 76.142C46.0382 75.3598 46.1757 74.6787 46.4508 74.0987C46.7259 73.5154 47.1087 73.0646 47.5993 72.7464C48.0898 72.425 48.6565 72.2642 49.2995 72.2642C49.7967 72.2642 50.1911 72.3471 50.4828 72.5128C50.7778 72.6752 51.0031 72.8608 51.1589 73.0696C51.318 73.2751 51.4406 73.4441 51.5268 73.5767H51.6461V72.3636H52.7797V80.2188C52.7797 80.875 52.6305 81.4086 52.3322 81.8196C52.0372 82.2339 51.6395 82.5372 51.139 82.7294C50.6419 82.925 50.0884 83.0227 49.4785 83.0227ZM49.4387 78.8267C49.9094 78.8267 50.3071 78.719 50.6319 78.5036C50.9567 78.2881 51.2037 77.9782 51.3727 77.5739C51.5417 77.1695 51.6262 76.6856 51.6262 76.1222C51.6262 75.572 51.5434 75.0864 51.3777 74.6655C51.2119 74.2446 50.9667 73.9148 50.6419 73.6761C50.3171 73.4375 49.916 73.3182 49.4387 73.3182C48.9416 73.3182 48.5273 73.4441 48.1958 73.696C47.8677 73.9479 47.6208 74.286 47.4551 74.7102C47.2927 75.1345 47.2115 75.6051 47.2115 76.1222C47.2115 76.6525 47.2943 77.1214 47.46 77.5291C47.6291 77.9335 47.8777 78.2517 48.2058 78.4837C48.5372 78.7124 48.9482 78.8267 49.4387 78.8267ZM55.7825 80.0795C55.5372 80.0795 55.3268 79.9917 55.1511 79.8161C54.9754 79.6404 54.8876 79.4299 54.8876 79.1847C54.8876 78.9394 54.9754 78.7289 55.1511 78.5533C55.3268 78.3776 55.5372 78.2898 55.7825 78.2898C56.0278 78.2898 56.2382 78.3776 56.4139 78.5533C56.5895 78.7289 56.6774 78.9394 56.6774 79.1847C56.6774 79.3471 56.6359 79.4962 56.5531 79.6321C56.4735 79.768 56.3658 79.8774 56.2299 79.9602C56.0974 80.0398 55.9482 80.0795 55.7825 80.0795ZM55.7825 74.4119C55.5372 74.4119 55.3268 74.3241 55.1511 74.1484C54.9754 73.9728 54.8876 73.7623 54.8876 73.517C54.8876 73.2718 54.9754 73.0613 55.1511 72.8857C55.3268 72.71 55.5372 72.6222 55.7825 72.6222C56.0278 72.6222 56.2382 72.71 56.4139 72.8857C56.5895 73.0613 56.6774 73.2718 56.6774 73.517C56.6774 73.6795 56.6359 73.8286 56.5531 73.9645C56.4735 74.1004 56.3658 74.2098 56.2299 74.2926C56.0974 74.3722 55.9482 74.4119 55.7825 74.4119ZM66.28 69.8182V80H65.0471V71.1108H64.9874L62.5016 72.7614V71.5085L65.0471 69.8182H66.28ZM69.2282 82.8636V72.3636H70.3617V73.5767H70.5009C70.5871 73.4441 70.7064 73.2751 70.8588 73.0696C71.0146 72.8608 71.2367 72.6752 71.525 72.5128C71.8167 72.3471 72.2111 72.2642 72.7083 72.2642C73.3513 72.2642 73.918 72.425 74.4086 72.7464C74.8991 73.0679 75.2819 73.5237 75.557 74.1136C75.8321 74.7036 75.9696 75.3996 75.9696 76.2017C75.9696 77.0104 75.8321 77.7114 75.557 78.3047C75.2819 78.8946 74.9007 79.352 74.4135 79.6768C73.9263 79.9983 73.3645 80.1591 72.7282 80.1591C72.2376 80.1591 71.8449 80.0779 71.5499 79.9155C71.2549 79.7498 71.0279 79.5625 70.8688 79.3537C70.7097 79.1416 70.5871 78.9659 70.5009 78.8267H70.4015V82.8636H69.2282ZM70.3816 76.1818C70.3816 76.7585 70.4661 77.2673 70.6351 77.7081C70.8042 78.1456 71.0511 78.4886 71.3759 78.7372C71.7007 78.9825 72.0984 79.1051 72.5691 79.1051C73.0596 79.1051 73.4689 78.9759 73.7971 78.7173C74.1285 78.4555 74.3771 78.1042 74.5428 77.6634C74.7118 77.2192 74.7963 76.7254 74.7963 76.1818C74.7963 75.6449 74.7135 75.161 74.5478 74.7301C74.3854 74.2959 74.1384 73.9529 73.807 73.701C73.4789 73.4458 73.0662 73.3182 72.5691 73.3182C72.0918 73.3182 71.6908 73.4392 71.3659 73.6811C71.0411 73.9197 70.7959 74.2545 70.6301 74.6854C70.4644 75.1129 70.3816 75.6117 70.3816 76.1818ZM78.32 72.3636L80.1495 75.4858L81.979 72.3636H83.3313L80.8654 76.1818L83.3313 80H81.979L80.1495 77.0369L78.32 80H76.9677L79.3938 76.1818L76.9677 72.3636H78.32ZM86.7555 78.608L86.676 79.1449C86.6196 79.5227 86.5334 79.9271 86.4174 80.358C86.3047 80.7888 86.1871 81.1948 86.0645 81.576C85.9418 81.9571 85.8407 82.2604 85.7612 82.4858H84.8663C84.9094 82.2737 84.9657 81.9936 85.0353 81.6456C85.1049 81.2976 85.1745 80.9081 85.2441 80.4773C85.3171 80.0497 85.3767 79.6122 85.4231 79.1648L85.4828 78.608H86.7555ZM86.0396 74.4119C85.7943 74.4119 85.5839 74.3241 85.4082 74.1484C85.2325 73.9728 85.1447 73.7623 85.1447 73.517C85.1447 73.2718 85.2325 73.0613 85.4082 72.8857C85.5839 72.71 85.7943 72.6222 86.0396 72.6222C86.2849 72.6222 86.4953 72.71 86.671 72.8857C86.8467 73.0613 86.9345 73.2718 86.9345 73.517C86.9345 73.6795 86.8931 73.8286 86.8102 73.9645C86.7306 74.1004 86.6229 74.2098 86.487 74.2926C86.3545 74.3722 86.2053 74.4119 86.0396 74.4119Z" fill="white" style="mix-blend-mode:soft-light"/>
<path d="M1.07386 102V94.3636H2.20739V95.5568H2.30682C2.46591 95.1491 2.72277 94.8326 3.07741 94.6072C3.43205 94.3786 3.85795 94.2642 4.35511 94.2642C4.8589 94.2642 5.27817 94.3786 5.61293 94.6072C5.95099 94.8326 6.21449 95.1491 6.40341 95.5568H6.48295C6.6785 95.1624 6.97183 94.8492 7.36293 94.6172C7.75403 94.3819 8.22301 94.2642 8.76989 94.2642C9.45265 94.2642 10.0111 94.478 10.4453 94.9055C10.8795 95.3298 11.0966 95.991 11.0966 96.8892V102H9.9233V96.8892C9.9233 96.3258 9.76918 95.9231 9.46094 95.6811C9.1527 95.4392 8.78977 95.3182 8.37216 95.3182C7.83523 95.3182 7.41927 95.4806 7.12429 95.8054C6.82931 96.1269 6.68182 96.5346 6.68182 97.0284V102H5.48864V96.7699C5.48864 96.3357 5.34777 95.986 5.06605 95.7209C4.78433 95.4524 4.4214 95.3182 3.97727 95.3182C3.67235 95.3182 3.38731 95.3994 3.12216 95.5618C2.86032 95.7242 2.6482 95.9496 2.4858 96.2379C2.3267 96.523 2.24716 96.8527 2.24716 97.2273V102H1.07386ZM15.489 102.179C15.0051 102.179 14.5659 102.088 14.1715 101.906C13.7771 101.72 13.4639 101.453 13.2319 101.105C12.9999 100.754 12.8839 100.33 12.8839 99.8324C12.8839 99.3949 12.9701 99.0402 13.1424 98.7685C13.3147 98.4934 13.5451 98.2779 13.8335 98.1222C14.1218 97.9664 14.44 97.8504 14.788 97.7741C15.1393 97.6946 15.4923 97.6316 15.8469 97.5852C16.311 97.5256 16.6871 97.4808 16.9755 97.451C17.2672 97.4179 17.4793 97.3632 17.6119 97.2869C17.7478 97.2107 17.8157 97.0781 17.8157 96.8892V96.8494C17.8157 96.3589 17.6815 95.9777 17.413 95.706C17.1478 95.4342 16.7451 95.2983 16.2049 95.2983C15.6448 95.2983 15.2056 95.4209 14.8874 95.6662C14.5692 95.9115 14.3455 96.1733 14.2163 96.4517L13.1026 96.054C13.3015 95.59 13.5666 95.2287 13.8981 94.9702C14.2328 94.7083 14.5974 94.526 14.9918 94.4233C15.3896 94.3172 15.7807 94.2642 16.1651 94.2642C16.4104 94.2642 16.6921 94.294 17.0103 94.3537C17.3318 94.41 17.6417 94.5277 17.94 94.7067C18.2416 94.8857 18.4918 95.1558 18.6907 95.517C18.8896 95.8783 18.989 96.3622 18.989 96.9688V102H17.8157V100.966H17.756C17.6765 101.132 17.5439 101.309 17.3583 101.498C17.1727 101.687 16.9258 101.848 16.6175 101.98C16.3093 102.113 15.9331 102.179 15.489 102.179ZM15.668 101.125C16.132 101.125 16.5231 101.034 16.8413 100.852C17.1628 100.669 17.4047 100.434 17.5671 100.146C17.7328 99.8572 17.8157 99.554 17.8157 99.2358V98.1619C17.766 98.2216 17.6566 98.2763 17.4876 98.326C17.3219 98.3724 17.1296 98.4138 16.9109 98.4503C16.6954 98.4834 16.485 98.5133 16.2795 98.5398C16.0773 98.563 15.9132 98.5829 15.7873 98.5994C15.4824 98.6392 15.1973 98.7038 14.9322 98.7933C14.6703 98.8795 14.4582 99.0104 14.2958 99.1861C14.1367 99.3584 14.0572 99.5937 14.0572 99.892C14.0572 100.3 14.208 100.608 14.5096 100.817C14.8145 101.022 15.2006 101.125 15.668 101.125ZM21.1305 102V94.3636H22.264V95.517H22.3436C22.4828 95.1392 22.7347 94.8326 23.0993 94.5973C23.4638 94.362 23.8748 94.2443 24.3322 94.2443C24.4184 94.2443 24.5261 94.246 24.6554 94.2493C24.7846 94.2526 24.8824 94.2576 24.9487 94.2642V95.4574C24.9089 95.4474 24.8178 95.4325 24.6752 95.4126C24.536 95.3894 24.3886 95.3778 24.2328 95.3778C23.8616 95.3778 23.5301 95.4557 23.2385 95.6115C22.9501 95.764 22.7214 95.9761 22.5524 96.2479C22.3867 96.5163 22.3038 96.8229 22.3038 97.1676V102H21.1305ZM29.1895 105.023C28.6227 105.023 28.1355 104.95 27.7278 104.804C27.3201 104.661 26.9804 104.473 26.7086 104.237C26.4402 104.005 26.2264 103.757 26.0673 103.491L27.002 102.835C27.108 102.974 27.2422 103.134 27.4047 103.312C27.5671 103.495 27.7891 103.652 28.0708 103.785C28.3559 103.921 28.7288 103.989 29.1895 103.989C29.8059 103.989 30.3147 103.839 30.7157 103.541C31.1168 103.243 31.3173 102.776 31.3173 102.139V100.588H31.2179C31.1317 100.727 31.0091 100.9 30.85 101.105C30.6942 101.307 30.4688 101.488 30.1738 101.647C29.8822 101.803 29.4877 101.881 28.9906 101.881C28.3741 101.881 27.8206 101.735 27.3301 101.443C26.8429 101.152 26.4567 100.727 26.1717 100.17C25.89 99.6136 25.7491 98.9375 25.7491 98.142C25.7491 97.3598 25.8867 96.6787 26.1618 96.0987C26.4368 95.5154 26.8197 95.0646 27.3102 94.7464C27.8007 94.425 28.3675 94.2642 29.0105 94.2642C29.5076 94.2642 29.902 94.3471 30.1937 94.5128C30.4887 94.6752 30.7141 94.8608 30.8699 95.0696C31.0289 95.2751 31.1516 95.4441 31.2377 95.5767H31.3571V94.3636H32.4906V102.219C32.4906 102.875 32.3414 103.409 32.0431 103.82C31.7482 104.234 31.3504 104.537 30.85 104.729C30.3528 104.925 29.7993 105.023 29.1895 105.023ZM29.1497 100.827C29.6203 100.827 30.0181 100.719 30.3429 100.504C30.6677 100.288 30.9146 99.9782 31.0836 99.5739C31.2527 99.1695 31.3372 98.6856 31.3372 98.1222C31.3372 97.572 31.2543 97.0864 31.0886 96.6655C30.9229 96.2446 30.6776 95.9148 30.3528 95.6761C30.028 95.4375 29.627 95.3182 29.1497 95.3182C28.6525 95.3182 28.2382 95.4441 27.9068 95.696C27.5787 95.9479 27.3317 96.286 27.166 96.7102C27.0036 97.1345 26.9224 97.6051 26.9224 98.1222C26.9224 98.6525 27.0053 99.1214 27.171 99.5291C27.34 99.9335 27.5886 100.252 27.9167 100.484C28.2482 100.712 28.6592 100.827 29.1497 100.827ZM34.6383 102V94.3636H35.8116V102H34.6383ZM35.2349 93.0909C35.0062 93.0909 34.809 93.013 34.6433 92.8572C34.4809 92.7015 34.3997 92.5142 34.3997 92.2955C34.3997 92.0767 34.4809 91.8894 34.6433 91.7337C34.809 91.5779 35.0062 91.5 35.2349 91.5C35.4636 91.5 35.6592 91.5779 35.8216 91.7337C35.9873 91.8894 36.0701 92.0767 36.0701 92.2955C36.0701 92.5142 35.9873 92.7015 35.8216 92.8572C35.6592 93.013 35.4636 93.0909 35.2349 93.0909ZM39.1339 97.4062V102H37.9606V94.3636H39.0941V95.5568H39.1935C39.3725 95.169 39.6443 94.8575 40.0089 94.6222C40.3735 94.3835 40.8441 94.2642 41.4208 94.2642C41.9379 94.2642 42.3903 94.3703 42.7781 94.5824C43.1658 94.7912 43.4674 95.1094 43.6829 95.5369C43.8983 95.9612 44.006 96.4981 44.006 97.1477V102H42.8327V97.2273C42.8327 96.6274 42.677 96.16 42.3654 95.8253C42.0539 95.4872 41.6263 95.3182 41.0827 95.3182C40.7082 95.3182 40.3735 95.3994 40.0785 95.5618C39.7868 95.7242 39.5565 95.9612 39.3874 96.2727C39.2184 96.5843 39.1339 96.9621 39.1339 97.4062ZM47.0051 102.08C46.7599 102.08 46.5494 101.992 46.3738 101.816C46.1981 101.64 46.1103 101.43 46.1103 101.185C46.1103 100.939 46.1981 100.729 46.3738 100.553C46.5494 100.378 46.7599 100.29 47.0051 100.29C47.2504 100.29 47.4609 100.378 47.6365 100.553C47.8122 100.729 47.9 100.939 47.9 101.185C47.9 101.347 47.8586 101.496 47.7757 101.632C47.6962 101.768 47.5885 101.877 47.4526 101.96C47.32 102.04 47.1709 102.08 47.0051 102.08ZM47.0051 96.4119C46.7599 96.4119 46.5494 96.3241 46.3738 96.1484C46.1981 95.9728 46.1103 95.7623 46.1103 95.517C46.1103 95.2718 46.1981 95.0613 46.3738 94.8857C46.5494 94.71 46.7599 94.6222 47.0051 94.6222C47.2504 94.6222 47.4609 94.71 47.6365 94.8857C47.8122 95.0613 47.9 95.2718 47.9 95.517C47.9 95.6795 47.8586 95.8286 47.7757 95.9645C47.6962 96.1004 47.5885 96.2098 47.4526 96.2926C47.32 96.3722 47.1709 96.4119 47.0051 96.4119ZM57.2441 102.139C56.4951 102.139 55.8571 101.935 55.3301 101.528C54.8031 101.117 54.4004 100.522 54.122 99.7429C53.8436 98.9607 53.7044 98.0161 53.7044 96.9091C53.7044 95.8087 53.8436 94.8691 54.122 94.0902C54.4037 93.308 54.8081 92.7114 55.335 92.3004C55.8654 91.8861 56.5017 91.679 57.2441 91.679C57.9866 91.679 58.6213 91.8861 59.1483 92.3004C59.6786 92.7114 60.0829 93.308 60.3613 94.0902C60.6431 94.8691 60.7839 95.8087 60.7839 96.9091C60.7839 98.0161 60.6447 98.9607 60.3663 99.7429C60.0879 100.522 59.6852 101.117 59.1582 101.528C58.6312 101.935 57.9932 102.139 57.2441 102.139ZM57.2441 101.045C57.9866 101.045 58.5633 100.687 58.9743 99.9716C59.3852 99.2557 59.5907 98.2348 59.5907 96.9091C59.5907 96.0275 59.4963 95.2768 59.3074 94.657C59.1217 94.0372 58.8533 93.5649 58.502 93.2401C58.1539 92.9152 57.7347 92.7528 57.2441 92.7528C56.5083 92.7528 55.9333 93.1158 55.519 93.8416C55.1047 94.5642 54.8975 95.5866 54.8975 96.9091C54.8975 97.7907 54.9904 98.5398 55.176 99.1562C55.3616 99.7727 55.6284 100.242 55.9764 100.563C56.3277 100.885 56.7503 101.045 57.2441 101.045ZM70.1902 91.8182V102H68.9572V93.1108H68.8975L66.4118 94.7614V93.5085L68.9572 91.8182H70.1902ZM76.34 102.159C75.6042 102.159 74.9695 101.997 74.4359 101.672C73.9056 101.344 73.4963 100.886 73.2079 100.3C72.9229 99.7098 72.7804 99.0237 72.7804 98.2415C72.7804 97.4593 72.9229 96.7699 73.2079 96.1733C73.4963 95.5734 73.8973 95.1061 74.411 94.7713C74.9281 94.4332 75.5313 94.2642 76.2207 94.2642C76.6184 94.2642 77.0112 94.3305 77.399 94.4631C77.7868 94.5956 78.1397 94.8111 78.4579 95.1094C78.7761 95.4044 79.0297 95.7955 79.2186 96.2827C79.4075 96.7699 79.502 97.3698 79.502 98.0824V98.5795H73.6156V97.5653H78.3088C78.3088 97.1345 78.2226 96.75 78.0502 96.4119C77.8812 96.0739 77.6393 95.8071 77.3244 95.6115C77.0128 95.416 76.6449 95.3182 76.2207 95.3182C75.7534 95.3182 75.349 95.4342 75.0076 95.6662C74.6696 95.8949 74.4094 96.1932 74.2271 96.5611C74.0448 96.929 73.9537 97.3234 73.9537 97.7443V98.4205C73.9537 98.9972 74.0531 99.486 74.252 99.8871C74.4541 100.285 74.7342 100.588 75.0922 100.797C75.4501 101.002 75.8661 101.105 76.34 101.105C76.6483 101.105 76.9267 101.062 77.1752 100.976C77.4271 100.886 77.6442 100.754 77.8265 100.578C78.0088 100.399 78.1497 100.177 78.2491 99.9119L79.3826 100.23C79.2633 100.615 79.0628 100.953 78.7811 101.244C78.4993 101.533 78.1513 101.758 77.737 101.92C77.3227 102.08 76.8571 102.159 76.34 102.159ZM81.9567 94.3636L83.7862 97.4858L85.6158 94.3636H86.968L84.5021 98.1818L86.968 102H85.6158L83.7862 99.0369L81.9567 102H80.6044L83.0305 98.1818L80.6044 94.3636H81.9567ZM90.3922 100.608L90.3127 101.145C90.2563 101.523 90.1702 101.927 90.0542 102.358C89.9415 102.789 89.8238 103.195 89.7012 103.576C89.5785 103.957 89.4775 104.26 89.3979 104.486H88.503C88.5461 104.274 88.6025 103.994 88.6721 103.646C88.7417 103.298 88.8113 102.908 88.8809 102.477C88.9538 102.05 89.0134 101.612 89.0598 101.165L89.1195 100.608H90.3922ZM89.6763 96.4119C89.431 96.4119 89.2206 96.3241 89.0449 96.1484C88.8693 95.9728 88.7814 95.7623 88.7814 95.517C88.7814 95.2718 88.8693 95.0613 89.0449 94.8857C89.2206 94.71 89.431 94.6222 89.6763 94.6222C89.9216 94.6222 90.132 94.71 90.3077 94.8857C90.4834 95.0613 90.5712 95.2718 90.5712 95.517C90.5712 95.6795 90.5298 95.8286 90.4469 95.9645C90.3674 96.1004 90.2596 96.2098 90.1238 96.2926C89.9912 96.3722 89.842 96.4119 89.6763 96.4119Z" fill="white" style="mix-blend-mode:soft-light"/>
<path d="M4.17614 124.159C3.48674 124.159 2.88187 123.995 2.36151 123.667C1.84446 123.339 1.4401 122.88 1.14844 122.29C0.860085 121.7 0.715909 121.01 0.715909 120.222C0.715909 119.426 0.860085 118.732 1.14844 118.138C1.4401 117.545 1.84446 117.085 2.36151 116.756C2.88187 116.428 3.48674 116.264 4.17614 116.264C4.86553 116.264 5.46875 116.428 5.9858 116.756C6.50616 117.085 6.91051 117.545 7.19886 118.138C7.49053 118.732 7.63636 119.426 7.63636 120.222C7.63636 121.01 7.49053 121.7 7.19886 122.29C6.91051 122.88 6.50616 123.339 5.9858 123.667C5.46875 123.995 4.86553 124.159 4.17614 124.159ZM4.17614 123.105C4.69981 123.105 5.13068 122.971 5.46875 122.702C5.80682 122.434 6.05706 122.081 6.21946 121.643C6.38187 121.206 6.46307 120.732 6.46307 120.222C6.46307 119.711 6.38187 119.236 6.21946 118.795C6.05706 118.354 5.80682 117.998 5.46875 117.726C5.13068 117.454 4.69981 117.318 4.17614 117.318C3.65246 117.318 3.22159 117.454 2.88352 117.726C2.54545 117.998 2.29522 118.354 2.13281 118.795C1.97041 119.236 1.8892 119.711 1.8892 120.222C1.8892 120.732 1.97041 121.206 2.13281 121.643C2.29522 122.081 2.54545 122.434 2.88352 122.702C3.22159 122.971 3.65246 123.105 4.17614 123.105ZM15.3983 116.364L12.5744 124H11.3812L8.55735 116.364H9.83008L11.938 122.449H12.0176L14.1255 116.364H15.3983ZM19.8752 124.159C19.1394 124.159 18.5047 123.997 17.9711 123.672C17.4408 123.344 17.0314 122.886 16.7431 122.3C16.458 121.71 16.3155 121.024 16.3155 120.241C16.3155 119.459 16.458 118.77 16.7431 118.173C17.0314 117.573 17.4325 117.106 17.9462 116.771C18.4632 116.433 19.0665 116.264 19.7559 116.264C20.1536 116.264 20.5463 116.33 20.9341 116.463C21.3219 116.596 21.6749 116.811 21.9931 117.109C22.3113 117.404 22.5648 117.795 22.7537 118.283C22.9426 118.77 23.0371 119.37 23.0371 120.082V120.58H17.1507V119.565H21.8439C21.8439 119.134 21.7578 118.75 21.5854 118.412C21.4164 118.074 21.1744 117.807 20.8596 117.612C20.548 117.416 20.1801 117.318 19.7559 117.318C19.2885 117.318 18.8842 117.434 18.5428 117.666C18.2047 117.895 17.9445 118.193 17.7623 118.561C17.58 118.929 17.4888 119.323 17.4888 119.744V120.42C17.4888 120.997 17.5882 121.486 17.7871 121.887C17.9893 122.285 18.2694 122.588 18.6273 122.797C18.9853 123.002 19.4012 123.105 19.8752 123.105C20.1834 123.105 20.4618 123.062 20.7104 122.976C20.9623 122.886 21.1794 122.754 21.3617 122.578C21.544 122.399 21.6848 122.177 21.7843 121.912L22.9178 122.23C22.7985 122.615 22.598 122.953 22.3162 123.244C22.0345 123.533 21.6865 123.758 21.2722 123.92C20.8579 124.08 20.3922 124.159 19.8752 124.159ZM24.8219 124V116.364H25.9554V117.517H26.035C26.1742 117.139 26.4261 116.833 26.7907 116.597C27.1552 116.362 27.5662 116.244 28.0236 116.244C28.1098 116.244 28.2175 116.246 28.3468 116.249C28.476 116.253 28.5738 116.258 28.6401 116.264V117.457C28.6003 117.447 28.5092 117.433 28.3667 117.413C28.2275 117.389 28.08 117.378 27.9242 117.378C27.553 117.378 27.2215 117.456 26.9299 117.612C26.6415 117.764 26.4128 117.976 26.2438 118.248C26.0781 118.516 25.9952 118.823 25.9952 119.168V124H24.8219ZM33.91 116.364V117.358H29.7935V116.364H33.91ZM31.0265 124V115.31C31.0265 114.872 31.1292 114.508 31.3347 114.216C31.5402 113.924 31.807 113.705 32.1351 113.56C32.4632 113.414 32.8096 113.341 33.1742 113.341C33.4625 113.341 33.6979 113.364 33.8801 113.411C34.0624 113.457 34.1983 113.5 34.2878 113.54L33.9498 114.554C33.8901 114.534 33.8072 114.509 33.7012 114.479C33.5984 114.45 33.4625 114.435 33.2935 114.435C32.9057 114.435 32.6257 114.532 32.4533 114.728C32.2843 114.924 32.1998 115.21 32.1998 115.588V124H31.0265ZM36.7276 113.818V124H35.5543V113.818H36.7276ZM41.9789 124.159C41.2895 124.159 40.6846 123.995 40.1642 123.667C39.6472 123.339 39.2428 122.88 38.9512 122.29C38.6628 121.7 38.5186 121.01 38.5186 120.222C38.5186 119.426 38.6628 118.732 38.9512 118.138C39.2428 117.545 39.6472 117.085 40.1642 116.756C40.6846 116.428 41.2895 116.264 41.9789 116.264C42.6683 116.264 43.2715 116.428 43.7885 116.756C44.3089 117.085 44.7132 117.545 45.0016 118.138C45.2933 118.732 45.4391 119.426 45.4391 120.222C45.4391 121.01 45.2933 121.7 45.0016 122.29C44.7132 122.88 44.3089 123.339 43.7885 123.667C43.2715 123.995 42.6683 124.159 41.9789 124.159ZM41.9789 123.105C42.5025 123.105 42.9334 122.971 43.2715 122.702C43.6096 122.434 43.8598 122.081 44.0222 121.643C44.1846 121.206 44.2658 120.732 44.2658 120.222C44.2658 119.711 44.1846 119.236 44.0222 118.795C43.8598 118.354 43.6096 117.998 43.2715 117.726C42.9334 117.454 42.5025 117.318 41.9789 117.318C41.4552 117.318 41.0243 117.454 40.6863 117.726C40.3482 117.998 40.098 118.354 39.9355 118.795C39.7731 119.236 39.6919 119.711 39.6919 120.222C39.6919 120.732 39.7731 121.206 39.9355 121.643C40.098 122.081 40.3482 122.434 40.6863 122.702C41.0243 122.971 41.4552 123.105 41.9789 123.105ZM48.7005 124L46.3738 116.364H47.6067L49.2573 122.21H49.3368L50.9675 116.364H52.2203L53.8311 122.19H53.9107L55.5613 116.364H56.7942L54.4675 124H53.3141L51.6436 118.134H51.5243L49.8539 124H48.7005ZM59.2005 124.08C58.9552 124.08 58.7447 123.992 58.5691 123.816C58.3934 123.64 58.3056 123.43 58.3056 123.185C58.3056 122.939 58.3934 122.729 58.5691 122.553C58.7447 122.378 58.9552 122.29 59.2005 122.29C59.4457 122.29 59.6562 122.378 59.8319 122.553C60.0075 122.729 60.0953 122.939 60.0953 123.185C60.0953 123.347 60.0539 123.496 59.9711 123.632C59.8915 123.768 59.7838 123.877 59.6479 123.96C59.5153 124.04 59.3662 124.08 59.2005 124.08ZM59.2005 118.412C58.9552 118.412 58.7447 118.324 58.5691 118.148C58.3934 117.973 58.3056 117.762 58.3056 117.517C58.3056 117.272 58.3934 117.061 58.5691 116.886C58.7447 116.71 58.9552 116.622 59.2005 116.622C59.4457 116.622 59.6562 116.71 59.8319 116.886C60.0075 117.061 60.0953 117.272 60.0953 117.517C60.0953 117.679 60.0539 117.829 59.9711 117.964C59.8915 118.1 59.7838 118.21 59.6479 118.293C59.5153 118.372 59.3662 118.412 59.2005 118.412ZM67.3116 119.406V124H66.1383V113.818H67.3116V117.557H67.411C67.59 117.162 67.8585 116.849 68.2164 116.617C68.5777 116.382 69.0583 116.264 69.6582 116.264C70.1786 116.264 70.6343 116.369 71.0254 116.577C71.4165 116.783 71.7198 117.099 71.9352 117.527C72.1539 117.951 72.2633 118.491 72.2633 119.148V124H71.09V119.227C71.09 118.621 70.9326 118.152 70.6177 117.82C70.3062 117.486 69.8736 117.318 69.3201 117.318C68.9357 117.318 68.591 117.399 68.286 117.562C67.9844 117.724 67.7458 117.961 67.5701 118.273C67.3978 118.584 67.3116 118.962 67.3116 119.406ZM74.4098 124V116.364H75.5831V124H74.4098ZM75.0064 115.091C74.7777 115.091 74.5805 115.013 74.4148 114.857C74.2524 114.701 74.1712 114.514 74.1712 114.295C74.1712 114.077 74.2524 113.889 74.4148 113.734C74.5805 113.578 74.7777 113.5 75.0064 113.5C75.2351 113.5 75.4306 113.578 75.593 113.734C75.7588 113.889 75.8416 114.077 75.8416 114.295C75.8416 114.514 75.7588 114.701 75.593 114.857C75.4306 115.013 75.2351 115.091 75.0064 115.091ZM80.6156 124.159C79.9792 124.159 79.4174 123.998 78.9302 123.677C78.443 123.352 78.0618 122.895 77.7868 122.305C77.5117 121.711 77.3741 121.01 77.3741 120.202C77.3741 119.4 77.5117 118.704 77.7868 118.114C78.0618 117.524 78.4447 117.068 78.9352 116.746C79.4257 116.425 79.9925 116.264 80.6355 116.264C81.1326 116.264 81.5254 116.347 81.8137 116.513C82.1054 116.675 82.3275 116.861 82.4799 117.07C82.6357 117.275 82.7567 117.444 82.8429 117.577H82.9423V113.818H84.1156V124H82.9821V122.827H82.8429C82.7567 122.966 82.6341 123.142 82.475 123.354C82.3159 123.562 82.0888 123.75 81.7939 123.915C81.4989 124.078 81.1061 124.159 80.6156 124.159ZM80.7747 123.105C81.2453 123.105 81.6431 122.982 81.9679 122.737C82.2927 122.489 82.5396 122.146 82.7086 121.708C82.8777 121.267 82.9622 120.759 82.9622 120.182C82.9622 119.612 82.8793 119.113 82.7136 118.685C82.5479 118.254 82.3026 117.92 81.9778 117.681C81.653 117.439 81.252 117.318 80.7747 117.318C80.2775 117.318 79.8632 117.446 79.5318 117.701C79.2037 117.953 78.9567 118.296 78.791 118.73C78.6286 119.161 78.5474 119.645 78.5474 120.182C78.5474 120.725 78.6303 121.219 78.796 121.663C78.965 122.104 79.2136 122.455 79.5417 122.717C79.8732 122.976 80.2842 123.105 80.7747 123.105ZM89.3109 124.159C88.6745 124.159 88.1127 123.998 87.6255 123.677C87.1383 123.352 86.7572 122.895 86.4821 122.305C86.207 121.711 86.0694 121.01 86.0694 120.202C86.0694 119.4 86.207 118.704 86.4821 118.114C86.7572 117.524 87.14 117.068 87.6305 116.746C88.121 116.425 88.6878 116.264 89.3308 116.264C89.8279 116.264 90.2207 116.347 90.5091 116.513C90.8007 116.675 91.0228 116.861 91.1752 117.07C91.331 117.275 91.452 117.444 91.5382 117.577H91.6376V113.818H92.8109V124H91.6774V122.827H91.5382C91.452 122.966 91.3294 123.142 91.1703 123.354C91.0112 123.562 90.7842 123.75 90.4892 123.915C90.1942 124.078 89.8014 124.159 89.3109 124.159ZM89.47 123.105C89.9406 123.105 90.3384 122.982 90.6632 122.737C90.988 122.489 91.2349 122.146 91.4039 121.708C91.573 121.267 91.6575 120.759 91.6575 120.182C91.6575 119.612 91.5746 119.113 91.4089 118.685C91.2432 118.254 90.9979 117.92 90.6731 117.681C90.3483 117.439 89.9473 117.318 89.47 117.318C88.9728 117.318 88.5585 117.446 88.2271 117.701C87.899 117.953 87.652 118.296 87.4863 118.73C87.3239 119.161 87.2427 119.645 87.2427 120.182C87.2427 120.725 87.3256 121.219 87.4913 121.663C87.6603 122.104 87.9089 122.455 88.237 122.717C88.5685 122.976 88.9795 123.105 89.47 123.105ZM98.3244 124.159C97.5886 124.159 96.9539 123.997 96.4203 123.672C95.89 123.344 95.4806 122.886 95.1923 122.3C94.9073 121.71 94.7647 121.024 94.7647 120.241C94.7647 119.459 94.9073 118.77 95.1923 118.173C95.4806 117.573 95.8817 117.106 96.3954 116.771C96.9125 116.433 97.5157 116.264 98.2051 116.264C98.6028 116.264 98.9956 116.33 99.3833 116.463C99.7711 116.596 100.124 116.811 100.442 117.109C100.76 117.404 101.014 117.795 101.203 118.283C101.392 118.77 101.486 119.37 101.486 120.082V120.58H95.6V119.565H100.293C100.293 119.134 100.207 118.75 100.035 118.412C99.8656 118.074 99.6236 117.807 99.3088 117.612C98.9972 117.416 98.6293 117.318 98.2051 117.318C97.7377 117.318 97.3334 117.434 96.992 117.666C96.6539 117.895 96.3938 118.193 96.2115 118.561C96.0292 118.929 95.938 119.323 95.938 119.744V120.42C95.938 120.997 96.0375 121.486 96.2363 121.887C96.4385 122.285 96.7186 122.588 97.0765 122.797C97.4345 123.002 97.8504 123.105 98.3244 123.105C98.6326 123.105 98.911 123.062 99.1596 122.976C99.4115 122.886 99.6286 122.754 99.8109 122.578C99.9932 122.399 100.134 122.177 100.233 121.912L101.367 122.23C101.248 122.615 101.047 122.953 100.765 123.244C100.484 123.533 100.136 123.758 99.7214 123.92C99.3071 124.08 98.8414 124.159 98.3244 124.159ZM104.444 119.406V124H103.271V116.364H104.405V117.557H104.504C104.683 117.169 104.955 116.857 105.319 116.622C105.684 116.384 106.155 116.264 106.731 116.264C107.248 116.264 107.701 116.37 108.089 116.582C108.476 116.791 108.778 117.109 108.993 117.537C109.209 117.961 109.317 118.498 109.317 119.148V124H108.143V119.227C108.143 118.627 107.988 118.16 107.676 117.825C107.364 117.487 106.937 117.318 106.393 117.318C106.019 117.318 105.684 117.399 105.389 117.562C105.097 117.724 104.867 117.961 104.698 118.273C104.529 118.584 104.444 118.962 104.444 119.406ZM113.211 122.608L113.131 123.145C113.075 123.523 112.989 123.927 112.873 124.358C112.76 124.789 112.642 125.195 112.52 125.576C112.397 125.957 112.296 126.26 112.216 126.486H111.321C111.364 126.274 111.421 125.994 111.49 125.646C111.56 125.298 111.63 124.908 111.699 124.477C111.772 124.05 111.832 123.612 111.878 123.165L111.938 122.608H113.211ZM112.495 118.412C112.249 118.412 112.039 118.324 111.863 118.148C111.688 117.973 111.6 117.762 111.6 117.517C111.6 117.272 111.688 117.061 111.863 116.886C112.039 116.71 112.249 116.622 112.495 116.622C112.74 116.622 112.95 116.71 113.126 116.886C113.302 117.061 113.39 117.272 113.39 117.517C113.39 117.679 113.348 117.829 113.265 117.964C113.186 118.1 113.078 118.21 112.942 118.293C112.81 118.372 112.66 118.412 112.495 118.412Z" fill="white" style="mix-blend-mode:soft-light"/>
<path d="M1.92898 146.08C1.68371 146.08 1.47325 145.992 1.29759 145.816C1.12192 145.64 1.03409 145.43 1.03409 145.185C1.03409 144.939 1.12192 144.729 1.29759 144.553C1.47325 144.378 1.68371 144.29 1.92898 144.29C2.17424 144.29 2.38471 144.378 2.56037 144.553C2.73603 144.729 2.82386 144.939 2.82386 145.185C2.82386 145.347 2.78243 145.496 2.69957 145.632C2.62003 145.768 2.51231 145.877 2.37642 145.96C2.24384 146.04 2.0947 146.08 1.92898 146.08ZM8.03161 146.159C7.3157 146.159 6.69922 145.99 6.18217 145.652C5.66513 145.314 5.2674 144.848 4.98899 144.255C4.71058 143.662 4.57138 142.984 4.57138 142.222C4.57138 141.446 4.7139 140.762 4.99893 140.168C5.28729 139.572 5.68833 139.106 6.20206 138.771C6.71911 138.433 7.32232 138.264 8.01172 138.264C8.54865 138.264 9.03255 138.364 9.46342 138.562C9.89429 138.761 10.2473 139.04 10.5224 139.398C10.7975 139.756 10.9682 140.173 11.0344 140.651H9.86115C9.77166 140.303 9.5728 139.994 9.26456 139.726C8.95964 139.454 8.54865 139.318 8.03161 139.318C7.57422 139.318 7.17318 139.437 6.82848 139.676C6.4871 139.911 6.22029 140.245 6.02805 140.675C5.83913 141.103 5.74467 141.605 5.74467 142.182C5.74467 142.772 5.83748 143.286 6.02308 143.723C6.212 144.161 6.47715 144.5 6.81854 144.742C7.16323 144.984 7.56759 145.105 8.03161 145.105C8.33653 145.105 8.61328 145.052 8.86186 144.946C9.11044 144.84 9.3209 144.688 9.49325 144.489C9.6656 144.29 9.78823 144.051 9.86115 143.773H11.0344C10.9682 144.223 10.8041 144.629 10.5423 144.991C10.2837 145.349 9.9407 145.634 9.51314 145.846C9.0889 146.055 8.59505 146.159 8.03161 146.159ZM15.8519 146.159C15.1625 146.159 14.5576 145.995 14.0373 145.667C13.5202 145.339 13.1159 144.88 12.8242 144.29C12.5359 143.7 12.3917 143.01 12.3917 142.222C12.3917 141.426 12.5359 140.732 12.8242 140.138C13.1159 139.545 13.5202 139.085 14.0373 138.756C14.5576 138.428 15.1625 138.264 15.8519 138.264C16.5413 138.264 17.1445 138.428 17.6616 138.756C18.1819 139.085 18.5863 139.545 18.8746 140.138C19.1663 140.732 19.3121 141.426 19.3121 142.222C19.3121 143.01 19.1663 143.7 18.8746 144.29C18.5863 144.88 18.1819 145.339 17.6616 145.667C17.1445 145.995 16.5413 146.159 15.8519 146.159ZM15.8519 145.105C16.3756 145.105 16.8065 144.971 17.1445 144.702C17.4826 144.434 17.7328 144.081 17.8952 143.643C18.0576 143.206 18.1388 142.732 18.1388 142.222C18.1388 141.711 18.0576 141.236 17.8952 140.795C17.7328 140.354 17.4826 139.998 17.1445 139.726C16.8065 139.454 16.3756 139.318 15.8519 139.318C15.3282 139.318 14.8974 139.454 14.5593 139.726C14.2212 139.998 13.971 140.354 13.8086 140.795C13.6462 141.236 13.565 141.711 13.565 142.222C13.565 142.732 13.6462 143.206 13.8086 143.643C13.971 144.081 14.2212 144.434 14.5593 144.702C14.8974 144.971 15.3282 145.105 15.8519 145.105ZM23.9867 146.159C23.3503 146.159 22.7885 145.998 22.3013 145.677C21.8141 145.352 21.4329 144.895 21.1578 144.305C20.8828 143.711 20.7452 143.01 20.7452 142.202C20.7452 141.4 20.8828 140.704 21.1578 140.114C21.4329 139.524 21.8158 139.068 22.3063 138.746C22.7968 138.425 23.3636 138.264 24.0066 138.264C24.5037 138.264 24.8965 138.347 25.1848 138.513C25.4765 138.675 25.6986 138.861 25.851 139.07C26.0068 139.275 26.1278 139.444 26.214 139.577H26.3134V135.818H27.4867V146H26.3532V144.827H26.214C26.1278 144.966 26.0051 145.142 25.8461 145.354C25.687 145.562 25.4599 145.75 25.165 145.915C24.87 146.078 24.4772 146.159 23.9867 146.159ZM24.1458 145.105C24.6164 145.105 25.0141 144.982 25.339 144.737C25.6638 144.489 25.9107 144.146 26.0797 143.708C26.2488 143.267 26.3333 142.759 26.3333 142.182C26.3333 141.612 26.2504 141.113 26.0847 140.685C25.919 140.254 25.6737 139.92 25.3489 139.681C25.0241 139.439 24.623 139.318 24.1458 139.318C23.6486 139.318 23.2343 139.446 22.9029 139.701C22.5748 139.953 22.3278 140.296 22.1621 140.73C21.9997 141.161 21.9185 141.645 21.9185 142.182C21.9185 142.725 22.0014 143.219 22.1671 143.663C22.3361 144.104 22.5847 144.455 22.9128 144.717C23.2443 144.976 23.6552 145.105 24.1458 145.105ZM33.0002 146.159C32.2644 146.159 31.6297 145.997 31.0961 145.672C30.5658 145.344 30.1564 144.886 29.8681 144.3C29.583 143.71 29.4405 143.024 29.4405 142.241C29.4405 141.459 29.583 140.77 29.8681 140.173C30.1564 139.573 30.5575 139.106 31.0712 138.771C31.5882 138.433 32.1915 138.264 32.8809 138.264C33.2786 138.264 33.6713 138.33 34.0591 138.463C34.4469 138.596 34.7999 138.811 35.1181 139.109C35.4363 139.404 35.6898 139.795 35.8787 140.283C36.0676 140.77 36.1621 141.37 36.1621 142.082V142.58H30.2757V141.565H34.9689C34.9689 141.134 34.8828 140.75 34.7104 140.412C34.5414 140.074 34.2994 139.807 33.9846 139.612C33.673 139.416 33.3051 139.318 32.8809 139.318C32.4135 139.318 32.0092 139.434 31.6678 139.666C31.3297 139.895 31.0695 140.193 30.8873 140.561C30.705 140.929 30.6138 141.323 30.6138 141.744V142.42C30.6138 142.997 30.7132 143.486 30.9121 143.887C31.1143 144.285 31.3944 144.588 31.7523 144.797C32.1103 145.002 32.5262 145.105 33.0002 145.105C33.3084 145.105 33.5868 145.062 33.8354 144.976C34.0873 144.886 34.3044 144.754 34.4867 144.578C34.669 144.399 34.8098 144.177 34.9093 143.912L36.0428 144.23C35.9235 144.615 35.723 144.953 35.4412 145.244C35.1595 145.533 34.8115 145.758 34.3972 145.92C33.9829 146.08 33.5172 146.159 33.0002 146.159Z" fill="white" style="mix-blend-mode:soft-light"/>
<path d="M0.517045 163.724V163.108C1.07055 163.108 1.45668 162.992 1.67543 162.76C1.89749 162.528 2.00852 162.14 2.00852 161.597V160.006C2.00852 159.548 2.05161 159.152 2.13778 158.817C2.22727 158.483 2.37145 158.206 2.57031 157.987C2.76918 157.768 3.03433 157.606 3.36577 157.5C3.69721 157.394 4.10653 157.341 4.59375 157.341V158.315C4.20928 158.315 3.90601 158.375 3.68395 158.494C3.4652 158.614 3.30942 158.799 3.21662 159.051C3.12713 159.3 3.08239 159.618 3.08239 160.006V161.994C3.08239 162.253 3.04759 162.488 2.97798 162.7C2.9117 162.912 2.78741 163.095 2.60511 163.247C2.42282 163.4 2.16264 163.517 1.82457 163.6C1.48982 163.683 1.05398 163.724 0.517045 163.724ZM4.59375 170.068C4.10653 170.068 3.69721 170.015 3.36577 169.909C3.03433 169.803 2.76918 169.641 2.57031 169.422C2.37145 169.203 2.22727 168.926 2.13778 168.592C2.05161 168.257 2.00852 167.861 2.00852 167.403V165.812C2.00852 165.269 1.89749 164.881 1.67543 164.649C1.45668 164.417 1.07055 164.301 0.517045 164.301V163.685C1.05398 163.685 1.48982 163.726 1.82457 163.809C2.16264 163.892 2.42282 164.009 2.60511 164.162C2.78741 164.314 2.9117 164.497 2.97798 164.709C3.04759 164.921 3.08239 165.156 3.08239 165.415V167.403C3.08239 167.791 3.12713 168.109 3.21662 168.358C3.30942 168.607 3.4652 168.79 3.68395 168.91C3.90601 169.032 4.20928 169.094 4.59375 169.094V170.068ZM0.517045 164.301V163.108H1.69034V164.301H0.517045Z" fill="white" style="mix-blend-mode:soft-light"/>
</svg>
