<svg width="97" height="97" viewBox="0 0 97 97" fill="none" xmlns="http://www.w3.org/2000/svg">
<path fill-rule="evenodd" clip-rule="evenodd" d="M9.09375 48.5C9.09375 58.9512 13.2455 68.9743 20.6356 76.3644C28.0257 83.7545 38.0488 87.9062 48.5 87.9062C58.9512 87.9062 68.9743 83.7545 76.3644 76.3644C83.7545 68.9743 87.9062 58.9512 87.9062 48.5C87.9062 38.0488 83.7545 28.0257 76.3644 20.6356C68.9743 13.2455 58.9512 9.09375 48.5 9.09375C38.0488 9.09375 28.0257 13.2455 20.6356 20.6356C13.2455 28.0257 9.09375 38.0488 9.09375 48.5ZM64.5232 47.2026L38.6727 31.6887C38.4424 31.5499 38.1793 31.475 37.9104 31.4715C37.6416 31.4679 37.3766 31.536 37.1428 31.6687C36.9089 31.8013 36.7146 31.9938 36.5796 32.2264C36.4447 32.459 36.3741 32.7233 36.375 32.9921V64.0139C36.3752 64.2823 36.4466 64.5458 36.5819 64.7775C36.7173 65.0092 36.9117 65.2009 37.1454 65.3328C37.3791 65.4648 37.6436 65.5323 37.912 65.5285C38.1803 65.5247 38.4428 65.4498 38.6727 65.3113L64.5232 49.7974C64.7466 49.6625 64.9314 49.4721 65.0596 49.2448C65.1879 49.0175 65.2553 48.761 65.2553 48.5C65.2553 48.239 65.1879 47.9825 65.0596 47.7552C64.9314 47.5279 64.7466 47.3375 64.5232 47.2026Z" fill="black" fill-opacity="0.3"/>
<path d="M38.6727 31.6887L64.5232 47.2026C64.7466 47.3375 64.9314 47.5279 65.0596 47.7552C65.1879 47.9825 65.2553 48.239 65.2553 48.5C65.2553 48.761 65.1879 49.0175 65.0596 49.2448C64.9314 49.4721 64.7466 49.6625 64.5232 49.7974L38.6727 65.3113C38.4428 65.4498 38.1803 65.5247 37.912 65.5285C37.6436 65.5323 37.3791 65.4648 37.1454 65.3328C36.9117 65.2009 36.7173 65.0092 36.5819 64.7775C36.4466 64.5458 36.3752 64.2823 36.375 64.0139V32.9921C36.3741 32.7233 36.4447 32.459 36.5796 32.2264C36.7146 31.9938 36.9089 31.8013 37.1428 31.6687C37.3766 31.536 37.6416 31.4679 37.9104 31.4715C38.1793 31.475 38.4424 31.5499 38.6727 31.6887Z" fill="#8DC1FF"/>
<path fill-rule="evenodd" clip-rule="evenodd" d="M48.5 0C61.363 0 73.6992 5.10981 82.7947 14.2053C91.8902 23.3008 97 35.637 97 48.5C97 61.363 91.8902 73.6992 82.7947 82.7947C73.6992 91.8902 61.363 97 48.5 97C35.637 97 23.3008 91.8902 14.2053 82.7947C5.10981 73.6992 0 61.363 0 48.5C0 35.637 5.10981 23.3008 14.2053 14.2053C23.3008 5.10981 35.637 0 48.5 0ZM20.6356 76.3644C13.2455 68.9743 9.09375 58.9512 9.09375 48.5C9.09375 38.0488 13.2455 28.0257 20.6356 20.6356C28.0257 13.2455 38.0488 9.09375 48.5 9.09375C58.9512 9.09375 68.9743 13.2455 76.3644 20.6356C83.7545 28.0257 87.9062 38.0488 87.9062 48.5C87.9062 58.9512 83.7545 68.9743 76.3644 76.3644C68.9743 83.7545 58.9512 87.9062 48.5 87.9062C38.0488 87.9062 28.0257 83.7545 20.6356 76.3644Z" fill="#8DC1FF"/>
</svg>
