<?xml version="1.0" encoding="UTF-8"?>
<svg id="_Слой_2" xmlns="http://www.w3.org/2000/svg" version="1.1" viewBox="0 0 486.8 117.6">
  <!-- Generator: Adobe Illustrator 29.3.0, SVG Export Plug-In . SVG Version: 2.1.0 Build 146)  -->
  <defs>
    <style>
      .st0 {
        fill: #121f3a;
      }

      .st1 {
        fill: #3e75ff;
      }
    </style>
  </defs>
  <g id="_Слой_1-2">
    <g>
      <g>
        <path class="st1" d="M84,27.1c-1-1-1.7-1.6-2.7-2-1-.3-2.4-.4-4.9-.5-1.6,0-3.1-.4-4.5-1s-2.7-1.5-3.8-2.6c-2.4-2.4-3.6-5.5-3.6-8.7s1.2-6.3,3.6-8.7S73.6,0,76.8,0s6.3,1.2,8.7,3.6c1.1,1.1,2,2.4,2.6,3.8.6,1.4.9,3,1,4.5,0,2.4.2,3.8.5,4.8s.9,1.6,1.9,2.6c.3.3.5.5.8.8,1.4,1.4,2.9,2.8,4.3,4.3,1.2,1.2,1.9,1.9,2.9,2.3s2.4.5,5,.5,3.1.4,4.5,1,2.7,1.5,3.8,2.6c2.4,2.4,3.6,5.5,3.6,8.7s-1.2,6.3-3.6,8.7-5.5,3.6-8.7,3.6h0c-.7,0-1.5,0-2.2-.2h0c-2.1-.5-7,0-13.2,1.2-5.2,1.1-11.3,2.8-17.2,5.2-.5.2-1.3.5-2.1.8-8,3.1-25.2,9.8-25.5,17.7v1.4c0,1.2.2,2.4.7,3.5.8,2,2.5,3.9,5.9,5.6,4.3,2.2,9.6,4.3,14.2,5.6,3.7,1,7,1.5,9,.9,1.5-.4,3.1-.5,4.6-.4,1.5.2,3,.6,4.4,1.4,3,1.6,5,4.3,6,7.3.9,3,.7,6.4-.9,9.3-1.6,3-4.3,5-7.3,6-3,.9-6.4.7-9.3-.9-1.4-.8-2.6-1.8-3.6-2.9-1-1.2-1.8-2.6-2.3-4.1-.9-2.6-3-5.5-5.9-8.3-3.3-3.3-7.6-6.5-11.7-9-.9-.6-1.9-1-2.9-1.3s-2.1-.5-3.2-.5c-2.1,0-4,.3-5.9.9-1,.3-2,.7-2.9,1.2-3.2,1.8-6.9,2.9-10.9,2.9-6,0-11.5-2.4-15.5-6.4S0,79.3,0,73.2s2.4-11.5,6.4-15.5,9.4-6.4,15.5-6.4,10.1,1.9,13.9,5c.8.6,1.6,1.1,2.5,1.5s1.9.7,3,.9c6.6,1.2,16.3-.7,25.5-4.1,9.7-3.6,18.7-8.8,22.9-13.8.7-.8,1.3-1.9,1.6-3,.3-1,.4-2.1.2-3.1-.3-.8-.8-1.4-1.6-2.3-.8-.8-1.6-1.6-2.4-2.4-1.1-1.1-2.2-2.2-3.2-3.3h0l-.3.4h0Z"/>
        <path class="st0" d="M170.3,54.9l-10.4-22c-1-2.1-3.2-3.5-5.5-3.5s-4.5,1.4-5.5,3.5l-24.9,52.3c-1.4,3,0,6.7,3,8.2,3,1.4,6.6,0,8.1-3l5.8-12.2h31c2.1,0,4-1.1,5.1-2.8,2.1-3.1-9.5-5.8-10.6-7.9h-.1s4-12.6,4-12.6ZM145.7,67.8l8.6-18.1,8.7,18.1h-17.3Z"/>
        <path class="st0" d="M185.3,87.9c0,3.3-2.8,6.1-6.2,6.1s-6.1-2.8-6.1-6.1,2.8-6.2,6.1-6.2,6.2,2.8,6.2,6.2Z"/>
        <path class="st0" d="M211.9,87.9c0,3.3-2.7,6.1-6.1,6.1s-6.1-2.8-6.1-6.1v-46.2h-13.4c-3.3,0-6.1-2.8-6.1-6.2s2.8-6.1,6.1-6.1h19.5c3.7,0,6.1,2.8,6.1,6.1v52.4h0Z"/>
        <path class="st0" d="M231.3,35.5c0,3.4-2.8,6.2-6.1,6.2s-6.2-2.8-6.2-6.2,2.8-6.1,6.2-6.1,6.1,2.8,6.1,6.1Z"/>
        <path class="st0" d="M231.3,35.5c0,3.4-2.8,6.2-6.1,6.2s-6.2-2.8-6.2-6.2,2.8-6.1,6.2-6.1,6.1,2.8,6.1,6.1Z"/>
        <path class="st0" d="M267.7,95.7c-2.8,0-14.2-.5-23.6-9.5-9.8-9.5-10.3-21.5-10.4-24.6-.1-4.1.4-11,4.4-17.6,1.6-2.7,4.4-7.1,9.5-8.7,1.3-.4,5.4-1.6,7.8.7,1.5,1.5,2,4.1,1.2,6-.5,1.2-1.4,1.8-2.3,2.6,0,0-4.3,3.2-6.6,8.6-1.1,2.6-1.7,5.4-1.7,8.4,0,12,9.7,21.8,21.7,21.8s21.8-12.8,21.8-21.8c0-2.4,0-7.5-3.2-11.2-.9-1-2.5-2.5-5.2-5.8-1.5-1.8-2.3-2.9-2.4-4.5,0-1.5.5-3,1.4-4.1,2.7-2.9,8.3-1.3,8.6-1.1,8.3,6.6,13.1,16.1,13.1,26.7s-7.2,21.1-8.4,22.3c-9.8,11.3-23.6,11.7-25.8,11.8Z"/>
        <path class="st1" d="M267.7,27.8c3.4,0,6.2,2.8,6.2,6.2s-2.8,6.1-6.2,6.1-6.1-2.8-6.1-6.1,2.8-6.2,6.1-6.2Z"/>
        <path class="st1" d="M267.7,27.8c3.4,0,6.2,2.8,6.2,6.2s-2.8,6.1-6.2,6.1-6.1-2.8-6.1-6.1,2.8-6.2,6.1-6.2Z"/>
        <path class="st0" d="M372.7,56.1l-18,34.8c-1.1,1.9-3.1,3.1-5.4,3.1s-4.2-1.2-5.4-3.2l-17.2-34.1v31.3c0,3.3-2.8,6.1-6.2,6.1s-6.1-2.8-6.1-6.1v-52.4c0-2.8,1.8-5.2,4.6-5.9,2.7-.6,5.5.6,6.8,3l23.4,44.5,24.1-44.6c1.3-2.4,4.2-3.6,6.8-3,2.7.7,4.6,3.1,4.6,5.9v52.4c0,3.3-2.8,6.1-6.2,6.1s-6.1-2.8-6.1-6.1v-31.8h.3Z"/>
        <path class="st0" d="M403.1,87.9v-54.1c0-3.3,2.8-6.1,6.1-6.1s6.2,2.8,6.2,6.1v54.1c0,3.3-2.8,6.1-6.2,6.1s-6.1-2.8-6.1-6.1Z"/>
        <path class="st0" d="M451.5,80.8c3.5,2,7.2,3,11.7,3.5,4.4.5,6.3,2.7,6.3,5.5s-2,5.8-7.8,5.8-9.4-1-14.1-3.1c-7.8-3.5-12.4-9.7-12.9-10.3-2-2.6-7-10-6.9-20.5,0-13.5,8.5-22.2,9.9-23.6,8.3-8.3,18.3-9.3,21.9-9.7.4,0,8.6-.8,17.3,2.5,3.5,1.3,5.9,2.9,7.2,5.4.4.7,1.4,2.8.7,5.2-.1.3-.8,2.5-2.7,3.4-2.1.9-4.5,0-6.2-1-3.7-2.1-8.4-4-14.2-4s-11.6,3.3-12.8,4.1c-8.1,5.9-8.8,15.4-8.9,17.6-.1,2.6-.3,7.5,3,12.4,2.8,4.2,6.7,6.1,8.4,6.8h0Z"/>
        <path class="st0" d="M474.5,83.4c0-3.3,2.8-6.1,6.1-6.1s6.2,2.8,6.2,6.1-2.8,6.2-6.2,6.2-6.1-2.8-6.1-6.2Z"/>
        <path class="st0" d="M474.5,83.4c0-3.3,2.8-6.1,6.1-6.1s6.2,2.8,6.2,6.1-2.8,6.2-6.2,6.2-6.1-2.8-6.1-6.2Z"/>
      </g>
      <polygon class="st0" points="167.8 49.9 184.8 85.5 173.8 91 154.3 49.9 167.8 49.9"/>
      <rect class="st0" x="201.4" y="29.4" width="23.8" height="12.3"/>
      <path class="st0" d="M460.5,95.6c2.7,0,8.2,0,13.9-1.9,3.3-1.1,5.6-2.4,7.3-3.5,1.6-.9,2.3-1.4,2.9-2.2,2.2-3.1,1.3-8.8-1.7-10.4-.8-.4-1.6-.4-2.3-.4-4.2,0-5.4,3.5-10.6,5.6-2.9,1.2-5.6,1.3-7.1,1.4-3.2,0-5.9-.5-7.6-1"/>
    </g>
  </g>
</svg>