<?xml version="1.0" encoding="UTF-8"?>
<svg id="_Слой_2" data-name="Слой 2" xmlns="http://www.w3.org/2000/svg" viewBox="0 0 486.8 117.63">
  <defs>
    <style>
      .cls-1 {
        fill: #d77578;
      }

      .cls-2 {
        fill: #fff;
      }

      .cls-3 {
        fill: #3e75ff;
      }
    </style>
  </defs>
  <g id="_Слой_1-2" data-name=" Слой 1">
    <g>
      <g>
        <path class="cls-3" d="M84,27.1c-1-1-1.7-1.6-2.7-2-1-.3-2.4-.4-4.9-.5-1.6,0-3.1-.4-4.5-1s-2.7-1.5-3.8-2.6c-2.4-2.4-3.6-5.5-3.6-8.7s1.2-6.3,3.6-8.7,5.5-3.6,8.7-3.6,6.3,1.2,8.7,3.6c1.1,1.1,2,2.4,2.6,3.8.6,1.4.9,3,1,4.5,0,2.4.2,3.8.5,4.8s.9,1.6,1.9,2.6c.3.3.5.5.8.8,1.4,1.4,2.9,2.8,4.3,4.3,1.2,1.2,1.9,1.9,2.9,2.3s2.4.5,5,.5,3.1.4,4.5,1,2.7,1.5,3.8,2.6c2.4,2.4,3.6,5.5,3.6,8.7s-1.2,6.3-3.6,8.7c-2.4,2.4-5.5,3.6-8.7,3.6h0c-.7,0-1.5,0-2.2-.2h0c-2.1-.5-7,0-13.2,1.2-5.2,1.1-11.3,2.8-17.2,5.2-.5.2-1.3.5-2.1.8-8,3.1-25.2,9.8-25.5,17.7v1.4c0,1.2.2,2.4.7,3.5.8,2,2.5,3.9,5.9,5.6,4.3,2.2,9.6,4.3,14.2,5.6,3.7,1,7,1.5,9,.9,1.5-.4,3.1-.5,4.6-.4,1.5.2,3,.6,4.4,1.4,3,1.6,5,4.3,6,7.3.9,3,.7,6.4-.9,9.3-1.6,3-4.3,5-7.3,6-3,.9-6.4.7-9.3-.9-1.4-.8-2.6-1.8-3.6-2.9-1-1.2-1.8-2.6-2.3-4.1-.9-2.6-3-5.5-5.9-8.3-3.3-3.3-7.6-6.5-11.7-9-.9-.6-1.9-1-2.9-1.3s-2.1-.5-3.2-.5c-2.1,0-4,.3-5.9.9-1,.3-2,.7-2.9,1.2-3.2,1.8-6.9,2.9-10.9,2.9-6,0-11.5-2.4-15.5-6.4s-6.4-9.4-6.4-15.5,2.4-11.5,6.4-15.5,9.4-6.4,15.5-6.4,10.1,1.9,13.9,5c.8.6,1.6,1.1,2.5,1.5s1.9.7,3,.9c6.6,1.2,16.3-.7,25.5-4.1,9.7-3.6,18.7-8.8,22.9-13.8.7-.8,1.3-1.9,1.6-3,.3-1,.4-2.1.2-3.1-.3-.8-.8-1.4-1.6-2.3-.8-.8-1.6-1.6-2.4-2.4-1.1-1.1-2.2-2.2-3.2-3.3h0l-.3.4h0Z"/>
        <path class="cls-2" d="M170.3,54.91l-10.4-22.01c-1-2.1-3.2-3.5-5.5-3.5s-4.5,1.4-5.5,3.5l-24.9,52.3c-1.4,3,0,6.7,3,8.2,3,1.4,6.6,0,8.1-3l5.8-12.2h31c2.1,0,4-1.1,5.1-2.8,2.1-3.1-9.5-5.8-10.6-7.9h-.1l4-12.59ZM145.7,67.8l8.6-18.1,8.7,18.1h-17.3Z"/>
        <path class="cls-2" d="M185.3,87.9c0,3.3-2.8,6.1-6.2,6.1s-6.1-2.8-6.1-6.1,2.8-6.2,6.1-6.2,6.2,2.8,6.2,6.2Z"/>
        <path class="cls-2" d="M211.9,87.9c0,3.3-2.7,6.1-6.1,6.1s-6.1-2.8-6.1-6.1v-46.2h-13.4c-3.3,0-6.1-2.8-6.1-6.2s2.8-6.1,6.1-6.1h19.5c3.7,0,6.1,2.8,6.1,6.1v52.4h0Z"/>
        <path class="cls-1" d="M231.3,35.5c0,3.4-2.8,6.2-6.1,6.2s-6.2-2.8-6.2-6.2,2.8-6.1,6.2-6.1,6.1,2.8,6.1,6.1Z"/>
        <path class="cls-2" d="M231.3,35.5c0,3.4-2.8,6.2-6.1,6.2s-6.2-2.8-6.2-6.2,2.8-6.1,6.2-6.1,6.1,2.8,6.1,6.1Z"/>
        <path class="cls-2" d="M267.7,95.7c-2.78-.04-14.25-.53-23.59-9.54-9.84-9.49-10.34-21.51-10.41-24.56-.1-4.06.44-10.95,4.44-17.63,1.59-2.66,4.35-7.12,9.49-8.68,1.31-.39,5.38-1.63,7.77.71,1.54,1.51,1.98,4.13,1.21,6.03-.5,1.24-1.38,1.81-2.31,2.57,0,0-4.33,3.15-6.63,8.6-1.1,2.59-1.67,5.42-1.67,8.4,0,12,9.7,21.8,21.7,21.8,13.59,0,21.75-12.75,21.8-21.8.01-2.39.04-7.47-3.18-11.2-.86-1-2.5-2.54-5.22-5.8-1.53-1.83-2.34-2.94-2.44-4.51-.09-1.46.45-3.03,1.44-4.09,2.74-2.91,8.34-1.31,8.6-1.1,8.3,6.6,13.1,16.1,13.1,26.7,0,12.51-7.25,21.06-8.35,22.32-9.82,11.32-23.56,11.74-25.75,11.78Z"/>
        <path class="cls-1" d="M267.7,27.8c3.4,0,6.2,2.8,6.2,6.2s-2.8,6.1-6.2,6.1-6.1-2.8-6.1-6.1,2.8-6.2,6.1-6.2Z"/>
        <path class="cls-3" d="M267.7,27.8c3.4,0,6.2,2.8,6.2,6.2s-2.8,6.1-6.2,6.1-6.1-2.8-6.1-6.1,2.8-6.2,6.1-6.2Z"/>
        <path class="cls-2" d="M372.7,56.1l-18,34.8c-1.1,1.9-3.1,3.1-5.4,3.1s-4.2-1.2-5.4-3.2l-17.2-34.1v31.3c0,3.3-2.8,6.1-6.2,6.1s-6.1-2.8-6.1-6.1v-52.4c0-2.8,1.8-5.2,4.6-5.9,2.7-.6,5.5.6,6.8,3l23.4,44.5,24.1-44.6c1.3-2.4,4.2-3.6,6.8-3,2.7.7,4.6,3.1,4.6,5.9v52.4c0,3.3-2.8,6.1-6.2,6.1s-6.1-2.8-6.1-6.1v-31.8h.3,0Z"/>
        <path class="cls-2" d="M403.1,87.9v-54.1c0-3.3,2.8-6.1,6.1-6.1s6.2,2.8,6.2,6.1v54.1c0,3.3-2.8,6.1-6.2,6.1s-6.1-2.8-6.1-6.1Z"/>
        <path class="cls-2" d="M451.5,80.8c3.5,2,7.2,3,11.7,3.5,4.4.5,6.3,2.7,6.3,5.5s-2,5.8-7.8,5.8-9.4-1-14.1-3.1c-7.78-3.48-12.4-9.7-12.86-10.31-1.97-2.59-6.99-9.97-6.94-20.49.07-13.5,8.52-22.21,9.93-23.61,8.34-8.26,18.27-9.31,21.89-9.7.42-.04,8.58-.82,17.33,2.53,3.48,1.33,5.91,2.88,7.22,5.44.38.74,1.43,2.79.73,5.15-.1.33-.79,2.54-2.73,3.42-2.1.94-4.5-.08-6.17-1.03-3.7-2.1-8.4-4-14.2-4-6.5,0-11.63,3.31-12.76,4.14-8.06,5.9-8.83,15.43-8.94,17.56-.13,2.55-.31,7.54,2.97,12.42,2.83,4.22,6.72,6.08,8.43,6.78Z"/>
        <path class="cls-1" d="M474.5,83.4c0-3.3,2.8-6.1,6.1-6.1s6.2,2.8,6.2,6.1-2.8,6.2-6.2,6.2-6.1-2.8-6.1-6.2Z"/>
        <path class="cls-2" d="M474.5,83.4c0-3.3,2.8-6.1,6.1-6.1s6.2,2.8,6.2,6.1-2.8,6.2-6.2,6.2-6.1-2.8-6.1-6.2Z"/>
      </g>
      <polygon class="cls-2" points="167.76 49.85 184.76 85.45 173.76 90.95 154.26 49.85 167.76 49.85"/>
      <rect class="cls-2" x="201.4" y="29.4" width="23.8" height="12.3"/>
      <path class="cls-2" d="M460.5,95.6c2.7,0,8.2,0,13.9-1.9,3.3-1.1,5.6-2.4,7.3-3.5,1.6-.9,2.3-1.4,2.9-2.2,2.2-3.1,1.3-8.8-1.7-10.4-.8-.4-1.6-.4-2.3-.4-4.2,0-5.4,3.5-10.6,5.6-2.9,1.2-5.6,1.3-7.1,1.4-3.2,0-5.9-.5-7.6-1"/>
    </g>
  </g>
</svg>