<svg width="360" height="755" viewBox="0 0 360 755" fill="none" xmlns="http://www.w3.org/2000/svg">
<g clip-path="url(#clip0_528_862)">
<rect width="360" height="755.001" rx="40" fill="#A199FF"/>
<rect x="113.54" y="27.8887" width="132.923" height="37.3353" rx="18.6676" fill="black"/>
<g opacity="0.8" filter="url(#filter0_f_528_862)">
<rect x="160.999" y="232" width="65" height="65" rx="15" fill="white"/>
<path fill-rule="evenodd" clip-rule="evenodd" d="M192.999 251.333C189.639 251.333 186.418 252.667 184.042 255.043C181.667 257.418 180.332 260.64 180.332 263.999C180.332 267.359 181.667 270.581 184.042 272.956C186.418 275.331 189.639 276.666 192.999 276.666C193.474 276.666 193.791 276.349 193.791 275.874C193.791 275.689 193.736 275.558 193.691 275.449C193.659 275.372 193.632 275.307 193.632 275.241C192.999 274.449 192.682 273.658 192.682 272.708C192.682 270.491 194.424 268.749 196.641 268.749H199.332C201.012 268.749 202.623 268.082 203.811 266.894C204.998 265.707 205.666 264.096 205.666 262.416C205.666 256.241 199.966 251.333 192.999 251.333ZM186.666 263.208C186.666 261.941 185.557 260.833 184.291 260.833C183.024 260.833 181.916 261.941 181.916 263.208C181.916 264.474 183.024 265.583 184.291 265.583C185.557 265.583 186.666 264.474 186.666 263.208ZM191.416 256.874C191.416 255.608 190.307 254.499 189.041 254.499C187.774 254.499 186.666 255.608 186.666 256.874C186.666 258.141 187.774 259.249 189.041 259.249C190.307 259.249 191.416 258.141 191.416 256.874ZM199.332 256.874C199.332 255.608 198.224 254.499 196.957 254.499C195.691 254.499 194.582 255.608 194.582 256.874C194.582 258.141 195.691 259.249 196.957 259.249C198.224 259.249 199.332 258.141 199.332 256.874ZM204.082 263.208C204.082 261.941 202.974 260.833 201.707 260.833C200.441 260.833 199.332 261.941 199.332 263.208C199.332 264.474 200.441 265.583 201.707 265.583C202.974 265.583 204.082 264.474 204.082 263.208Z" fill="#5DA0FF"/>
<path fill-rule="evenodd" clip-rule="evenodd" d="M192.999 279.833C190.92 279.833 188.861 279.423 186.94 278.627C185.019 277.832 183.273 276.665 181.803 275.195C178.834 272.226 177.166 268.199 177.166 263.999C177.166 259.8 178.834 255.773 181.803 252.803C184.772 249.834 188.8 248.166 192.999 248.166C201.707 248.166 208.832 254.499 208.832 262.416C208.832 264.936 207.831 267.352 206.05 269.134C204.268 270.915 201.852 271.916 199.332 271.916H196.482C196.007 271.916 195.691 272.233 195.691 272.708C195.691 272.787 195.73 272.866 195.77 272.945C195.809 273.024 195.849 273.104 195.849 273.183C196.482 273.974 196.799 274.924 196.799 275.874C196.957 278.091 195.216 279.833 192.999 279.833ZM192.999 251.333C189.639 251.333 186.418 252.667 184.042 255.043C181.667 257.418 180.332 260.64 180.332 263.999C180.332 267.359 181.667 270.581 184.042 272.956C186.418 275.331 189.639 276.666 192.999 276.666C193.474 276.666 193.791 276.349 193.791 275.874C193.791 275.689 193.736 275.558 193.691 275.449C193.659 275.372 193.632 275.307 193.632 275.241C192.999 274.449 192.682 273.658 192.682 272.708C192.682 270.491 194.424 268.749 196.641 268.749H199.332C201.012 268.749 202.623 268.082 203.811 266.894C204.998 265.707 205.666 264.096 205.666 262.416C205.666 256.241 199.966 251.333 192.999 251.333Z" fill="#5DA0FF"/>
<path d="M168.549 322V315H171.279C171.892 315 172.416 315.097 172.849 315.29C173.282 315.483 173.616 315.763 173.849 316.13C174.082 316.497 174.199 316.933 174.199 317.44C174.199 317.947 174.082 318.383 173.849 318.75C173.616 319.11 173.282 319.39 172.849 319.59C172.416 319.783 171.892 319.88 171.279 319.88H169.099L169.549 319.41V322H168.549ZM169.549 319.51L169.099 319.01H171.249C171.889 319.01 172.372 318.873 172.699 318.6C173.032 318.327 173.199 317.94 173.199 317.44C173.199 316.94 173.032 316.553 172.699 316.28C172.372 316.007 171.889 315.87 171.249 315.87H169.099L169.549 315.37V319.51ZM178.769 322V320.88L178.719 320.67V318.76C178.719 318.353 178.599 318.04 178.359 317.82C178.126 317.593 177.773 317.48 177.299 317.48C176.986 317.48 176.679 317.533 176.379 317.64C176.079 317.74 175.826 317.877 175.619 318.05L175.219 317.33C175.493 317.11 175.819 316.943 176.199 316.83C176.586 316.71 176.989 316.65 177.409 316.65C178.136 316.65 178.696 316.827 179.089 317.18C179.483 317.533 179.679 318.073 179.679 318.8V322H178.769ZM177.029 322.06C176.636 322.06 176.289 321.993 175.989 321.86C175.696 321.727 175.469 321.543 175.309 321.31C175.149 321.07 175.069 320.8 175.069 320.5C175.069 320.213 175.136 319.953 175.269 319.72C175.409 319.487 175.633 319.3 175.939 319.16C176.253 319.02 176.673 318.95 177.199 318.95H178.879V319.64H177.239C176.759 319.64 176.436 319.72 176.269 319.88C176.103 320.04 176.019 320.233 176.019 320.46C176.019 320.72 176.123 320.93 176.329 321.09C176.536 321.243 176.823 321.32 177.189 321.32C177.549 321.32 177.863 321.24 178.129 321.08C178.403 320.92 178.599 320.687 178.719 320.38L178.909 321.04C178.783 321.353 178.559 321.603 178.239 321.79C177.919 321.97 177.516 322.06 177.029 322.06ZM181.456 322V316.7H182.416V322H181.456ZM181.936 315.68C181.749 315.68 181.593 315.62 181.466 315.5C181.346 315.38 181.286 315.233 181.286 315.06C181.286 314.88 181.346 314.73 181.466 314.61C181.593 314.49 181.749 314.43 181.936 314.43C182.123 314.43 182.276 314.49 182.396 314.61C182.523 314.723 182.586 314.867 182.586 315.04C182.586 315.22 182.526 315.373 182.406 315.5C182.286 315.62 182.129 315.68 181.936 315.68ZM187.079 316.65C187.512 316.65 187.892 316.733 188.219 316.9C188.552 317.067 188.812 317.32 188.999 317.66C189.186 318 189.279 318.43 189.279 318.95V322H188.319V319.06C188.319 318.547 188.192 318.16 187.939 317.9C187.692 317.64 187.342 317.51 186.889 317.51C186.549 317.51 186.252 317.577 185.999 317.71C185.746 317.843 185.549 318.04 185.409 318.3C185.276 318.56 185.209 318.883 185.209 319.27V322H184.249V316.7H185.169V318.13L185.019 317.75C185.192 317.403 185.459 317.133 185.819 316.94C186.179 316.747 186.599 316.65 187.079 316.65ZM192.876 322.06C192.342 322.06 191.929 321.917 191.636 321.63C191.342 321.343 191.196 320.933 191.196 320.4V315.54H192.156V320.36C192.156 320.647 192.226 320.867 192.366 321.02C192.512 321.173 192.719 321.25 192.986 321.25C193.286 321.25 193.536 321.167 193.736 321L194.036 321.69C193.889 321.817 193.712 321.91 193.506 321.97C193.306 322.03 193.096 322.06 192.876 322.06ZM190.296 317.49V316.7H193.676V317.49H190.296ZM198.022 322V315H201.162C201.968 315 202.588 315.163 203.022 315.49C203.455 315.81 203.672 316.25 203.672 316.81C203.672 317.19 203.585 317.51 203.412 317.77C203.245 318.03 203.018 318.23 202.732 318.37C202.445 318.51 202.135 318.58 201.802 318.58L201.982 318.28C202.382 318.28 202.735 318.35 203.042 318.49C203.348 318.63 203.592 318.837 203.772 319.11C203.952 319.377 204.042 319.71 204.042 320.11C204.042 320.71 203.815 321.177 203.362 321.51C202.915 321.837 202.248 322 201.362 322H198.022ZM199.022 321.19H201.322C201.875 321.19 202.298 321.097 202.592 320.91C202.885 320.723 203.032 320.43 203.032 320.03C203.032 319.623 202.885 319.327 202.592 319.14C202.298 318.953 201.875 318.86 201.322 318.86H198.932V318.05H201.072C201.578 318.05 201.972 317.957 202.252 317.77C202.532 317.583 202.672 317.303 202.672 316.93C202.672 316.557 202.532 316.277 202.252 316.09C201.972 315.903 201.578 315.81 201.072 315.81H199.022V321.19ZM207.72 322.06C207.187 322.06 206.713 321.943 206.3 321.71C205.887 321.477 205.56 321.157 205.32 320.75C205.08 320.337 204.96 319.87 204.96 319.35C204.96 318.823 205.08 318.357 205.32 317.95C205.56 317.543 205.887 317.227 206.3 317C206.713 316.767 207.187 316.65 207.72 316.65C208.247 316.65 208.717 316.767 209.13 317C209.55 317.227 209.877 317.543 210.11 317.95C210.35 318.35 210.47 318.817 210.47 319.35C210.47 319.877 210.35 320.343 210.11 320.75C209.877 321.157 209.55 321.477 209.13 321.71C208.717 321.943 208.247 322.06 207.72 322.06ZM207.72 321.22C208.06 321.22 208.363 321.143 208.63 320.99C208.903 320.837 209.117 320.62 209.27 320.34C209.423 320.053 209.5 319.723 209.5 319.35C209.5 318.97 209.423 318.643 209.27 318.37C209.117 318.09 208.903 317.873 208.63 317.72C208.363 317.567 208.06 317.49 207.72 317.49C207.38 317.49 207.077 317.567 206.81 317.72C206.543 317.873 206.33 318.09 206.17 318.37C206.01 318.643 205.93 318.97 205.93 319.35C205.93 319.723 206.01 320.053 206.17 320.34C206.33 320.62 206.543 320.837 206.81 320.99C207.077 321.143 207.38 321.22 207.72 321.22ZM213.618 322.06C213.084 322.06 212.671 321.917 212.378 321.63C212.084 321.343 211.938 320.933 211.938 320.4V315.54H212.898V320.36C212.898 320.647 212.968 320.867 213.108 321.02C213.254 321.173 213.461 321.25 213.728 321.25C214.028 321.25 214.278 321.167 214.478 321L214.778 321.69C214.631 321.817 214.454 321.91 214.248 321.97C214.048 322.03 213.838 322.06 213.618 322.06ZM211.038 317.49V316.7H214.418V317.49H211.038Z" fill="white"/>
</g>
<g opacity="0.8" filter="url(#filter1_f_528_862)">
<rect x="119.999" y="479" width="69" height="69" rx="15" fill="#3875C4"/>
<path fill-rule="evenodd" clip-rule="evenodd" d="M167.315 509.613C167.223 509.608 167.13 509.607 167.038 509.608H163.182C160.028 509.608 157.327 512.111 157.327 515.376C157.327 518.641 160.028 521.144 163.184 521.144H167.036C167.133 521.145 167.226 521.143 167.313 521.138C167.964 521.095 168.577 520.818 169.039 520.358C169.501 519.897 169.78 519.285 169.824 518.634C169.831 518.541 169.831 518.441 169.831 518.349V512.402C169.831 512.311 169.831 512.211 169.824 512.117C169.78 511.467 169.501 510.855 169.04 510.394C168.578 509.934 167.965 509.657 167.315 509.614M162.845 516.915C163.657 516.915 164.318 516.228 164.318 515.377C164.318 514.527 163.657 513.84 162.845 513.84C162.033 513.84 161.374 514.527 161.374 515.377C161.374 516.228 162.031 516.915 162.845 516.915Z" fill="white"/>
<path fill-rule="evenodd" clip-rule="evenodd" d="M167.036 523.449C167.089 523.447 167.142 523.458 167.19 523.48C167.238 523.503 167.28 523.536 167.313 523.578C167.346 523.619 167.369 523.668 167.38 523.72C167.39 523.772 167.389 523.826 167.375 523.877C167.068 524.973 166.582 525.907 165.801 526.692C164.659 527.843 163.211 528.355 161.422 528.597C159.683 528.833 157.463 528.833 154.658 528.833H151.432C148.628 528.833 146.407 528.833 144.668 528.597C142.879 528.355 141.43 527.843 140.289 526.692C139.147 525.544 138.641 524.083 138.4 522.281C138.166 520.527 138.166 518.288 138.166 515.461V515.287C138.166 512.461 138.166 510.221 138.4 508.469C138.641 506.666 139.147 505.209 140.287 504.055C141.429 502.906 142.878 502.393 144.667 502.152C146.407 501.916 148.628 501.916 151.432 501.916H154.658C157.462 501.916 159.683 501.916 161.422 502.152C163.211 502.394 164.659 502.906 165.801 504.055C166.582 504.842 167.068 505.776 167.375 506.873C167.388 506.925 167.39 506.978 167.379 507.03C167.368 507.082 167.346 507.13 167.313 507.172C167.28 507.213 167.238 507.246 167.189 507.268C167.141 507.291 167.089 507.301 167.036 507.299H163.184C158.855 507.299 155.041 510.746 155.041 515.374C155.041 520.002 158.857 523.449 163.185 523.449H167.036ZM143.888 508.069C143.737 508.069 143.588 508.1 143.449 508.158C143.31 508.216 143.184 508.301 143.077 508.408C142.971 508.515 142.887 508.642 142.83 508.782C142.773 508.921 142.744 509.071 142.745 509.222C142.745 509.86 143.256 510.376 143.888 510.376H149.993C150.626 510.376 151.138 509.86 151.138 509.222C151.139 508.917 151.019 508.624 150.804 508.408C150.589 508.192 150.298 508.07 149.993 508.069H143.888Z" fill="white"/>
<path d="M147.312 500.371L150.413 498.086C151.222 497.489 152.201 497.166 153.207 497.166C154.213 497.166 155.193 497.489 156.002 498.086L159.119 500.384C157.815 500.333 156.358 500.333 154.764 500.333H151.328C149.868 500.333 148.527 500.333 147.312 500.371Z" fill="white"/>
<path d="M135.439 571V564.87H133.039V564H138.829V564.87H136.429V571H135.439ZM141.591 571.06C141.025 571.06 140.525 570.943 140.091 570.71C139.665 570.477 139.331 570.157 139.091 569.75C138.858 569.343 138.741 568.877 138.741 568.35C138.741 567.823 138.855 567.357 139.081 566.95C139.315 566.543 139.631 566.227 140.031 566C140.438 565.767 140.895 565.65 141.401 565.65C141.915 565.65 142.368 565.763 142.761 565.99C143.155 566.217 143.461 566.537 143.681 566.95C143.908 567.357 144.021 567.833 144.021 568.38C144.021 568.42 144.018 568.467 144.011 568.52C144.011 568.573 144.008 568.623 144.001 568.67H139.491V567.98H143.501L143.111 568.22C143.118 567.88 143.048 567.577 142.901 567.31C142.755 567.043 142.551 566.837 142.291 566.69C142.038 566.537 141.741 566.46 141.401 566.46C141.068 566.46 140.771 566.537 140.511 566.69C140.251 566.837 140.048 567.047 139.901 567.32C139.755 567.587 139.681 567.893 139.681 568.24V568.4C139.681 568.753 139.761 569.07 139.921 569.35C140.088 569.623 140.318 569.837 140.611 569.99C140.905 570.143 141.241 570.22 141.621 570.22C141.935 570.22 142.218 570.167 142.471 570.06C142.731 569.953 142.958 569.793 143.151 569.58L143.681 570.2C143.441 570.48 143.141 570.693 142.781 570.84C142.428 570.987 142.031 571.06 141.591 571.06ZM145.354 571V563.58H146.314V571H145.354ZM150.507 571.06C149.941 571.06 149.441 570.943 149.007 570.71C148.581 570.477 148.247 570.157 148.007 569.75C147.774 569.343 147.657 568.877 147.657 568.35C147.657 567.823 147.771 567.357 147.997 566.95C148.231 566.543 148.547 566.227 148.947 566C149.354 565.767 149.811 565.65 150.317 565.65C150.831 565.65 151.284 565.763 151.677 565.99C152.071 566.217 152.377 566.537 152.597 566.95C152.824 567.357 152.937 567.833 152.937 568.38C152.937 568.42 152.934 568.467 152.927 568.52C152.927 568.573 152.924 568.623 152.917 568.67H148.407V567.98H152.417L152.027 568.22C152.034 567.88 151.964 567.577 151.817 567.31C151.671 567.043 151.467 566.837 151.207 566.69C150.954 566.537 150.657 566.46 150.317 566.46C149.984 566.46 149.687 566.537 149.427 566.69C149.167 566.837 148.964 567.047 148.817 567.32C148.671 567.587 148.597 567.893 148.597 568.24V568.4C148.597 568.753 148.677 569.07 148.837 569.35C149.004 569.623 149.234 569.837 149.527 569.99C149.821 570.143 150.157 570.22 150.537 570.22C150.851 570.22 151.134 570.167 151.387 570.06C151.647 569.953 151.874 569.793 152.067 569.58L152.597 570.2C152.357 570.48 152.057 570.693 151.697 570.84C151.344 570.987 150.947 571.06 150.507 571.06ZM157.57 571.08C157.037 571.08 156.54 570.99 156.08 570.81C155.627 570.63 155.234 570.38 154.9 570.06C154.567 569.733 154.307 569.353 154.12 568.92C153.934 568.487 153.84 568.013 153.84 567.5C153.84 566.987 153.934 566.513 154.12 566.08C154.307 565.647 154.567 565.27 154.9 564.95C155.234 564.623 155.627 564.37 156.08 564.19C156.534 564.01 157.03 563.92 157.57 563.92C158.104 563.92 158.594 564.01 159.04 564.19C159.494 564.363 159.887 564.613 160.22 564.94C160.56 565.26 160.82 565.637 161 566.07C161.187 566.503 161.28 566.98 161.28 567.5C161.28 568.02 161.187 568.497 161 568.93C160.82 569.363 160.56 569.743 160.22 570.07C159.887 570.39 159.494 570.64 159.04 570.82C158.594 570.993 158.104 571.08 157.57 571.08ZM157.57 570.19C157.957 570.19 158.314 570.123 158.64 569.99C158.974 569.857 159.26 569.67 159.5 569.43C159.747 569.183 159.937 568.897 160.07 568.57C160.21 568.243 160.28 567.887 160.28 567.5C160.28 567.113 160.21 566.757 160.07 566.43C159.937 566.103 159.747 565.82 159.5 565.58C159.26 565.333 158.974 565.143 158.64 565.01C158.314 564.877 157.957 564.81 157.57 564.81C157.177 564.81 156.814 564.877 156.48 565.01C156.154 565.143 155.867 565.333 155.62 565.58C155.374 565.82 155.18 566.103 155.04 566.43C154.907 566.757 154.84 567.113 154.84 567.5C154.84 567.887 154.907 568.243 155.04 568.57C155.18 568.897 155.374 569.183 155.62 569.43C155.867 569.67 156.154 569.857 156.48 569.99C156.814 570.123 157.177 570.19 157.57 570.19ZM164.101 571V564.87H161.701V564H167.491V564.87H165.091V571H164.101ZM168.58 571V564H171.31C171.924 564 172.447 564.097 172.88 564.29C173.314 564.483 173.647 564.763 173.88 565.13C174.114 565.497 174.23 565.933 174.23 566.44C174.23 566.947 174.114 567.383 173.88 567.75C173.647 568.11 173.314 568.39 172.88 568.59C172.447 568.783 171.924 568.88 171.31 568.88H169.13L169.58 568.41V571H168.58ZM169.58 568.51L169.13 568.01H171.28C171.92 568.01 172.404 567.873 172.73 567.6C173.064 567.327 173.23 566.94 173.23 566.44C173.23 565.94 173.064 565.553 172.73 565.28C172.404 565.007 171.92 564.87 171.28 564.87H169.13L169.58 564.37V568.51Z" fill="white"/>
</g>
<g filter="url(#filter2_d_528_862)">
<circle cx="234.5" cy="428" r="47" fill="#4641AD"/>
</g>
<path d="M215 416.625C215 414.47 215.856 412.403 217.38 410.88C218.903 409.356 220.97 408.5 223.125 408.5H245.875C248.03 408.5 250.097 409.356 251.62 410.88C253.144 412.403 254 414.47 254 416.625V439.375C254 441.53 253.144 443.597 251.62 445.12C250.097 446.644 248.03 447.5 245.875 447.5H223.125C220.97 447.5 218.903 446.644 217.38 445.12C215.856 443.597 215 441.53 215 439.375V416.625ZM223.125 411.75C221.832 411.75 220.592 412.264 219.678 413.178C218.764 414.092 218.25 415.332 218.25 416.625V439.375C218.25 440.668 218.764 441.908 219.678 442.822C220.592 443.736 221.832 444.25 223.125 444.25H245.875C247.168 444.25 248.408 443.736 249.322 442.822C250.236 441.908 250.75 440.668 250.75 439.375V416.625C250.75 415.332 250.236 414.092 249.322 413.178C248.408 412.264 247.168 411.75 245.875 411.75H223.125ZM236.125 436.125C236.125 435.694 236.296 435.281 236.601 434.976C236.906 434.671 237.319 434.5 237.75 434.5H245.062C245.493 434.5 245.907 434.671 246.212 434.976C246.516 435.281 246.688 435.694 246.688 436.125C246.688 436.556 246.516 436.969 246.212 437.274C245.907 437.579 245.493 437.75 245.062 437.75H237.75C237.319 437.75 236.906 437.579 236.601 437.274C236.296 436.969 236.125 436.556 236.125 436.125ZM237.75 421.5C237.319 421.5 236.906 421.671 236.601 421.976C236.296 422.281 236.125 422.694 236.125 423.125C236.125 423.556 236.296 423.969 236.601 424.274C236.906 424.579 237.319 424.75 237.75 424.75H245.062C245.493 424.75 245.907 424.579 246.212 424.274C246.516 423.969 246.688 423.556 246.688 423.125C246.688 422.694 246.516 422.281 246.212 421.976C245.907 421.671 245.493 421.5 245.062 421.5H237.75ZM232.401 431.724C232.552 431.875 232.672 432.055 232.754 432.252C232.836 432.45 232.878 432.661 232.878 432.875C232.878 433.089 232.836 433.3 232.754 433.498C232.672 433.695 232.552 433.875 232.401 434.026L227.526 438.901C227.375 439.052 227.195 439.172 226.998 439.254C226.8 439.336 226.589 439.378 226.375 439.378C226.161 439.378 225.95 439.336 225.752 439.254C225.555 439.172 225.375 439.052 225.224 438.901L222.793 436.469C222.642 436.318 222.523 436.139 222.441 435.942C222.359 435.744 222.317 435.533 222.317 435.319C222.317 435.105 222.359 434.894 222.441 434.696C222.523 434.499 222.642 434.32 222.793 434.168C223.099 433.863 223.512 433.692 223.944 433.692C224.158 433.692 224.369 433.734 224.567 433.816C224.764 433.898 224.943 434.017 225.094 434.168L226.375 435.452L230.099 431.724C230.25 431.573 230.43 431.453 230.627 431.371C230.825 431.289 231.036 431.247 231.25 431.247C231.464 431.247 231.675 431.289 231.873 431.371C232.07 431.453 232.25 431.573 232.401 431.724ZM232.401 421.026C232.552 420.874 232.671 420.695 232.753 420.498C232.835 420.3 232.877 420.089 232.877 419.875C232.877 419.661 232.835 419.45 232.753 419.252C232.671 419.055 232.552 418.876 232.401 418.724C232.249 418.573 232.07 418.454 231.873 418.372C231.675 418.29 231.464 418.248 231.25 418.248C231.036 418.248 230.825 418.29 230.627 418.372C230.43 418.454 230.251 418.573 230.099 418.724L226.375 422.452L225.094 421.168C224.789 420.863 224.376 420.692 223.944 420.692C223.512 420.692 223.099 420.863 222.794 421.169C222.488 421.474 222.317 421.887 222.317 422.319C222.317 422.751 222.488 423.164 222.793 423.469L225.224 425.901C225.375 426.052 225.555 426.172 225.752 426.254C225.95 426.336 226.161 426.378 226.375 426.378C226.589 426.378 226.8 426.336 226.998 426.254C227.195 426.172 227.375 426.052 227.526 425.901L232.401 421.026Z" fill="white"/>
<path d="M173.025 499V489.2H174.173L178.569 496.606H177.953L182.293 489.2H183.441L183.455 499H182.111L182.097 491.314H182.419L178.555 497.81H177.911L174.019 491.314H174.369V499H173.025ZM189.585 499.084C188.792 499.084 188.092 498.921 187.485 498.594C186.888 498.267 186.421 497.819 186.085 497.25C185.759 496.681 185.595 496.027 185.595 495.29C185.595 494.553 185.754 493.899 186.071 493.33C186.398 492.761 186.841 492.317 187.401 492C187.971 491.673 188.61 491.51 189.319 491.51C190.038 491.51 190.673 491.669 191.223 491.986C191.774 492.303 192.203 492.751 192.511 493.33C192.829 493.899 192.987 494.567 192.987 495.332C192.987 495.388 192.983 495.453 192.973 495.528C192.973 495.603 192.969 495.673 192.959 495.738H186.645V494.772H192.259L191.713 495.108C191.723 494.632 191.625 494.207 191.419 493.834C191.214 493.461 190.929 493.171 190.565 492.966C190.211 492.751 189.795 492.644 189.319 492.644C188.853 492.644 188.437 492.751 188.073 492.966C187.709 493.171 187.425 493.465 187.219 493.848C187.014 494.221 186.911 494.651 186.911 495.136V495.36C186.911 495.855 187.023 496.298 187.247 496.69C187.481 497.073 187.803 497.371 188.213 497.586C188.624 497.801 189.095 497.908 189.627 497.908C190.066 497.908 190.463 497.833 190.817 497.684C191.181 497.535 191.499 497.311 191.769 497.012L192.511 497.88C192.175 498.272 191.755 498.571 191.251 498.776C190.757 498.981 190.201 499.084 189.585 499.084ZM195.073 499V491.58H196.417V494.73H200.645V491.58H201.989V499H200.645V495.892H196.417V499H195.073ZM207.906 499.084C207.112 499.084 206.412 498.921 205.806 498.594C205.208 498.267 204.742 497.819 204.406 497.25C204.079 496.681 203.916 496.027 203.916 495.29C203.916 494.553 204.074 493.899 204.392 493.33C204.718 492.761 205.162 492.317 205.722 492C206.291 491.673 206.93 491.51 207.64 491.51C208.358 491.51 208.993 491.669 209.544 491.986C210.094 492.303 210.524 492.751 210.832 493.33C211.149 493.899 211.308 494.567 211.308 495.332C211.308 495.388 211.303 495.453 211.294 495.528C211.294 495.603 211.289 495.673 211.28 495.738H204.966V494.772H210.58L210.034 495.108C210.043 494.632 209.945 494.207 209.74 493.834C209.534 493.461 209.25 493.171 208.886 492.966C208.531 492.751 208.116 492.644 207.64 492.644C207.173 492.644 206.758 492.751 206.394 492.966C206.03 493.171 205.745 493.465 205.54 493.848C205.334 494.221 205.232 494.651 205.232 495.136V495.36C205.232 495.855 205.344 496.298 205.568 496.69C205.801 497.073 206.123 497.371 206.534 497.586C206.944 497.801 207.416 497.908 207.948 497.908C208.386 497.908 208.783 497.833 209.138 497.684C209.502 497.535 209.819 497.311 210.09 497.012L210.832 497.88C210.496 498.272 210.076 498.571 209.572 498.776C209.077 498.981 208.522 499.084 207.906 499.084ZM218.338 498.37V492.756H215.118L215.048 494.184C215.029 494.651 214.996 495.103 214.95 495.542C214.912 495.971 214.847 496.368 214.754 496.732C214.67 497.096 214.544 497.395 214.376 497.628C214.208 497.861 213.984 498.006 213.704 498.062L212.374 497.824C212.663 497.833 212.896 497.74 213.074 497.544C213.251 497.339 213.386 497.059 213.48 496.704C213.582 496.349 213.657 495.948 213.704 495.5C213.75 495.043 213.788 494.571 213.816 494.086L213.928 491.58H219.682V498.37H218.338ZM212.08 500.722V497.824H220.816V500.722H219.556V499H213.354V500.722H212.08ZM231.373 499L229.007 495.388L230.113 494.716L232.969 499H231.373ZM227.467 495.864V494.716H229.875V495.864H227.467ZM230.239 495.444L228.965 495.276L231.331 491.58H232.773L230.239 495.444ZM223.043 499H221.447L224.289 494.716L225.395 495.388L223.043 499ZM227.873 499H226.529V491.58H227.873V499ZM226.935 495.864H224.541V494.716H226.935V495.864ZM224.177 495.444L221.643 491.58H223.071L225.437 495.276L224.177 495.444ZM237.505 499.084C236.712 499.084 236.012 498.921 235.405 498.594C234.808 498.267 234.341 497.819 234.005 497.25C233.679 496.681 233.515 496.027 233.515 495.29C233.515 494.553 233.674 493.899 233.991 493.33C234.318 492.761 234.761 492.317 235.321 492C235.891 491.673 236.53 491.51 237.239 491.51C237.958 491.51 238.593 491.669 239.143 491.986C239.694 492.303 240.123 492.751 240.431 493.33C240.749 493.899 240.907 494.567 240.907 495.332C240.907 495.388 240.903 495.453 240.893 495.528C240.893 495.603 240.889 495.673 240.879 495.738H234.565V494.772H240.179L239.633 495.108C239.643 494.632 239.545 494.207 239.339 493.834C239.134 493.461 238.849 493.171 238.485 492.966C238.131 492.751 237.715 492.644 237.239 492.644C236.773 492.644 236.357 492.751 235.993 492.966C235.629 493.171 235.345 493.465 235.139 493.848C234.934 494.221 234.831 494.651 234.831 495.136V495.36C234.831 495.855 234.943 496.298 235.167 496.69C235.401 497.073 235.723 497.371 236.133 497.586C236.544 497.801 237.015 497.908 237.547 497.908C237.986 497.908 238.383 497.833 238.737 497.684C239.101 497.535 239.419 497.311 239.689 497.012L240.431 497.88C240.095 498.272 239.675 498.571 239.171 498.776C238.677 498.981 238.121 499.084 237.505 499.084ZM246.926 499.084C246.31 499.084 245.746 498.944 245.232 498.664C244.728 498.375 244.322 497.95 244.014 497.39C243.716 496.83 243.566 496.13 243.566 495.29C243.566 494.45 243.711 493.75 244 493.19C244.299 492.63 244.7 492.21 245.204 491.93C245.718 491.65 246.292 491.51 246.926 491.51C247.654 491.51 248.298 491.669 248.858 491.986C249.418 492.303 249.862 492.747 250.188 493.316C250.515 493.876 250.678 494.534 250.678 495.29C250.678 496.046 250.515 496.709 250.188 497.278C249.862 497.847 249.418 498.291 248.858 498.608C248.298 498.925 247.654 499.084 246.926 499.084ZM242.992 501.716V491.58H244.28V493.582L244.196 495.304L244.336 497.026V501.716H242.992ZM246.814 497.908C247.29 497.908 247.715 497.801 248.088 497.586C248.471 497.371 248.77 497.068 248.984 496.676C249.208 496.275 249.32 495.813 249.32 495.29C249.32 494.758 249.208 494.301 248.984 493.918C248.77 493.526 248.471 493.223 248.088 493.008C247.715 492.793 247.29 492.686 246.814 492.686C246.348 492.686 245.923 492.793 245.54 493.008C245.167 493.223 244.868 493.526 244.644 493.918C244.43 494.301 244.322 494.758 244.322 495.29C244.322 495.813 244.43 496.275 244.644 496.676C244.868 497.068 245.167 497.371 245.54 497.586C245.923 497.801 246.348 497.908 246.814 497.908ZM258.561 499.098C258.001 499.098 257.45 499.028 256.909 498.888C256.377 498.739 255.901 498.529 255.481 498.258L255.887 497.236C256.242 497.46 256.648 497.637 257.105 497.768C257.562 497.889 258.024 497.95 258.491 497.95C258.92 497.95 259.289 497.899 259.597 497.796C259.914 497.693 260.157 497.553 260.325 497.376C260.493 497.189 260.577 496.975 260.577 496.732C260.577 496.387 260.423 496.121 260.115 495.934C259.807 495.747 259.378 495.654 258.827 495.654H257.483V494.688H258.743C259.07 494.688 259.354 494.651 259.597 494.576C259.84 494.501 260.026 494.389 260.157 494.24C260.297 494.081 260.367 493.899 260.367 493.694C260.367 493.47 260.288 493.279 260.129 493.12C259.97 492.961 259.746 492.84 259.457 492.756C259.177 492.672 258.846 492.63 258.463 492.63C258.09 492.639 257.707 492.691 257.315 492.784C256.932 492.877 256.54 493.022 256.139 493.218L255.775 492.168C256.223 491.953 256.662 491.79 257.091 491.678C257.53 491.557 257.964 491.491 258.393 491.482C259.037 491.463 259.611 491.538 260.115 491.706C260.619 491.865 261.016 492.098 261.305 492.406C261.604 492.714 261.753 493.078 261.753 493.498C261.753 493.853 261.641 494.17 261.417 494.45C261.193 494.721 260.894 494.935 260.521 495.094C260.148 495.253 259.718 495.332 259.233 495.332L259.289 495.01C260.12 495.01 260.773 495.173 261.249 495.5C261.725 495.827 261.963 496.27 261.963 496.83C261.963 497.278 261.814 497.675 261.515 498.02C261.216 498.356 260.81 498.622 260.297 498.818C259.793 499.005 259.214 499.098 258.561 499.098ZM268.556 499V497.432L268.486 497.138V494.464C268.486 493.895 268.318 493.456 267.982 493.148C267.655 492.831 267.161 492.672 266.498 492.672C266.059 492.672 265.63 492.747 265.21 492.896C264.79 493.036 264.435 493.227 264.146 493.47L263.586 492.462C263.969 492.154 264.426 491.921 264.958 491.762C265.499 491.594 266.064 491.51 266.652 491.51C267.669 491.51 268.453 491.757 269.004 492.252C269.555 492.747 269.83 493.503 269.83 494.52V499H268.556ZM266.12 499.084C265.569 499.084 265.084 498.991 264.664 498.804C264.253 498.617 263.936 498.361 263.712 498.034C263.488 497.698 263.376 497.32 263.376 496.9C263.376 496.499 263.469 496.135 263.656 495.808C263.852 495.481 264.165 495.22 264.594 495.024C265.033 494.828 265.621 494.73 266.358 494.73H268.71V495.696H266.414C265.742 495.696 265.289 495.808 265.056 496.032C264.823 496.256 264.706 496.527 264.706 496.844C264.706 497.208 264.851 497.502 265.14 497.726C265.429 497.941 265.831 498.048 266.344 498.048C266.848 498.048 267.287 497.936 267.66 497.712C268.043 497.488 268.318 497.161 268.486 496.732L268.752 497.656C268.575 498.095 268.262 498.445 267.814 498.706C267.366 498.958 266.801 499.084 266.12 499.084ZM277.318 498.37V492.756H274.098L274.028 494.184C274.01 494.651 273.977 495.103 273.93 495.542C273.893 495.971 273.828 496.368 273.734 496.732C273.65 497.096 273.524 497.395 273.356 497.628C273.188 497.861 272.964 498.006 272.684 498.062L271.354 497.824C271.644 497.833 271.877 497.74 272.054 497.544C272.232 497.339 272.367 497.059 272.46 496.704C272.563 496.349 272.638 495.948 272.684 495.5C272.731 495.043 272.768 494.571 272.796 494.086L272.908 491.58H278.662V498.37H277.318ZM271.06 500.722V497.824H279.796V500.722H278.536V499H272.334V500.722H271.06ZM286.097 499V497.432L286.027 497.138V494.464C286.027 493.895 285.859 493.456 285.523 493.148C285.196 492.831 284.702 492.672 284.039 492.672C283.6 492.672 283.171 492.747 282.751 492.896C282.331 493.036 281.976 493.227 281.687 493.47L281.127 492.462C281.51 492.154 281.967 491.921 282.499 491.762C283.04 491.594 283.605 491.51 284.193 491.51C285.21 491.51 285.994 491.757 286.545 492.252C287.096 492.747 287.371 493.503 287.371 494.52V499H286.097ZM283.661 499.084C283.11 499.084 282.625 498.991 282.205 498.804C281.794 498.617 281.477 498.361 281.253 498.034C281.029 497.698 280.917 497.32 280.917 496.9C280.917 496.499 281.01 496.135 281.197 495.808C281.393 495.481 281.706 495.22 282.135 495.024C282.574 494.828 283.162 494.73 283.899 494.73H286.251V495.696H283.955C283.283 495.696 282.83 495.808 282.597 496.032C282.364 496.256 282.247 496.527 282.247 496.844C282.247 497.208 282.392 497.502 282.681 497.726C282.97 497.941 283.372 498.048 283.885 498.048C284.389 498.048 284.828 497.936 285.201 497.712C285.584 497.488 285.859 497.161 286.027 496.732L286.293 497.656C286.116 498.095 285.803 498.445 285.355 498.706C284.907 498.958 284.342 499.084 283.661 499.084ZM294.467 495.962C294.075 496.149 293.669 496.298 293.249 496.41C292.839 496.513 292.414 496.564 291.975 496.564C291.079 496.564 290.37 496.354 289.847 495.934C289.334 495.514 289.077 494.865 289.077 493.988V491.58H290.421V493.904C290.421 494.436 290.585 494.828 290.911 495.08C291.247 495.332 291.695 495.458 292.255 495.458C292.61 495.458 292.974 495.411 293.347 495.318C293.73 495.225 294.103 495.094 294.467 494.926V495.962ZM294.369 499V491.58H295.713V499H294.369Z" fill="white"/>
<g filter="url(#filter3_d_528_862)">
<circle cx="122.999" cy="325" r="50" fill="url(#paint0_linear_528_862)"/>
</g>
<path fill-rule="evenodd" clip-rule="evenodd" d="M113.613 303.5C112.011 303.5 110.913 303.5 109.933 303.766C108.919 304.044 107.975 304.533 107.161 305.2C106.348 305.867 105.684 306.698 105.213 307.638C104.759 308.542 104.545 309.62 104.231 311.192L102.991 317.388C102.772 318.474 102.793 319.595 103.053 320.672C103.314 321.749 103.807 322.756 104.499 323.622V329.112C104.499 332.788 104.499 335.7 104.805 337.978C105.121 340.322 105.785 342.22 107.281 343.718C108.777 345.214 110.675 345.878 113.021 346.194C115.299 346.5 118.211 346.5 121.885 346.5H124.111C127.787 346.5 130.699 346.5 132.977 346.194C135.321 345.878 137.219 345.214 138.717 343.718C140.213 342.22 140.877 340.322 141.193 337.978C141.499 335.698 141.499 332.788 141.499 329.112V323.624C142.191 322.758 142.684 321.751 142.944 320.673C143.205 319.596 143.225 318.474 143.005 317.388L141.765 311.192C141.453 309.62 141.237 308.542 140.785 307.638C140.314 306.698 139.65 305.867 138.836 305.2C138.023 304.533 137.078 304.044 136.063 303.766C135.085 303.5 133.987 303.5 132.383 303.5H113.613ZM135.535 326.5C136.553 326.502 137.561 326.299 138.499 325.904V329C138.499 332.814 138.495 335.524 138.219 337.58C137.949 339.59 137.441 340.75 136.595 341.596C135.749 342.442 134.589 342.95 132.575 343.22C131.554 343.345 130.528 343.421 129.499 343.448V337.936C129.499 337.056 129.499 336.296 129.443 335.676C129.383 335.016 129.251 334.364 128.895 333.75C128.501 333.066 127.933 332.497 127.249 332.102C126.635 331.748 125.983 331.616 125.323 331.556C124.703 331.5 123.943 331.5 123.063 331.5H122.933C122.053 331.5 121.295 331.5 120.673 331.556C120.013 331.616 119.363 331.748 118.749 332.102C118.065 332.497 117.496 333.065 117.101 333.75C116.747 334.364 116.615 335.016 116.555 335.674C116.499 336.298 116.499 337.056 116.499 337.934V343.448C115.469 343.422 114.442 343.346 113.419 343.22C111.409 342.95 110.249 342.442 109.403 341.596C108.557 340.75 108.049 339.59 107.779 337.578C107.501 335.524 107.499 332.814 107.499 329V325.904C109.098 326.578 110.878 326.687 112.547 326.212C114.215 325.737 115.671 324.707 116.675 323.292C117.401 324.288 118.352 325.099 119.452 325.656C120.551 326.214 121.767 326.503 122.999 326.5C124.232 326.503 125.448 326.214 126.547 325.656C127.646 325.099 128.598 324.288 129.323 323.292C130.026 324.285 130.957 325.094 132.038 325.653C133.119 326.211 134.319 326.502 135.535 326.5ZM119.499 343.496C120.275 343.499 121.108 343.5 121.999 343.5H123.999C124.89 343.5 125.723 343.499 126.499 343.496V338C126.499 337.038 126.497 336.416 126.455 335.946C126.415 335.496 126.345 335.332 126.297 335.25C126.166 335.022 125.977 334.834 125.749 334.702C125.667 334.654 125.503 334.586 125.053 334.544C124.369 334.502 123.684 334.488 122.999 334.5C122.037 334.5 121.415 334.5 120.945 334.544C120.493 334.584 120.331 334.654 120.249 334.702C120.021 334.833 119.831 335.022 119.699 335.25C119.653 335.33 119.583 335.496 119.543 335.946C119.501 336.416 119.499 337.038 119.499 338V343.496ZM116.339 306.5H113.835C111.927 306.5 111.265 306.514 110.729 306.66C110.121 306.827 109.554 307.12 109.066 307.52C108.578 307.92 108.18 308.418 107.897 308.982C107.647 309.48 107.505 310.124 107.131 311.996L105.935 317.976C105.808 318.591 105.807 319.226 105.933 319.842C106.06 320.457 106.31 321.04 106.67 321.556C107.029 322.071 107.49 322.508 108.024 322.839C108.558 323.17 109.154 323.389 109.775 323.482C110.396 323.575 111.03 323.541 111.638 323.38C112.245 323.22 112.814 322.937 113.309 322.55C113.803 322.162 114.213 321.678 114.514 321.126C114.816 320.575 115.001 319.968 115.059 319.342L115.197 317.97L115.205 317.886L116.339 306.5ZM118.181 318.25L119.357 306.5H126.641L127.809 318.184C127.875 318.853 127.8 319.527 127.59 320.165C127.38 320.804 127.04 321.391 126.59 321.89C126.141 322.389 125.592 322.789 124.979 323.064C124.366 323.34 123.703 323.484 123.031 323.489C122.36 323.494 121.694 323.358 121.078 323.091C120.461 322.824 119.907 322.432 119.451 321.939C118.995 321.446 118.646 320.863 118.427 320.228C118.209 319.593 118.125 318.919 118.181 318.25ZM135.269 306.66C134.733 306.514 134.071 306.5 132.163 306.5H129.655L130.941 319.34C131.001 319.964 131.188 320.569 131.489 321.118C131.791 321.668 132.201 322.15 132.695 322.536C133.189 322.922 133.756 323.203 134.363 323.362C134.969 323.522 135.601 323.556 136.221 323.464C136.841 323.371 137.435 323.153 137.968 322.823C138.501 322.493 138.961 322.059 139.321 321.545C139.68 321.032 139.931 320.451 140.059 319.837C140.187 319.223 140.188 318.59 140.063 317.976L138.869 311.996C138.493 310.124 138.351 309.48 138.103 308.982C137.82 308.418 137.421 307.92 136.933 307.52C136.445 307.119 135.878 306.827 135.269 306.66Z" fill="white"/>
<path d="M82.325 399.112C81.5784 399.112 80.8644 399 80.183 398.776C79.5017 398.543 78.965 398.244 78.573 397.88L79.091 396.788C79.4644 397.115 79.9404 397.385 80.519 397.6C81.0977 397.815 81.6997 397.922 82.325 397.922C82.8944 397.922 83.3564 397.857 83.711 397.726C84.0657 397.595 84.327 397.418 84.495 397.194C84.663 396.961 84.747 396.699 84.747 396.41C84.747 396.074 84.635 395.803 84.411 395.598C84.1964 395.393 83.9117 395.229 83.557 395.108C83.2117 394.977 82.829 394.865 82.409 394.772C81.989 394.679 81.5644 394.571 81.135 394.45C80.715 394.319 80.3277 394.156 79.973 393.96C79.6277 393.764 79.3477 393.503 79.133 393.176C78.9184 392.84 78.811 392.411 78.811 391.888C78.811 391.384 78.9417 390.922 79.203 390.502C79.4737 390.073 79.8844 389.732 80.435 389.48C80.995 389.219 81.7044 389.088 82.563 389.088C83.1324 389.088 83.697 389.163 84.257 389.312C84.817 389.461 85.3024 389.676 85.713 389.956L85.251 391.076C84.831 390.796 84.3877 390.595 83.921 390.474C83.4544 390.343 83.0017 390.278 82.563 390.278C82.0124 390.278 81.5597 390.348 81.205 390.488C80.8504 390.628 80.589 390.815 80.421 391.048C80.2624 391.281 80.183 391.543 80.183 391.832C80.183 392.177 80.2904 392.453 80.505 392.658C80.729 392.863 81.0137 393.027 81.359 393.148C81.7137 393.269 82.101 393.381 82.521 393.484C82.941 393.577 83.361 393.685 83.781 393.806C84.2104 393.927 84.5977 394.086 84.943 394.282C85.2977 394.478 85.5824 394.739 85.797 395.066C86.0117 395.393 86.119 395.813 86.119 396.326C86.119 396.821 85.9837 397.283 85.713 397.712C85.4424 398.132 85.0224 398.473 84.453 398.734C83.893 398.986 83.1837 399.112 82.325 399.112ZM90.5163 399.084C89.7697 399.084 89.191 398.883 88.7803 398.482C88.3697 398.081 88.1643 397.507 88.1643 396.76V389.956H89.5083V396.704C89.5083 397.105 89.6063 397.413 89.8023 397.628C90.0077 397.843 90.297 397.95 90.6703 397.95C91.0903 397.95 91.4403 397.833 91.7203 397.6L92.1403 398.566C91.935 398.743 91.6877 398.874 91.3983 398.958C91.1183 399.042 90.8243 399.084 90.5163 399.084ZM86.9043 392.686V391.58H91.6363V392.686H86.9043ZM93.7652 399V391.58H95.1092V399H93.7652ZM94.4372 390.152C94.1759 390.152 93.9565 390.068 93.7792 389.9C93.6112 389.732 93.5272 389.527 93.5272 389.284C93.5272 389.032 93.6112 388.822 93.7792 388.654C93.9565 388.486 94.1759 388.402 94.4372 388.402C94.6985 388.402 94.9132 388.486 95.0812 388.654C95.2585 388.813 95.3472 389.013 95.3472 389.256C95.3472 389.508 95.2632 389.723 95.0952 389.9C94.9272 390.068 94.7079 390.152 94.4372 390.152ZM100.909 399.084C100.153 399.084 99.4767 398.921 98.8794 398.594C98.2914 398.267 97.8294 397.819 97.4934 397.25C97.1574 396.681 96.9894 396.027 96.9894 395.29C96.9894 394.553 97.1574 393.899 97.4934 393.33C97.8294 392.761 98.2914 392.317 98.8794 392C99.4767 391.673 100.153 391.51 100.909 391.51C101.581 391.51 102.179 391.645 102.701 391.916C103.233 392.177 103.644 392.569 103.933 393.092L102.911 393.75C102.669 393.386 102.37 393.12 102.015 392.952C101.67 392.775 101.297 392.686 100.895 392.686C100.41 392.686 99.976 392.793 99.5934 393.008C99.2107 393.223 98.9074 393.526 98.6834 393.918C98.4594 394.301 98.3474 394.758 98.3474 395.29C98.3474 395.822 98.4594 396.284 98.6834 396.676C98.9074 397.068 99.2107 397.371 99.5934 397.586C99.976 397.801 100.41 397.908 100.895 397.908C101.297 397.908 101.67 397.824 102.015 397.656C102.37 397.479 102.669 397.208 102.911 396.844L103.933 397.488C103.644 398.001 103.233 398.398 102.701 398.678C102.179 398.949 101.581 399.084 100.909 399.084ZM106.67 397.208L106.698 395.486L110.968 391.58H112.592L109.316 394.8L108.588 395.416L106.67 397.208ZM105.578 399V388.612H106.922V399H105.578ZM111.248 399L108.336 395.388L109.204 394.31L112.9 399H111.248ZM117.208 399.084C116.415 399.084 115.715 398.921 115.108 398.594C114.511 398.267 114.044 397.819 113.708 397.25C113.381 396.681 113.218 396.027 113.218 395.29C113.218 394.553 113.377 393.899 113.694 393.33C114.021 392.761 114.464 392.317 115.024 392C115.593 391.673 116.233 391.51 116.942 391.51C117.661 391.51 118.295 391.669 118.846 391.986C119.397 392.303 119.826 392.751 120.134 393.33C120.451 393.899 120.61 394.567 120.61 395.332C120.61 395.388 120.605 395.453 120.596 395.528C120.596 395.603 120.591 395.673 120.582 395.738H114.268V394.772H119.882L119.336 395.108C119.345 394.632 119.247 394.207 119.042 393.834C118.837 393.461 118.552 393.171 118.188 392.966C117.833 392.751 117.418 392.644 116.942 392.644C116.475 392.644 116.06 392.751 115.696 392.966C115.332 393.171 115.047 393.465 114.842 393.848C114.637 394.221 114.534 394.651 114.534 395.136V395.36C114.534 395.855 114.646 396.298 114.87 396.69C115.103 397.073 115.425 397.371 115.836 397.586C116.247 397.801 116.718 397.908 117.25 397.908C117.689 397.908 118.085 397.833 118.44 397.684C118.804 397.535 119.121 397.311 119.392 397.012L120.134 397.88C119.798 398.272 119.378 398.571 118.874 398.776C118.379 398.981 117.824 399.084 117.208 399.084ZM122.476 399V391.58H123.764V393.596L123.638 393.092C123.843 392.579 124.189 392.187 124.674 391.916C125.159 391.645 125.757 391.51 126.466 391.51V392.812C126.41 392.803 126.354 392.798 126.298 392.798C126.251 392.798 126.205 392.798 126.158 392.798C125.439 392.798 124.87 393.013 124.45 393.442C124.03 393.871 123.82 394.492 123.82 395.304V399H122.476ZM135.03 399.112C134.283 399.112 133.569 399 132.888 398.776C132.207 398.543 131.67 398.244 131.278 397.88L131.796 396.788C132.169 397.115 132.645 397.385 133.224 397.6C133.803 397.815 134.405 397.922 135.03 397.922C135.599 397.922 136.061 397.857 136.416 397.726C136.771 397.595 137.032 397.418 137.2 397.194C137.368 396.961 137.452 396.699 137.452 396.41C137.452 396.074 137.34 395.803 137.116 395.598C136.901 395.393 136.617 395.229 136.262 395.108C135.917 394.977 135.534 394.865 135.114 394.772C134.694 394.679 134.269 394.571 133.84 394.45C133.42 394.319 133.033 394.156 132.678 393.96C132.333 393.764 132.053 393.503 131.838 393.176C131.623 392.84 131.516 392.411 131.516 391.888C131.516 391.384 131.647 390.922 131.908 390.502C132.179 390.073 132.589 389.732 133.14 389.48C133.7 389.219 134.409 389.088 135.268 389.088C135.837 389.088 136.402 389.163 136.962 389.312C137.522 389.461 138.007 389.676 138.418 389.956L137.956 391.076C137.536 390.796 137.093 390.595 136.626 390.474C136.159 390.343 135.707 390.278 135.268 390.278C134.717 390.278 134.265 390.348 133.91 390.488C133.555 390.628 133.294 390.815 133.126 391.048C132.967 391.281 132.888 391.543 132.888 391.832C132.888 392.177 132.995 392.453 133.21 392.658C133.434 392.863 133.719 393.027 134.064 393.148C134.419 393.269 134.806 393.381 135.226 393.484C135.646 393.577 136.066 393.685 136.486 393.806C136.915 393.927 137.303 394.086 137.648 394.282C138.003 394.478 138.287 394.739 138.502 395.066C138.717 395.393 138.824 395.813 138.824 396.326C138.824 396.821 138.689 397.283 138.418 397.712C138.147 398.132 137.727 398.473 137.158 398.734C136.598 398.986 135.889 399.112 135.03 399.112ZM143.221 399.084C142.475 399.084 141.896 398.883 141.485 398.482C141.075 398.081 140.869 397.507 140.869 396.76V389.956H142.213V396.704C142.213 397.105 142.311 397.413 142.507 397.628C142.713 397.843 143.002 397.95 143.375 397.95C143.795 397.95 144.145 397.833 144.425 397.6L144.845 398.566C144.64 398.743 144.393 398.874 144.103 398.958C143.823 399.042 143.529 399.084 143.221 399.084ZM139.609 392.686V391.58H144.341V392.686H139.609ZM149.402 399.084C148.656 399.084 147.993 398.921 147.414 398.594C146.836 398.267 146.378 397.819 146.042 397.25C145.706 396.671 145.538 396.018 145.538 395.29C145.538 394.553 145.706 393.899 146.042 393.33C146.378 392.761 146.836 392.317 147.414 392C147.993 391.673 148.656 391.51 149.402 391.51C150.14 391.51 150.798 391.673 151.376 392C151.964 392.317 152.422 392.761 152.748 393.33C153.084 393.89 153.252 394.543 153.252 395.29C153.252 396.027 153.084 396.681 152.748 397.25C152.422 397.819 151.964 398.267 151.376 398.594C150.798 398.921 150.14 399.084 149.402 399.084ZM149.402 397.908C149.878 397.908 150.303 397.801 150.676 397.586C151.059 397.371 151.358 397.068 151.572 396.676C151.787 396.275 151.894 395.813 151.894 395.29C151.894 394.758 151.787 394.301 151.572 393.918C151.358 393.526 151.059 393.223 150.676 393.008C150.303 392.793 149.878 392.686 149.402 392.686C148.926 392.686 148.502 392.793 148.128 393.008C147.755 393.223 147.456 393.526 147.232 393.918C147.008 394.301 146.896 394.758 146.896 395.29C146.896 395.813 147.008 396.275 147.232 396.676C147.456 397.068 147.755 397.371 148.128 397.586C148.502 397.801 148.926 397.908 149.402 397.908ZM155.111 399V391.58H156.399V393.596L156.273 393.092C156.478 392.579 156.824 392.187 157.309 391.916C157.794 391.645 158.392 391.51 159.101 391.51V392.812C159.045 392.803 158.989 392.798 158.933 392.798C158.886 392.798 158.84 392.798 158.793 392.798C158.074 392.798 157.505 393.013 157.085 393.442C156.665 393.871 156.455 394.492 156.455 395.304V399H155.111ZM163.993 399.084C163.2 399.084 162.5 398.921 161.893 398.594C161.296 398.267 160.829 397.819 160.493 397.25C160.166 396.681 160.003 396.027 160.003 395.29C160.003 394.553 160.162 393.899 160.479 393.33C160.806 392.761 161.249 392.317 161.809 392C162.378 391.673 163.018 391.51 163.727 391.51C164.446 391.51 165.08 391.669 165.631 391.986C166.182 392.303 166.611 392.751 166.919 393.33C167.236 393.899 167.395 394.567 167.395 395.332C167.395 395.388 167.39 395.453 167.381 395.528C167.381 395.603 167.376 395.673 167.367 395.738H161.053V394.772H166.667L166.121 395.108C166.13 394.632 166.032 394.207 165.827 393.834C165.622 393.461 165.337 393.171 164.973 392.966C164.618 392.751 164.203 392.644 163.727 392.644C163.26 392.644 162.845 392.751 162.481 392.966C162.117 393.171 161.832 393.465 161.627 393.848C161.422 394.221 161.319 394.651 161.319 395.136V395.36C161.319 395.855 161.431 396.298 161.655 396.69C161.888 397.073 162.21 397.371 162.621 397.586C163.032 397.801 163.503 397.908 164.035 397.908C164.474 397.908 164.87 397.833 165.225 397.684C165.589 397.535 165.906 397.311 166.177 397.012L166.919 397.88C166.583 398.272 166.163 398.571 165.659 398.776C165.164 398.981 164.609 399.084 163.993 399.084Z" fill="white"/>
<rect x="40" y="655" width="280" height="50" rx="25" fill="white"/>
<path d="M78.6477 685.5V673.864H83.0114C83.9053 673.864 84.6553 674.03 85.2614 674.364C85.8712 674.697 86.3314 675.155 86.642 675.739C86.9564 676.318 87.1136 676.977 87.1136 677.716C87.1136 678.462 86.9564 679.125 86.642 679.705C86.3277 680.284 85.8636 680.741 85.25 681.074C84.6364 681.403 83.8807 681.568 82.983 681.568H80.0909V679.835H82.6989C83.2216 679.835 83.6496 679.744 83.983 679.562C84.3163 679.381 84.5625 679.131 84.7216 678.812C84.8845 678.494 84.9659 678.129 84.9659 677.716C84.9659 677.303 84.8845 676.939 84.7216 676.625C84.5625 676.311 84.3144 676.066 83.9773 675.892C83.6439 675.714 83.214 675.625 82.6875 675.625H80.7557V685.5H78.6477ZM91.2088 685.676C90.6558 685.676 90.1577 685.578 89.7145 685.381C89.2751 685.18 88.9266 684.884 88.669 684.494C88.4152 684.104 88.2884 683.623 88.2884 683.051C88.2884 682.559 88.3793 682.152 88.5611 681.83C88.7429 681.508 88.991 681.25 89.3054 681.057C89.6198 680.864 89.974 680.718 90.3679 680.619C90.7656 680.517 91.1766 680.443 91.6009 680.398C92.1122 680.345 92.527 680.297 92.8452 680.256C93.1634 680.21 93.3944 680.142 93.5384 680.051C93.6861 679.956 93.7599 679.811 93.7599 679.614V679.58C93.7599 679.152 93.633 678.82 93.3793 678.585C93.1255 678.35 92.7599 678.233 92.2827 678.233C91.7789 678.233 91.3793 678.343 91.0838 678.562C90.7921 678.782 90.5952 679.042 90.4929 679.341L88.5724 679.068C88.724 678.538 88.974 678.095 89.3224 677.739C89.6709 677.379 90.0971 677.11 90.6009 676.932C91.1046 676.75 91.6615 676.659 92.2713 676.659C92.6918 676.659 93.1103 676.708 93.527 676.807C93.9437 676.905 94.3243 677.068 94.669 677.295C95.0137 677.519 95.2902 677.824 95.4986 678.21C95.7107 678.597 95.8168 679.08 95.8168 679.659V685.5H93.8395V684.301H93.7713C93.6463 684.544 93.4702 684.771 93.2429 684.983C93.0194 685.191 92.7372 685.36 92.3963 685.489C92.0592 685.614 91.6634 685.676 91.2088 685.676ZM91.7429 684.165C92.1558 684.165 92.5137 684.083 92.8168 683.92C93.1198 683.754 93.3527 683.534 93.5156 683.261C93.6823 682.989 93.7656 682.691 93.7656 682.369V681.341C93.7012 681.394 93.5914 681.443 93.4361 681.489C93.2846 681.534 93.1141 681.574 92.9247 681.608C92.7353 681.642 92.5478 681.672 92.3622 681.699C92.1766 681.725 92.0156 681.748 91.8793 681.767C91.5724 681.809 91.2978 681.877 91.0554 681.972C90.813 682.066 90.6217 682.199 90.4815 682.369C90.3414 682.536 90.2713 682.752 90.2713 683.017C90.2713 683.396 90.4096 683.682 90.6861 683.875C90.9626 684.068 91.3149 684.165 91.7429 684.165ZM97.402 683.108H99.4418C99.4607 683.434 99.6065 683.686 99.8793 683.864C100.152 684.042 100.506 684.131 100.942 684.131C101.385 684.131 101.758 684.034 102.061 683.841C102.368 683.644 102.521 683.347 102.521 682.949C102.521 682.714 102.463 682.508 102.345 682.33C102.228 682.148 102.063 682.008 101.851 681.909C101.639 681.811 101.389 681.761 101.101 681.761H99.7656V680.301H101.101C101.529 680.301 101.853 680.203 102.072 680.006C102.296 679.809 102.408 679.561 102.408 679.261C102.408 678.939 102.29 678.678 102.055 678.477C101.824 678.277 101.504 678.176 101.095 678.176C100.686 678.176 100.345 678.269 100.072 678.455C99.8035 678.64 99.6634 678.879 99.652 679.17H97.6236C97.6312 678.663 97.7827 678.222 98.0781 677.847C98.3774 677.472 98.7789 677.18 99.2827 676.972C99.7902 676.763 100.362 676.659 100.999 676.659C101.68 676.659 102.269 676.761 102.766 676.966C103.262 677.17 103.644 677.456 103.913 677.824C104.182 678.187 104.317 678.616 104.317 679.108C104.317 679.581 104.169 679.973 103.874 680.284C103.578 680.591 103.18 680.811 102.68 680.943V681.034C103.025 681.053 103.336 681.152 103.612 681.33C103.889 681.504 104.108 681.741 104.271 682.04C104.434 682.339 104.516 682.686 104.516 683.08C104.516 683.614 104.362 684.076 104.055 684.466C103.749 684.852 103.326 685.15 102.788 685.358C102.254 685.566 101.643 685.67 100.953 685.67C100.283 685.67 99.6823 685.57 99.152 685.369C98.6255 685.165 98.2069 684.871 97.8963 684.489C97.5857 684.106 97.4209 683.646 97.402 683.108ZM106.135 688.773V676.773H108.158V678.216H108.277C108.383 678.004 108.533 677.778 108.726 677.54C108.919 677.297 109.18 677.091 109.51 676.92C109.839 676.746 110.26 676.659 110.771 676.659C111.446 676.659 112.054 676.831 112.595 677.176C113.141 677.517 113.572 678.023 113.891 678.693C114.213 679.36 114.374 680.178 114.374 681.148C114.374 682.106 114.216 682.92 113.902 683.591C113.588 684.261 113.16 684.773 112.618 685.125C112.076 685.477 111.463 685.653 110.777 685.653C110.277 685.653 109.862 685.57 109.533 685.403C109.203 685.237 108.938 685.036 108.737 684.801C108.54 684.562 108.387 684.337 108.277 684.125H108.192V688.773H106.135ZM108.152 681.136C108.152 681.701 108.232 682.195 108.391 682.619C108.554 683.044 108.786 683.375 109.089 683.614C109.396 683.848 109.768 683.966 110.203 683.966C110.658 683.966 111.038 683.845 111.345 683.602C111.652 683.356 111.883 683.021 112.038 682.597C112.197 682.169 112.277 681.682 112.277 681.136C112.277 680.595 112.199 680.114 112.044 679.693C111.889 679.273 111.658 678.943 111.351 678.705C111.044 678.466 110.661 678.347 110.203 678.347C109.764 678.347 109.391 678.462 109.084 678.693C108.777 678.924 108.544 679.248 108.385 679.665C108.23 680.081 108.152 680.572 108.152 681.136ZM118.646 685.676C118.093 685.676 117.595 685.578 117.152 685.381C116.713 685.18 116.364 684.884 116.107 684.494C115.853 684.104 115.726 683.623 115.726 683.051C115.726 682.559 115.817 682.152 115.999 681.83C116.18 681.508 116.429 681.25 116.743 681.057C117.057 680.864 117.411 680.718 117.805 680.619C118.203 680.517 118.614 680.443 119.038 680.398C119.55 680.345 119.964 680.297 120.283 680.256C120.601 680.21 120.832 680.142 120.976 680.051C121.124 679.956 121.197 679.811 121.197 679.614V679.58C121.197 679.152 121.071 678.82 120.817 678.585C120.563 678.35 120.197 678.233 119.72 678.233C119.216 678.233 118.817 678.343 118.521 678.562C118.23 678.782 118.033 679.042 117.93 679.341L116.01 679.068C116.161 678.538 116.411 678.095 116.76 677.739C117.108 677.379 117.535 677.11 118.038 676.932C118.542 676.75 119.099 676.659 119.709 676.659C120.129 676.659 120.548 676.708 120.964 676.807C121.381 676.905 121.762 677.068 122.107 677.295C122.451 677.519 122.728 677.824 122.936 678.21C123.148 678.597 123.254 679.08 123.254 679.659V685.5H121.277V684.301H121.209C121.084 684.544 120.908 684.771 120.68 684.983C120.457 685.191 120.175 685.36 119.834 685.489C119.497 685.614 119.101 685.676 118.646 685.676ZM119.18 684.165C119.593 684.165 119.951 684.083 120.254 683.92C120.557 683.754 120.79 683.534 120.953 683.261C121.12 682.989 121.203 682.691 121.203 682.369V681.341C121.139 681.394 121.029 681.443 120.874 681.489C120.722 681.534 120.552 681.574 120.362 681.608C120.173 681.642 119.985 681.672 119.8 681.699C119.614 681.725 119.453 681.748 119.317 681.767C119.01 681.809 118.735 681.877 118.493 681.972C118.25 682.066 118.059 682.199 117.919 682.369C117.779 682.536 117.709 682.752 117.709 683.017C117.709 683.396 117.847 683.682 118.124 683.875C118.4 684.068 118.752 684.165 119.18 684.165ZM132.317 673.545L133.033 674.875C132.779 675.095 132.495 675.254 132.18 675.352C131.866 675.451 131.497 675.515 131.072 675.545C130.652 675.572 130.152 675.591 129.572 675.602C128.921 675.617 128.389 675.741 127.976 675.972C127.563 676.203 127.247 676.553 127.027 677.023C126.807 677.489 126.663 678.083 126.595 678.807H126.692C126.964 678.273 127.347 677.866 127.839 677.585C128.332 677.305 128.91 677.165 129.572 677.165C130.296 677.165 130.934 677.328 131.487 677.653C132.044 677.975 132.478 678.443 132.788 679.057C133.103 679.67 133.26 680.413 133.26 681.284C133.26 682.182 133.091 682.96 132.754 683.619C132.417 684.275 131.938 684.78 131.317 685.136C130.699 685.492 129.966 685.67 129.118 685.67C128.273 685.67 127.538 685.487 126.913 685.119C126.292 684.748 125.811 684.201 125.47 683.477C125.133 682.75 124.964 681.854 124.964 680.79V680.006C124.964 677.953 125.347 676.42 126.112 675.409C126.877 674.398 128.012 673.883 129.516 673.864C129.963 673.856 130.362 673.854 130.714 673.858C131.071 673.862 131.381 673.845 131.646 673.807C131.911 673.769 132.135 673.682 132.317 673.545ZM129.129 684.023C129.55 684.023 129.913 683.915 130.22 683.699C130.527 683.479 130.762 683.169 130.925 682.767C131.091 682.366 131.175 681.89 131.175 681.341C131.175 680.799 131.091 680.339 130.925 679.96C130.758 679.578 130.521 679.286 130.214 679.085C129.908 678.884 129.542 678.784 129.118 678.784C128.8 678.784 128.514 678.841 128.26 678.955C128.006 679.068 127.79 679.235 127.612 679.455C127.434 679.674 127.298 679.941 127.203 680.256C127.108 680.57 127.057 680.932 127.05 681.341C127.05 682.163 127.235 682.816 127.607 683.301C127.978 683.782 128.485 684.023 129.129 684.023ZM138.817 685.67C137.964 685.67 137.226 685.483 136.601 685.108C135.976 684.733 135.491 684.208 135.146 683.534C134.805 682.86 134.635 682.072 134.635 681.17C134.635 680.269 134.805 679.479 135.146 678.801C135.491 678.123 135.976 677.597 136.601 677.222C137.226 676.847 137.964 676.659 138.817 676.659C139.669 676.659 140.408 676.847 141.033 677.222C141.658 677.597 142.141 678.123 142.482 678.801C142.826 679.479 142.999 680.269 142.999 681.17C142.999 682.072 142.826 682.86 142.482 683.534C142.141 684.208 141.658 684.733 141.033 685.108C140.408 685.483 139.669 685.67 138.817 685.67ZM138.828 684.023C139.29 684.023 139.677 683.896 139.987 683.642C140.298 683.384 140.529 683.04 140.68 682.608C140.836 682.176 140.913 681.695 140.913 681.165C140.913 680.631 140.836 680.148 140.68 679.716C140.529 679.28 140.298 678.934 139.987 678.676C139.677 678.419 139.29 678.29 138.828 678.29C138.355 678.29 137.961 678.419 137.646 678.676C137.336 678.934 137.103 679.28 136.947 679.716C136.796 680.148 136.72 680.631 136.72 681.165C136.72 681.695 136.796 682.176 136.947 682.608C137.103 683.04 137.336 683.384 137.646 683.642C137.961 683.896 138.355 684.023 138.828 684.023ZM143.783 678.46V676.773H151.419V678.46H148.595V685.5H146.607V678.46H143.783ZM155.209 685.676C154.656 685.676 154.158 685.578 153.714 685.381C153.275 685.18 152.927 684.884 152.669 684.494C152.415 684.104 152.288 683.623 152.288 683.051C152.288 682.559 152.379 682.152 152.561 681.83C152.743 681.508 152.991 681.25 153.305 681.057C153.62 680.864 153.974 680.718 154.368 680.619C154.766 680.517 155.177 680.443 155.601 680.398C156.112 680.345 156.527 680.297 156.845 680.256C157.163 680.21 157.394 680.142 157.538 680.051C157.686 679.956 157.76 679.811 157.76 679.614V679.58C157.76 679.152 157.633 678.82 157.379 678.585C157.125 678.35 156.76 678.233 156.283 678.233C155.779 678.233 155.379 678.343 155.084 678.562C154.792 678.782 154.595 679.042 154.493 679.341L152.572 679.068C152.724 678.538 152.974 678.095 153.322 677.739C153.671 677.379 154.097 677.11 154.601 676.932C155.105 676.75 155.661 676.659 156.271 676.659C156.692 676.659 157.11 676.708 157.527 676.807C157.944 676.905 158.324 677.068 158.669 677.295C159.014 677.519 159.29 677.824 159.499 678.21C159.711 678.597 159.817 679.08 159.817 679.659V685.5H157.839V684.301H157.771C157.646 684.544 157.47 684.771 157.243 684.983C157.019 685.191 156.737 685.36 156.396 685.489C156.059 685.614 155.663 685.676 155.209 685.676ZM155.743 684.165C156.156 684.165 156.514 684.083 156.817 683.92C157.12 683.754 157.353 683.534 157.516 683.261C157.682 682.989 157.766 682.691 157.766 682.369V681.341C157.701 681.394 157.591 681.443 157.436 681.489C157.285 681.534 157.114 681.574 156.925 681.608C156.735 681.642 156.548 681.672 156.362 681.699C156.177 681.725 156.016 681.748 155.879 681.767C155.572 681.809 155.298 681.877 155.055 681.972C154.813 682.066 154.622 682.199 154.482 682.369C154.341 682.536 154.271 682.752 154.271 683.017C154.271 683.396 154.41 683.682 154.686 683.875C154.963 684.068 155.315 684.165 155.743 684.165ZM160.908 678.46V676.773H168.544V678.46H165.72V685.5H163.732V678.46H160.908ZM171.574 679.614H174.148C175.261 679.614 176.123 679.884 176.733 680.426C177.343 680.968 177.65 681.678 177.653 682.557C177.65 683.129 177.509 683.636 177.233 684.08C176.96 684.523 176.563 684.871 176.04 685.125C175.521 685.375 174.89 685.5 174.148 685.5H170.182V676.773H172.165V683.812H174.148C174.595 683.812 174.962 683.699 175.25 683.472C175.538 683.241 175.682 682.945 175.682 682.585C175.682 682.206 175.538 681.898 175.25 681.659C174.962 681.42 174.595 681.301 174.148 681.301H171.574V679.614ZM183.385 685.5V676.773H190.754V685.5H188.771V678.46H185.351V685.5H183.385ZM192.869 688.773V676.773H194.892V678.216H195.011C195.117 678.004 195.267 677.778 195.46 677.54C195.653 677.297 195.915 677.091 196.244 676.92C196.574 676.746 196.994 676.659 197.506 676.659C198.18 676.659 198.788 676.831 199.33 677.176C199.875 677.517 200.307 678.023 200.625 678.693C200.947 679.36 201.108 680.178 201.108 681.148C201.108 682.106 200.951 682.92 200.636 683.591C200.322 684.261 199.894 684.773 199.352 685.125C198.811 685.477 198.197 685.653 197.511 685.653C197.011 685.653 196.597 685.57 196.267 685.403C195.938 685.237 195.672 685.036 195.472 684.801C195.275 684.562 195.121 684.337 195.011 684.125H194.926V688.773H192.869ZM194.886 681.136C194.886 681.701 194.966 682.195 195.125 682.619C195.288 683.044 195.521 683.375 195.824 683.614C196.131 683.848 196.502 683.966 196.938 683.966C197.392 683.966 197.773 683.845 198.08 683.602C198.386 683.356 198.617 683.021 198.773 682.597C198.932 682.169 199.011 681.682 199.011 681.136C199.011 680.595 198.934 680.114 198.778 679.693C198.623 679.273 198.392 678.943 198.085 678.705C197.778 678.466 197.396 678.347 196.938 678.347C196.498 678.347 196.125 678.462 195.818 678.693C195.511 678.924 195.278 679.248 195.119 679.665C194.964 680.081 194.886 680.572 194.886 681.136ZM204.852 682.716L208.347 676.773H210.46V685.5H208.472V679.551L204.989 685.5H202.869V676.773H204.852V682.716ZM211.97 685.5L211.959 683.807H212.26C212.487 683.807 212.679 683.756 212.834 683.653C212.989 683.551 213.118 683.381 213.22 683.142C213.322 682.9 213.402 682.574 213.459 682.165C213.516 681.756 213.555 681.246 213.578 680.636L213.732 676.773H220.095V685.5H218.107V678.46H215.601L215.464 681.273C215.43 682 215.349 682.631 215.22 683.165C215.095 683.695 214.917 684.133 214.686 684.477C214.459 684.822 214.173 685.08 213.828 685.25C213.483 685.417 213.076 685.5 212.607 685.5H211.97ZM225.973 685.67C225.121 685.67 224.382 685.483 223.757 685.108C223.132 684.733 222.647 684.208 222.303 683.534C221.962 682.86 221.791 682.072 221.791 681.17C221.791 680.269 221.962 679.479 222.303 678.801C222.647 678.123 223.132 677.597 223.757 677.222C224.382 676.847 225.121 676.659 225.973 676.659C226.825 676.659 227.564 676.847 228.189 677.222C228.814 677.597 229.297 678.123 229.638 678.801C229.982 679.479 230.155 680.269 230.155 681.17C230.155 682.072 229.982 682.86 229.638 683.534C229.297 684.208 228.814 684.733 228.189 685.108C227.564 685.483 226.825 685.67 225.973 685.67ZM225.984 684.023C226.446 684.023 226.833 683.896 227.143 683.642C227.454 683.384 227.685 683.04 227.837 682.608C227.992 682.176 228.07 681.695 228.07 681.165C228.07 680.631 227.992 680.148 227.837 679.716C227.685 679.28 227.454 678.934 227.143 678.676C226.833 678.419 226.446 678.29 225.984 678.29C225.511 678.29 225.117 678.419 224.803 678.676C224.492 678.934 224.259 679.28 224.104 679.716C223.952 680.148 223.876 680.631 223.876 681.165C223.876 681.695 223.952 682.176 224.104 682.608C224.259 683.04 224.492 683.384 224.803 683.642C225.117 683.896 225.511 684.023 225.984 684.023ZM231.004 685.5L234.226 680.994L231.033 676.773H233.408L235.891 680.29H236.379V676.773H238.436V680.29H238.913L241.396 676.773H243.771L240.595 680.994L243.8 685.5H241.374L238.891 681.977H238.436V685.5H236.379V681.977H235.925L233.43 685.5H231.004ZM248.874 685.67C247.999 685.67 247.243 685.489 246.607 685.125C245.974 684.758 245.487 684.239 245.146 683.568C244.805 682.894 244.635 682.1 244.635 681.188C244.635 680.29 244.805 679.502 245.146 678.824C245.491 678.142 245.972 677.612 246.589 677.233C247.207 676.85 247.932 676.659 248.766 676.659C249.304 676.659 249.811 676.746 250.288 676.92C250.769 677.091 251.194 677.356 251.561 677.716C251.932 678.076 252.224 678.534 252.436 679.091C252.648 679.644 252.754 680.303 252.754 681.068V681.699H245.601V680.312H250.783C250.779 679.919 250.694 679.568 250.527 679.261C250.36 678.951 250.127 678.706 249.828 678.528C249.533 678.35 249.188 678.261 248.794 678.261C248.374 678.261 248.004 678.364 247.686 678.568C247.368 678.769 247.12 679.034 246.942 679.364C246.768 679.689 246.679 680.047 246.675 680.438V681.648C246.675 682.155 246.768 682.591 246.953 682.955C247.139 683.314 247.398 683.591 247.732 683.784C248.065 683.973 248.455 684.068 248.902 684.068C249.201 684.068 249.472 684.027 249.714 683.943C249.957 683.856 250.167 683.729 250.345 683.562C250.523 683.396 250.658 683.189 250.749 682.943L252.669 683.159C252.548 683.667 252.317 684.11 251.976 684.489C251.639 684.864 251.207 685.155 250.68 685.364C250.154 685.568 249.552 685.67 248.874 685.67ZM260.489 680.284V681.972H255.841V680.284H260.489ZM256.477 676.773V685.5H254.494V676.773H256.477ZM261.835 676.773V685.5H259.858V676.773H261.835ZM265.899 682.716L269.393 676.773H271.507V685.5H269.518V679.551L266.036 685.5H263.916V676.773H265.899V682.716ZM277.483 685.67C276.608 685.67 275.852 685.489 275.216 685.125C274.583 684.758 274.097 684.239 273.756 683.568C273.415 682.894 273.244 682.1 273.244 681.188C273.244 680.29 273.415 679.502 273.756 678.824C274.1 678.142 274.581 677.612 275.199 677.233C275.816 676.85 276.542 676.659 277.375 676.659C277.913 676.659 278.42 676.746 278.898 676.92C279.379 677.091 279.803 677.356 280.17 677.716C280.542 678.076 280.833 678.534 281.045 679.091C281.258 679.644 281.364 680.303 281.364 681.068V681.699H274.21V680.312H279.392C279.388 679.919 279.303 679.568 279.136 679.261C278.97 678.951 278.737 678.706 278.438 678.528C278.142 678.35 277.797 678.261 277.403 678.261C276.983 678.261 276.614 678.364 276.295 678.568C275.977 678.769 275.729 679.034 275.551 679.364C275.377 679.689 275.288 680.047 275.284 680.438V681.648C275.284 682.155 275.377 682.591 275.562 682.955C275.748 683.314 276.008 683.591 276.341 683.784C276.674 683.973 277.064 684.068 277.511 684.068C277.811 684.068 278.081 684.027 278.324 683.943C278.566 683.856 278.777 683.729 278.955 683.562C279.133 683.396 279.267 683.189 279.358 682.943L281.278 683.159C281.157 683.667 280.926 684.11 280.585 684.489C280.248 684.864 279.816 685.155 279.29 685.364C278.763 685.568 278.161 685.67 277.483 685.67Z" fill="black"/>
<rect x="20" y="90" width="260" height="30" rx="10" fill="#A199FF"/>
<rect x="20" y="90" width="260" height="30" rx="10" fill="black" fill-opacity="0.1"/>
<path d="M37.9167 108.333C36.4028 108.333 35.1217 107.809 34.0733 106.76C33.025 105.711 32.5006 104.43 32.5 102.917C32.4994 101.403 33.0239 100.122 34.0733 99.0733C35.1228 98.0244 36.4039 97.5 37.9167 97.5C39.4294 97.5 40.7108 98.0244 41.7608 99.0733C42.8108 100.122 43.335 101.403 43.3333 102.917C43.3333 103.528 43.2361 104.104 43.0417 104.646C42.8472 105.187 42.5833 105.667 42.25 106.083L46.9167 110.75C47.0694 110.903 47.1458 111.097 47.1458 111.333C47.1458 111.569 47.0694 111.764 46.9167 111.917C46.7639 112.069 46.5694 112.146 46.3333 112.146C46.0972 112.146 45.9028 112.069 45.75 111.917L41.0833 107.25C40.6667 107.583 40.1875 107.847 39.6458 108.042C39.1042 108.236 38.5278 108.333 37.9167 108.333ZM37.9167 106.667C38.9583 106.667 39.8439 106.302 40.5733 105.573C41.3028 104.844 41.6672 103.959 41.6667 102.917C41.6661 101.874 41.3017 100.989 40.5733 100.261C39.845 99.5325 38.9594 99.1678 37.9167 99.1667C36.8739 99.1656 35.9886 99.5303 35.2608 100.261C34.5331 100.991 34.1683 101.877 34.1667 102.917C34.165 103.957 34.5297 104.842 35.2608 105.573C35.9919 106.304 36.8772 106.669 37.9167 106.667Z" fill="white"/>
<path d="M67.3849 100.773V109.5H66.5923V101.489H61.892V109.5H61.0952V100.773H67.3849ZM72.0298 109.636C71.4645 109.636 70.9645 109.493 70.5298 109.206C70.098 108.919 69.7599 108.523 69.5156 108.017C69.2713 107.509 69.1491 106.922 69.1491 106.257C69.1491 105.587 69.2713 104.997 69.5156 104.489C69.7599 103.977 70.098 103.58 70.5298 103.295C70.9645 103.009 71.4645 102.865 72.0298 102.865C72.5952 102.865 73.0938 103.009 73.5256 103.295C73.9574 103.582 74.2955 103.98 74.5398 104.489C74.7869 104.997 74.9105 105.587 74.9105 106.257C74.9105 106.922 74.7884 107.509 74.544 108.017C74.2997 108.523 73.9602 108.919 73.5256 109.206C73.0938 109.493 72.5952 109.636 72.0298 109.636ZM72.0298 108.942C72.4844 108.942 72.8693 108.82 73.1847 108.575C73.5 108.331 73.7386 108.006 73.9006 107.599C74.0653 107.193 74.1477 106.746 74.1477 106.257C74.1477 105.768 74.0653 105.32 73.9006 104.911C73.7386 104.501 73.5 104.173 73.1847 103.926C72.8693 103.679 72.4844 103.555 72.0298 103.555C71.5781 103.555 71.1932 103.679 70.875 103.926C70.5597 104.173 70.3196 104.501 70.1548 104.911C69.9929 105.32 69.9119 105.768 69.9119 106.257C69.9119 106.746 69.9929 107.193 70.1548 107.599C70.3196 108.006 70.5597 108.331 70.875 108.575C71.1903 108.82 71.5753 108.942 72.0298 108.942ZM77.3342 108.422L80.7901 102.955H81.6978V109.5H80.9393V104.033L77.4961 109.5H76.5756V102.955H77.3342V108.422ZM86.2575 109.636C85.6722 109.636 85.1623 109.49 84.7276 109.197C84.2958 108.905 83.9606 108.504 83.7219 107.996C83.4833 107.487 83.364 106.908 83.364 106.257C83.364 105.601 83.4847 105.017 83.7262 104.506C83.9705 103.994 84.3086 103.594 84.7404 103.304C85.1722 103.011 85.6737 102.865 86.2447 102.865C86.6822 102.865 87.0785 102.95 87.4336 103.121C87.7887 103.288 88.0813 103.526 88.3114 103.832C88.5444 104.136 88.6907 104.491 88.7504 104.898H87.9833C87.9038 104.528 87.712 104.213 87.408 103.952C87.1069 103.687 86.7234 103.555 86.2575 103.555C85.8398 103.555 85.4705 103.669 85.1495 103.896C84.8285 104.121 84.5771 104.435 84.3952 104.838C84.2163 105.239 84.1268 105.703 84.1268 106.232C84.1268 106.763 84.2148 107.233 84.391 107.642C84.5671 108.048 84.8143 108.366 85.1325 108.597C85.4535 108.827 85.8285 108.942 86.2575 108.942C86.5472 108.942 86.8114 108.888 87.0501 108.78C87.2915 108.669 87.4933 108.513 87.6552 108.311C87.82 108.109 87.9308 107.869 87.9876 107.591H88.7546C88.6978 107.986 88.5572 108.338 88.3327 108.648C88.1112 108.955 87.8228 109.196 87.4677 109.372C87.1154 109.548 86.712 109.636 86.2575 109.636ZM90.3803 109.5V102.955H91.1388V105.899H91.8505L94.2837 102.955H95.2638L92.6388 106.104L95.3235 109.5H94.3434L92.0849 106.615H91.1388V109.5H90.3803ZM99.9513 109.5V102.955H104.907V109.5H104.145V103.67H100.714V109.5H99.9513ZM106.915 111.955V102.955H107.653V104.203H107.742C107.833 104.007 107.958 103.807 108.117 103.602C108.276 103.395 108.487 103.22 108.748 103.078C109.012 102.936 109.344 102.865 109.745 102.865C110.285 102.865 110.756 103.007 111.16 103.291C111.566 103.572 111.881 103.967 112.106 104.476C112.333 104.982 112.447 105.571 112.447 106.244C112.447 106.92 112.333 107.513 112.106 108.021C111.881 108.53 111.566 108.926 111.16 109.21C110.756 109.494 110.288 109.636 109.754 109.636C109.359 109.636 109.028 109.565 108.761 109.423C108.496 109.281 108.282 109.107 108.117 108.899C107.955 108.689 107.83 108.484 107.742 108.286H107.674V111.955H106.915ZM107.665 106.232C107.665 106.76 107.744 107.229 107.9 107.638C108.059 108.044 108.286 108.364 108.582 108.597C108.88 108.827 109.241 108.942 109.664 108.942C110.099 108.942 110.465 108.822 110.763 108.584C111.065 108.342 111.293 108.017 111.45 107.608C111.609 107.199 111.688 106.74 111.688 106.232C111.688 105.729 111.61 105.276 111.454 104.872C111.3 104.469 111.073 104.149 110.772 103.913C110.471 103.675 110.102 103.555 109.664 103.555C109.238 103.555 108.876 103.67 108.577 103.901C108.279 104.128 108.052 104.443 107.896 104.847C107.742 105.247 107.665 105.709 107.665 106.232ZM114.869 108.422L118.325 102.955H119.233V109.5H118.474V104.033L115.031 109.5H114.111V102.955H114.869V108.422ZM120.592 109.5V108.784H120.797C121.03 108.784 121.217 108.741 121.359 108.656C121.504 108.568 121.616 108.42 121.696 108.213C121.776 108.006 121.835 107.723 121.875 107.365C121.915 107.007 121.946 106.558 121.969 106.018L122.109 102.955H126.268V109.5H125.506V103.67H122.83L122.706 106.274C122.68 106.805 122.638 107.273 122.578 107.676C122.521 108.08 122.428 108.416 122.297 108.686C122.169 108.956 121.99 109.159 121.76 109.295C121.533 109.432 121.234 109.5 120.865 109.5H120.592ZM130.823 109.636C130.257 109.636 129.757 109.493 129.323 109.206C128.891 108.919 128.553 108.523 128.309 108.017C128.064 107.509 127.942 106.922 127.942 106.257C127.942 105.587 128.064 104.997 128.309 104.489C128.553 103.977 128.891 103.58 129.323 103.295C129.757 103.009 130.257 102.865 130.823 102.865C131.388 102.865 131.887 103.009 132.319 103.295C132.75 103.582 133.088 103.98 133.333 104.489C133.58 104.997 133.703 105.587 133.703 106.257C133.703 106.922 133.581 107.509 133.337 108.017C133.093 108.523 132.753 108.919 132.319 109.206C131.887 109.493 131.388 109.636 130.823 109.636ZM130.823 108.942C131.277 108.942 131.662 108.82 131.978 108.575C132.293 108.331 132.532 108.006 132.694 107.599C132.858 107.193 132.941 106.746 132.941 106.257C132.941 105.768 132.858 105.32 132.694 104.911C132.532 104.501 132.293 104.173 131.978 103.926C131.662 103.679 131.277 103.555 130.823 103.555C130.371 103.555 129.986 103.679 129.668 103.926C129.353 104.173 129.113 104.501 128.948 104.911C128.786 105.32 128.705 105.768 128.705 106.257C128.705 106.746 128.786 107.193 128.948 107.599C129.113 108.006 129.353 108.331 129.668 108.575C129.983 108.82 130.368 108.942 130.823 108.942ZM134.69 109.5L137.579 106.193L134.728 102.955H135.653L138.163 105.865H138.602V102.955H139.365V105.865H139.795L142.305 102.955H143.23L140.387 106.193L143.268 109.5H142.331L139.782 106.581H139.365V109.5H138.602V106.581H138.184L135.627 109.5H134.69ZM147.238 109.636C146.627 109.636 146.098 109.494 145.652 109.21C145.206 108.923 144.861 108.527 144.617 108.021C144.375 107.513 144.255 106.928 144.255 106.266C144.255 105.607 144.375 105.021 144.617 104.51C144.861 103.996 145.198 103.594 145.627 103.304C146.059 103.011 146.557 102.865 147.123 102.865C147.478 102.865 147.82 102.93 148.15 103.061C148.479 103.189 148.775 103.386 149.036 103.653C149.3 103.918 149.509 104.251 149.662 104.655C149.816 105.055 149.892 105.53 149.892 106.078V106.453H144.779V105.784H149.117C149.117 105.364 149.032 104.986 148.861 104.651C148.694 104.312 148.459 104.045 148.158 103.849C147.86 103.653 147.515 103.555 147.123 103.555C146.708 103.555 146.343 103.666 146.027 103.888C145.712 104.109 145.465 104.402 145.286 104.766C145.11 105.129 145.02 105.527 145.017 105.959V106.359C145.017 106.879 145.107 107.334 145.286 107.723C145.468 108.109 145.725 108.409 146.057 108.622C146.39 108.835 146.783 108.942 147.238 108.942C147.547 108.942 147.819 108.893 148.051 108.797C148.287 108.7 148.485 108.571 148.644 108.409C148.806 108.244 148.928 108.064 149.01 107.868L149.73 108.102C149.631 108.378 149.468 108.632 149.24 108.865C149.016 109.098 148.735 109.286 148.397 109.428C148.061 109.567 147.675 109.636 147.238 109.636ZM155.983 105.874V106.589H152.135V105.874H155.983ZM152.322 102.955V109.5H151.564V102.955H152.322ZM156.541 102.955V109.5H155.783V102.955H156.541ZM159.319 108.422L162.775 102.955H163.682V109.5H162.924V104.033L159.48 109.5H158.56V102.955H159.319V108.422ZM166.444 108.422L169.9 102.955H170.807V109.5H170.049V104.033L166.605 109.5H165.685V102.955H166.444V108.422ZM169.03 100.773H169.746C169.746 101.179 169.611 101.509 169.341 101.761C169.074 102.014 168.709 102.141 168.246 102.141C167.789 102.141 167.426 102.014 167.159 101.761C166.892 101.509 166.759 101.179 166.759 100.773H167.475C167.475 100.994 167.534 101.182 167.654 101.335C167.776 101.486 167.973 101.561 168.246 101.561C168.519 101.561 168.718 101.486 168.843 101.335C168.968 101.182 169.03 100.994 169.03 100.773Z" fill="white"/>
<path d="M303.314 105.136C303.314 106.045 303.152 106.837 302.828 107.51C302.504 108.18 302.058 108.7 301.49 109.07C300.925 109.436 300.274 109.619 299.538 109.619C298.803 109.619 298.151 109.436 297.582 109.07C297.017 108.7 296.572 108.18 296.249 107.51C295.928 106.837 295.767 106.045 295.767 105.136C295.767 104.227 295.928 103.437 296.249 102.767C296.572 102.094 297.018 101.574 297.587 101.207C298.155 100.838 298.805 100.653 299.538 100.653C300.274 100.653 300.925 100.838 301.49 101.207C302.058 101.574 302.504 102.094 302.828 102.767C303.152 103.437 303.314 104.227 303.314 105.136ZM302.538 105.136C302.538 104.355 302.408 103.686 302.146 103.129C301.885 102.57 301.528 102.142 301.077 101.847C300.625 101.551 300.112 101.403 299.538 101.403C298.967 101.403 298.456 101.551 298.004 101.847C297.553 102.142 297.195 102.568 296.93 103.125C296.669 103.682 296.538 104.352 296.538 105.136C296.538 105.918 296.669 106.587 296.93 107.143C297.192 107.7 297.548 108.128 298 108.426C298.452 108.722 298.964 108.869 299.538 108.869C300.112 108.869 300.625 108.722 301.077 108.426C301.531 108.131 301.889 107.705 302.151 107.148C302.412 106.588 302.541 105.918 302.538 105.136ZM304.683 103.67V102.955H309.797V103.67H307.632V109.5H306.873V103.67H304.683ZM314.822 108.439L317.281 102.955H318.018L315.124 109.5H314.519L311.66 102.955H312.384L314.822 108.439ZM312.158 102.955V109.5H311.4V102.955H312.158ZM317.485 109.5V102.955H318.244V109.5H317.485ZM322.906 109.636C322.295 109.636 321.766 109.494 321.32 109.21C320.874 108.923 320.529 108.527 320.285 108.021C320.043 107.513 319.923 106.928 319.923 106.266C319.923 105.607 320.043 105.021 320.285 104.51C320.529 103.996 320.866 103.594 321.295 103.304C321.727 103.011 322.225 102.865 322.79 102.865C323.146 102.865 323.488 102.93 323.817 103.061C324.147 103.189 324.442 103.386 324.704 103.653C324.968 103.918 325.177 104.251 325.33 104.655C325.484 105.055 325.56 105.53 325.56 106.078V106.453H320.447V105.784H324.785C324.785 105.364 324.7 104.986 324.529 104.651C324.362 104.312 324.127 104.045 323.826 103.849C323.528 103.653 323.183 103.555 322.79 103.555C322.376 103.555 322.011 103.666 321.695 103.888C321.38 104.109 321.133 104.402 320.954 104.766C320.778 105.129 320.688 105.527 320.685 105.959V106.359C320.685 106.879 320.775 107.334 320.954 107.723C321.136 108.109 321.393 108.409 321.725 108.622C322.058 108.835 322.451 108.942 322.906 108.942C323.215 108.942 323.487 108.893 323.719 108.797C323.955 108.7 324.153 108.571 324.312 108.409C324.474 108.244 324.596 108.064 324.678 107.868L325.398 108.102C325.299 108.378 325.136 108.632 324.908 108.865C324.684 109.098 324.403 109.286 324.065 109.428C323.729 109.567 323.343 109.636 322.906 109.636ZM331.651 105.874V106.589H327.803V105.874H331.651ZM327.99 102.955V109.5H327.232V102.955H327.99ZM332.209 102.955V109.5H331.451V102.955H332.209ZM336.056 109.649C335.661 109.649 335.3 109.572 334.974 109.419C334.647 109.263 334.387 109.038 334.194 108.746C334.001 108.45 333.904 108.092 333.904 107.672C333.904 107.348 333.965 107.075 334.087 106.854C334.21 106.632 334.383 106.45 334.607 106.308C334.832 106.166 335.097 106.054 335.404 105.972C335.711 105.889 336.049 105.825 336.418 105.78C336.785 105.734 337.094 105.695 337.347 105.661C337.603 105.626 337.798 105.572 337.931 105.499C338.065 105.425 338.131 105.305 338.131 105.141V104.987C338.131 104.541 337.998 104.19 337.731 103.935C337.467 103.676 337.086 103.547 336.589 103.547C336.117 103.547 335.732 103.651 335.434 103.858C335.138 104.065 334.931 104.31 334.812 104.591L334.092 104.331C334.239 103.973 334.444 103.687 334.705 103.474C334.967 103.259 335.259 103.104 335.583 103.01C335.907 102.913 336.235 102.865 336.567 102.865C336.817 102.865 337.077 102.898 337.347 102.963C337.62 103.028 337.873 103.142 338.106 103.304C338.339 103.463 338.528 103.686 338.673 103.973C338.817 104.257 338.89 104.618 338.89 105.055V109.5H338.131V108.464H338.085C337.994 108.658 337.859 108.845 337.68 109.027C337.501 109.209 337.276 109.358 337.006 109.474C336.737 109.591 336.42 109.649 336.056 109.649ZM336.158 108.955C336.562 108.955 336.911 108.865 337.207 108.686C337.502 108.507 337.729 108.27 337.888 107.974C338.05 107.676 338.131 107.348 338.131 106.99V106.044C338.075 106.098 337.979 106.146 337.846 106.189C337.715 106.232 337.563 106.27 337.39 106.304C337.219 106.335 337.049 106.362 336.879 106.385C336.708 106.408 336.555 106.428 336.418 106.445C336.049 106.49 335.734 106.561 335.472 106.658C335.211 106.754 335.011 106.888 334.871 107.058C334.732 107.226 334.663 107.442 334.663 107.706C334.663 108.104 334.805 108.412 335.089 108.631C335.373 108.847 335.729 108.955 336.158 108.955Z" fill="white"/>
</g>
<defs>
<filter id="filter0_f_528_862" x="141.999" y="221" width="102" height="108" filterUnits="userSpaceOnUse" color-interpolation-filters="sRGB">
<feFlood flood-opacity="0" result="BackgroundImageFix"/>
<feBlend mode="normal" in="SourceGraphic" in2="BackgroundImageFix" result="shape"/>
<feGaussianBlur stdDeviation="2.5" result="effect1_foregroundBlur_528_862"/>
</filter>
<filter id="filter1_f_528_862" x="102.999" y="470" width="102" height="108" filterUnits="userSpaceOnUse" color-interpolation-filters="sRGB">
<feFlood flood-opacity="0" result="BackgroundImageFix"/>
<feBlend mode="normal" in="SourceGraphic" in2="BackgroundImageFix" result="shape"/>
<feGaussianBlur stdDeviation="2.5" result="effect1_foregroundBlur_528_862"/>
</filter>
<filter id="filter2_d_528_862" x="159.5" y="355" width="154" height="154" filterUnits="userSpaceOnUse" color-interpolation-filters="sRGB">
<feFlood flood-opacity="0" result="BackgroundImageFix"/>
<feColorMatrix in="SourceAlpha" type="matrix" values="0 0 0 0 0 0 0 0 0 0 0 0 0 0 0 0 0 0 127 0" result="hardAlpha"/>
<feOffset dx="2" dy="4"/>
<feGaussianBlur stdDeviation="15"/>
<feComposite in2="hardAlpha" operator="out"/>
<feColorMatrix type="matrix" values="0 0 0 0 0 0 0 0 0 0 0 0 0 0 0 0 0 0 0.2 0"/>
<feBlend mode="normal" in2="BackgroundImageFix" result="effect1_dropShadow_528_862"/>
<feBlend mode="normal" in="SourceGraphic" in2="effect1_dropShadow_528_862" result="shape"/>
</filter>
<filter id="filter3_d_528_862" x="44.999" y="249" width="160" height="160" filterUnits="userSpaceOnUse" color-interpolation-filters="sRGB">
<feFlood flood-opacity="0" result="BackgroundImageFix"/>
<feColorMatrix in="SourceAlpha" type="matrix" values="0 0 0 0 0 0 0 0 0 0 0 0 0 0 0 0 0 0 127 0" result="hardAlpha"/>
<feOffset dx="2" dy="4"/>
<feGaussianBlur stdDeviation="15"/>
<feComposite in2="hardAlpha" operator="out"/>
<feColorMatrix type="matrix" values="0 0 0 0 0 0 0 0 0 0 0 0 0 0 0 0 0 0 0.2 0"/>
<feBlend mode="normal" in2="BackgroundImageFix" result="effect1_dropShadow_528_862"/>
<feBlend mode="normal" in="SourceGraphic" in2="effect1_dropShadow_528_862" result="shape"/>
</filter>
<linearGradient id="paint0_linear_528_862" x1="72.999" y1="287.791" x2="172.999" y2="363.953" gradientUnits="userSpaceOnUse">
<stop stop-color="#65E8FF"/>
<stop offset="1" stop-color="#2F82FF"/>
</linearGradient>
<clipPath id="clip0_528_862">
<rect width="360" height="755.001" rx="40" fill="white"/>
</clipPath>
</defs>
</svg>
