<svg width="314" height="206" viewBox="0 0 314 206" fill="none" xmlns="http://www.w3.org/2000/svg">
<path d="M0 0H132.5C147.688 0 160 12.3122 160 27.5C160 42.6878 147.688 55 132.5 55H35C15.67 55 0 39.33 0 20V0Z" fill="#5547FF"/>
<path d="M58.9091 33.5V21.8636H60.3182V27.0455H66.5227V21.8636H67.9318V33.5H66.5227V28.2955H60.3182V33.5H58.9091ZM74.6701 33.6818C73.8292 33.6818 73.1038 33.4962 72.494 33.125C71.8879 32.75 71.4201 32.2273 71.0906 31.5568C70.7648 30.8826 70.6019 30.0985 70.6019 29.2045C70.6019 28.3106 70.7648 27.5227 71.0906 26.8409C71.4201 26.1553 71.8784 25.6212 72.4656 25.2386C73.0565 24.8523 73.7459 24.6591 74.5337 24.6591C74.9883 24.6591 75.4372 24.7348 75.8803 24.8864C76.3235 25.0379 76.7269 25.2841 77.0906 25.625C77.4542 25.9621 77.744 26.4091 77.9599 26.9659C78.1758 27.5227 78.2837 28.2083 78.2837 29.0227V29.5909H71.5565V28.4318H76.9201C76.9201 27.9394 76.8216 27.5 76.6247 27.1136C76.4315 26.7273 76.155 26.4223 75.7951 26.1989C75.4391 25.9754 75.0186 25.8636 74.5337 25.8636C73.9997 25.8636 73.5375 25.9962 73.1474 26.2614C72.761 26.5227 72.4637 26.8636 72.2553 27.2841C72.047 27.7045 71.9428 28.1553 71.9428 28.6364V29.4091C71.9428 30.0682 72.0565 30.6269 72.2837 31.0852C72.5148 31.5398 72.8349 31.8864 73.244 32.125C73.6531 32.3598 74.1284 32.4773 74.6701 32.4773C75.0224 32.4773 75.3406 32.428 75.6247 32.3295C75.9125 32.2273 76.1606 32.0758 76.369 31.875C76.5773 31.6705 76.7383 31.4167 76.8519 31.1136L78.1474 31.4773C78.011 31.9167 77.7819 32.303 77.4599 32.6364C77.1379 32.9659 76.7402 33.2235 76.2667 33.4091C75.7932 33.5909 75.261 33.6818 74.6701 33.6818ZM82.1044 21.8636V33.5H80.7635V21.8636H82.1044ZM86.3413 21.8636V33.5H85.0004V21.8636H86.3413ZM92.7827 33.6818C91.9948 33.6818 91.3036 33.4943 90.7089 33.1193C90.118 32.7443 89.6558 32.2197 89.3225 31.5455C88.993 30.8712 88.8282 30.0833 88.8282 29.1818C88.8282 28.2727 88.993 27.4792 89.3225 26.8011C89.6558 26.1231 90.118 25.5966 90.7089 25.2216C91.3036 24.8466 91.9948 24.6591 92.7827 24.6591C93.5706 24.6591 94.26 24.8466 94.8509 25.2216C95.4456 25.5966 95.9077 26.1231 96.2373 26.8011C96.5706 27.4792 96.7373 28.2727 96.7373 29.1818C96.7373 30.0833 96.5706 30.8712 96.2373 31.5455C95.9077 32.2197 95.4456 32.7443 94.8509 33.1193C94.26 33.4943 93.5706 33.6818 92.7827 33.6818ZM92.7827 32.4773C93.3812 32.4773 93.8736 32.3239 94.26 32.017C94.6464 31.7102 94.9323 31.3068 95.118 30.8068C95.3036 30.3068 95.3964 29.7652 95.3964 29.1818C95.3964 28.5985 95.3036 28.0549 95.118 27.5511C94.9323 27.0473 94.6464 26.6402 94.26 26.3295C93.8736 26.0189 93.3812 25.8636 92.7827 25.8636C92.1842 25.8636 91.6918 26.0189 91.3055 26.3295C90.9191 26.6402 90.6331 27.0473 90.4475 27.5511C90.2619 28.0549 90.1691 28.5985 90.1691 29.1818C90.1691 29.7652 90.2619 30.3068 90.4475 30.8068C90.6331 31.3068 90.9191 31.7102 91.3055 32.017C91.6918 32.3239 92.1842 32.4773 92.7827 32.4773ZM100.997 21.8636L100.883 30.2273H99.5651L99.4514 21.8636H100.997ZM100.224 33.5909C99.9438 33.5909 99.7033 33.4905 99.5026 33.2898C99.3018 33.089 99.2014 32.8485 99.2014 32.5682C99.2014 32.2879 99.3018 32.0473 99.5026 31.8466C99.7033 31.6458 99.9438 31.5455 100.224 31.5455C100.504 31.5455 100.745 31.6458 100.946 31.8466C101.146 32.0473 101.247 32.2879 101.247 32.5682C101.247 32.7538 101.2 32.9242 101.105 33.0795C101.014 33.2348 100.891 33.3598 100.736 33.4545C100.584 33.5455 100.414 33.5909 100.224 33.5909Z" fill="white"/>
<path d="M117.115 77.1193C116.501 77.1193 116.007 76.9432 115.632 76.5909C115.257 76.2358 115.011 75.7244 114.895 75.0568C114.778 74.3864 114.797 73.5795 114.95 72.6364C115.104 71.6989 115.351 70.8963 115.692 70.2287C116.033 69.5582 116.449 69.0455 116.94 68.6903C117.435 68.3324 117.987 68.1534 118.598 68.1534C119.206 68.1534 119.699 68.3324 120.077 68.6903C120.455 69.0455 120.705 69.5582 120.827 70.2287C120.952 70.8963 120.936 71.6989 120.78 72.6364C120.621 73.5767 120.371 74.3821 120.03 75.0526C119.689 75.7202 119.27 76.2315 118.773 76.5866C118.278 76.9418 117.726 77.1193 117.115 77.1193ZM117.222 76.4034C117.892 76.4034 118.473 76.0767 118.964 75.4233C119.459 74.7699 119.805 73.8409 120.004 72.6364C120.135 71.8494 120.162 71.1733 120.085 70.608C120.011 70.0426 119.839 69.6094 119.57 69.3082C119.3 69.0071 118.942 68.8565 118.496 68.8565C117.828 68.8565 117.249 69.1861 116.757 69.8452C116.266 70.5014 115.92 71.4318 115.722 72.6364C115.591 73.4233 115.563 74.098 115.636 74.6605C115.71 75.223 115.881 75.6548 116.148 75.956C116.415 76.2543 116.773 76.4034 117.222 76.4034ZM125.847 68.1534C126.216 68.1562 126.563 68.2301 126.886 68.375C127.21 68.5199 127.484 68.7528 127.709 69.0739C127.936 69.3949 128.088 69.8196 128.165 70.348C128.241 70.8764 128.216 71.527 128.088 72.2997C127.972 73.0071 127.804 73.6548 127.585 74.2429C127.366 74.831 127.098 75.3409 126.78 75.7727C126.464 76.2017 126.101 76.5341 125.689 76.7699C125.28 77.0028 124.825 77.1193 124.325 77.1193C123.859 77.1193 123.459 77.0213 123.124 76.8253C122.791 76.6293 122.538 76.358 122.365 76.0114C122.192 75.6619 122.114 75.2585 122.131 74.8011H122.893C122.888 75.2727 123.001 75.6577 123.234 75.956C123.47 76.2543 123.839 76.4034 124.342 76.4034C125.058 76.4034 125.678 76.0753 126.2 75.419C126.726 74.7599 127.094 73.8026 127.304 72.5469L127.244 72.5895C127.065 72.8452 126.851 73.0668 126.601 73.2543C126.354 73.4418 126.084 73.5866 125.791 73.6889C125.501 73.7912 125.202 73.8423 124.892 73.8423C124.398 73.8423 123.966 73.7173 123.597 73.4673C123.227 73.2145 122.955 72.8707 122.778 72.4361C122.605 72.0014 122.565 71.5071 122.659 70.9531C122.75 70.4418 122.943 69.973 123.239 69.5469C123.534 69.1207 123.905 68.7812 124.351 68.5284C124.8 68.2727 125.298 68.1477 125.847 68.1534ZM125.825 68.8693C125.442 68.8693 125.08 68.9673 124.739 69.1634C124.398 69.3565 124.109 69.6179 123.874 69.9474C123.638 70.2741 123.487 70.6406 123.422 71.0469C123.359 71.4304 123.386 71.7798 123.503 72.0952C123.619 72.4105 123.807 72.6619 124.065 72.8494C124.327 73.0341 124.642 73.1264 125.011 73.1264C125.31 73.1264 125.597 73.0668 125.872 72.9474C126.148 72.8253 126.398 72.6605 126.622 72.4531C126.847 72.2457 127.03 72.0085 127.172 71.7415C127.314 71.4744 127.398 71.1946 127.423 70.902C127.457 70.5099 127.415 70.1605 127.295 69.8537C127.176 69.5469 126.991 69.3068 126.741 69.1335C126.491 68.9574 126.186 68.8693 125.825 68.8693ZM130.048 75.6875C129.875 75.6875 129.732 75.6278 129.618 75.5085C129.504 75.3892 129.446 75.2443 129.443 75.0739C129.446 74.9034 129.509 74.7614 129.631 74.6477C129.756 74.5312 129.902 74.473 130.07 74.473C130.237 74.473 130.381 74.5327 130.5 74.652C130.622 74.7685 130.679 74.9091 130.67 75.0739C130.668 75.1875 130.638 75.2912 130.581 75.3849C130.524 75.4787 130.449 75.5526 130.355 75.6065C130.261 75.6605 130.159 75.6875 130.048 75.6875ZM130.781 71.2599C130.608 71.2599 130.464 71.2003 130.351 71.081C130.237 70.9616 130.179 70.8168 130.176 70.6463C130.179 70.4759 130.241 70.3338 130.364 70.2202C130.489 70.1037 130.635 70.0455 130.803 70.0455C130.97 70.0455 131.114 70.1051 131.233 70.2244C131.355 70.3409 131.412 70.4815 131.403 70.6463C131.401 70.7599 131.371 70.8636 131.314 70.9574C131.257 71.0511 131.182 71.125 131.088 71.179C130.994 71.233 130.892 71.2599 130.781 71.2599ZM132.321 77L132.423 76.4162L135.798 73.2116C136.238 72.7912 136.598 72.4318 136.876 72.1335C137.154 71.8324 137.368 71.5568 137.515 71.3068C137.663 71.054 137.76 70.7912 137.805 70.5185C137.859 70.1861 137.831 69.8963 137.72 69.6491C137.612 69.3991 137.437 69.2045 137.196 69.0653C136.957 68.9261 136.667 68.8565 136.326 68.8565C135.968 68.8565 135.64 68.9332 135.342 69.0866C135.044 69.2401 134.795 69.4517 134.596 69.7216C134.4 69.9886 134.272 70.294 134.213 70.6378H133.45C133.529 70.1548 133.713 69.7273 134 69.3551C134.289 68.9801 134.647 68.6861 135.074 68.473C135.5 68.2599 135.958 68.1534 136.45 68.1534C136.939 68.1534 137.353 68.2585 137.694 68.4688C138.035 68.6761 138.282 68.9588 138.436 69.3168C138.589 69.6747 138.629 70.0753 138.555 70.5185C138.498 70.8423 138.389 71.1548 138.227 71.456C138.065 71.7543 137.816 72.0881 137.481 72.4574C137.146 72.8267 136.693 73.2784 136.122 73.8125L133.561 76.2287L133.548 76.2841H137.865L137.745 77H132.321ZM143.787 68.2727L142.338 77H141.541L142.849 69.108H142.798L140.527 70.4673L140.668 69.6406L142.956 68.2727H143.787Z" fill="black"/>
<path d="M0 100H273.5C295.868 100 314 118.132 314 140.5C314 162.868 295.868 181 273.5 181H45C20.1472 181 0 160.853 0 136V100Z" fill="#5547FF"/>
<path d="M42.0227 133.5L38.8409 121.864H40.2727L42.7045 131.341H42.8182L45.2955 121.864H46.8864L49.3636 131.341H49.4773L51.9091 121.864H53.3409L50.1591 133.5H48.7045L46.1364 124.227H46.0455L43.4773 133.5H42.0227ZM58.2014 133.682C57.3605 133.682 56.6351 133.496 56.0252 133.125C55.4192 132.75 54.9514 132.227 54.6218 131.557C54.2961 130.883 54.1332 130.098 54.1332 129.205C54.1332 128.311 54.2961 127.523 54.6218 126.841C54.9514 126.155 55.4097 125.621 55.9968 125.239C56.5877 124.852 57.2771 124.659 58.065 124.659C58.5195 124.659 58.9684 124.735 59.4116 124.886C59.8548 125.038 60.2582 125.284 60.6218 125.625C60.9855 125.962 61.2752 126.409 61.4911 126.966C61.707 127.523 61.815 128.208 61.815 129.023V129.591H55.0877V128.432H60.4514C60.4514 127.939 60.3529 127.5 60.1559 127.114C59.9627 126.727 59.6862 126.422 59.3264 126.199C58.9703 125.975 58.5498 125.864 58.065 125.864C57.5309 125.864 57.0688 125.996 56.6786 126.261C56.2923 126.523 55.9949 126.864 55.7866 127.284C55.5783 127.705 55.4741 128.155 55.4741 128.636V129.409C55.4741 130.068 55.5877 130.627 55.815 131.085C56.0461 131.54 56.3661 131.886 56.7752 132.125C57.1843 132.36 57.6597 132.477 58.2014 132.477C58.5536 132.477 58.8718 132.428 59.1559 132.33C59.4438 132.227 59.6919 132.076 59.9002 131.875C60.1086 131.67 60.2695 131.417 60.3832 131.114L61.6786 131.477C61.5423 131.917 61.3131 132.303 60.9911 132.636C60.6692 132.966 60.2714 133.223 59.798 133.409C59.3245 133.591 58.7923 133.682 58.2014 133.682ZM70.5757 128.25V133.5H69.2348V121.864H70.5757V126.136H70.6893C70.8939 125.686 71.2007 125.328 71.6098 125.062C72.0227 124.794 72.5719 124.659 73.2575 124.659C73.8522 124.659 74.373 124.778 74.82 125.017C75.267 125.252 75.6136 125.614 75.8598 126.102C76.1098 126.587 76.2348 127.205 76.2348 127.955V133.5H74.8939V128.045C74.8939 127.352 74.7139 126.816 74.3541 126.438C73.998 126.055 73.5037 125.864 72.8711 125.864C72.4317 125.864 72.0378 125.956 71.6893 126.142C71.3446 126.328 71.0719 126.598 70.8711 126.955C70.6742 127.311 70.5757 127.742 70.5757 128.25ZM81.6961 133.705C81.143 133.705 80.6412 133.6 80.1904 133.392C79.7396 133.18 79.3817 132.875 79.1165 132.477C78.8514 132.076 78.7188 131.591 78.7188 131.023C78.7188 130.523 78.8173 130.117 79.0143 129.807C79.2112 129.492 79.4745 129.246 79.804 129.068C80.1336 128.89 80.4972 128.758 80.8949 128.67C81.2965 128.58 81.6999 128.508 82.1052 128.455C82.6355 128.386 83.0654 128.335 83.3949 128.301C83.7283 128.263 83.9707 128.201 84.1222 128.114C84.2775 128.027 84.3552 127.875 84.3552 127.659V127.614C84.3552 127.053 84.2018 126.617 83.8949 126.307C83.5919 125.996 83.1317 125.841 82.5143 125.841C81.8741 125.841 81.3722 125.981 81.0086 126.261C80.6449 126.542 80.3893 126.841 80.2415 127.159L78.9688 126.705C79.1961 126.174 79.4991 125.761 79.8779 125.466C80.2605 125.167 80.6771 124.958 81.1279 124.841C81.5824 124.72 82.0294 124.659 82.4688 124.659C82.7491 124.659 83.0711 124.693 83.4347 124.761C83.8021 124.826 84.1563 124.96 84.4972 125.165C84.8419 125.369 85.1279 125.678 85.3552 126.091C85.5824 126.504 85.6961 127.057 85.6961 127.75V133.5H84.3552V132.318H84.287C84.1961 132.508 84.0446 132.71 83.8324 132.926C83.6203 133.142 83.3381 133.326 82.9859 133.477C82.6336 133.629 82.2037 133.705 81.6961 133.705ZM81.9006 132.5C82.4309 132.5 82.8779 132.396 83.2415 132.188C83.609 131.979 83.8855 131.71 84.0711 131.381C84.2605 131.051 84.3552 130.705 84.3552 130.341V129.114C84.2984 129.182 84.1734 129.244 83.9802 129.301C83.7908 129.354 83.5711 129.402 83.3211 129.443C83.0749 129.481 82.8343 129.515 82.5995 129.545C82.3684 129.572 82.1809 129.595 82.037 129.614C81.6885 129.659 81.3627 129.733 81.0597 129.835C80.7605 129.934 80.518 130.083 80.3324 130.284C80.1506 130.481 80.0597 130.75 80.0597 131.091C80.0597 131.557 80.2321 131.909 80.5768 132.148C80.9252 132.383 81.3665 132.5 81.9006 132.5ZM95.4074 124.773L92.1801 133.5H90.8165L87.5892 124.773H89.0438L91.4528 131.727H91.5438L93.9528 124.773H95.4074ZM100.964 133.682C100.123 133.682 99.3976 133.496 98.7877 133.125C98.1817 132.75 97.7139 132.227 97.3843 131.557C97.0586 130.883 96.8957 130.098 96.8957 129.205C96.8957 128.311 97.0586 127.523 97.3843 126.841C97.7139 126.155 98.1722 125.621 98.7593 125.239C99.3502 124.852 100.04 124.659 100.827 124.659C101.282 124.659 101.731 124.735 102.174 124.886C102.617 125.038 103.021 125.284 103.384 125.625C103.748 125.962 104.038 126.409 104.254 126.966C104.47 127.523 104.577 128.208 104.577 129.023V129.591H97.8502V128.432H103.214C103.214 127.939 103.115 127.5 102.918 127.114C102.725 126.727 102.449 126.422 102.089 126.199C101.733 125.975 101.312 125.864 100.827 125.864C100.293 125.864 99.8313 125.996 99.4411 126.261C99.0548 126.523 98.7574 126.864 98.5491 127.284C98.3408 127.705 98.2366 128.155 98.2366 128.636V129.409C98.2366 130.068 98.3502 130.627 98.5775 131.085C98.8086 131.54 99.1286 131.886 99.5377 132.125C99.9468 132.36 100.422 132.477 100.964 132.477C101.316 132.477 101.634 132.428 101.918 132.33C102.206 132.227 102.454 132.076 102.663 131.875C102.871 131.67 103.032 131.417 103.146 131.114L104.441 131.477C104.305 131.917 104.076 132.303 103.754 132.636C103.432 132.966 103.034 133.223 102.56 133.409C102.087 133.591 101.555 133.682 100.964 133.682ZM118.179 126.727L116.975 127.068C116.899 126.867 116.787 126.672 116.639 126.483C116.495 126.29 116.298 126.131 116.048 126.006C115.798 125.881 115.478 125.818 115.088 125.818C114.554 125.818 114.109 125.941 113.753 126.188C113.401 126.43 113.225 126.739 113.225 127.114C113.225 127.447 113.346 127.71 113.588 127.903C113.831 128.097 114.209 128.258 114.725 128.386L116.02 128.705C116.8 128.894 117.382 129.184 117.764 129.574C118.147 129.96 118.338 130.458 118.338 131.068C118.338 131.568 118.194 132.015 117.906 132.409C117.622 132.803 117.225 133.114 116.713 133.341C116.202 133.568 115.607 133.682 114.929 133.682C114.039 133.682 113.302 133.489 112.719 133.102C112.136 132.716 111.766 132.152 111.611 131.409L112.884 131.091C113.005 131.561 113.234 131.913 113.571 132.148C113.912 132.383 114.357 132.5 114.906 132.5C115.531 132.5 116.028 132.367 116.395 132.102C116.766 131.833 116.952 131.511 116.952 131.136C116.952 130.833 116.846 130.58 116.634 130.375C116.422 130.167 116.096 130.011 115.656 129.909L114.202 129.568C113.403 129.379 112.815 129.085 112.44 128.688C112.069 128.286 111.884 127.784 111.884 127.182C111.884 126.689 112.022 126.254 112.298 125.875C112.579 125.496 112.959 125.199 113.44 124.983C113.925 124.767 114.475 124.659 115.088 124.659C115.952 124.659 116.63 124.848 117.122 125.227C117.618 125.606 117.971 126.106 118.179 126.727ZM124.456 133.682C123.615 133.682 122.889 133.496 122.28 133.125C121.674 132.75 121.206 132.227 120.876 131.557C120.55 130.883 120.388 130.098 120.388 129.205C120.388 128.311 120.55 127.523 120.876 126.841C121.206 126.155 121.664 125.621 122.251 125.239C122.842 124.852 123.531 124.659 124.319 124.659C124.774 124.659 125.223 124.735 125.666 124.886C126.109 125.038 126.513 125.284 126.876 125.625C127.24 125.962 127.53 126.409 127.746 126.966C127.961 127.523 128.069 128.208 128.069 129.023V129.591H121.342V128.432H126.706C126.706 127.939 126.607 127.5 126.41 127.114C126.217 126.727 125.941 126.422 125.581 126.199C125.225 125.975 124.804 125.864 124.319 125.864C123.785 125.864 123.323 125.996 122.933 126.261C122.547 126.523 122.249 126.864 122.041 127.284C121.833 127.705 121.728 128.155 121.728 128.636V129.409C121.728 130.068 121.842 130.627 122.069 131.085C122.3 131.54 122.621 131.886 123.03 132.125C123.439 132.36 123.914 132.477 124.456 132.477C124.808 132.477 125.126 132.428 125.41 132.33C125.698 132.227 125.946 132.076 126.155 131.875C126.363 131.67 126.524 131.417 126.638 131.114L127.933 131.477C127.797 131.917 127.567 132.303 127.246 132.636C126.924 132.966 126.526 133.223 126.052 133.409C125.579 133.591 125.047 133.682 124.456 133.682ZM131.89 128.25V133.5H130.549V124.773H131.845V126.136H131.958C132.163 125.693 132.473 125.337 132.89 125.068C133.307 124.795 133.845 124.659 134.504 124.659C135.095 124.659 135.612 124.78 136.055 125.023C136.498 125.261 136.843 125.625 137.089 126.114C137.335 126.598 137.458 127.212 137.458 127.955V133.5H136.117V128.045C136.117 127.36 135.939 126.826 135.583 126.443C135.227 126.057 134.739 125.864 134.117 125.864C133.689 125.864 133.307 125.956 132.97 126.142C132.636 126.328 132.373 126.598 132.18 126.955C131.987 127.311 131.89 127.742 131.89 128.25ZM144.144 124.773V125.909H139.621V124.773H144.144ZM140.939 122.682H142.28V131C142.28 131.379 142.335 131.663 142.445 131.852C142.559 132.038 142.703 132.163 142.877 132.227C143.055 132.288 143.242 132.318 143.439 132.318C143.587 132.318 143.708 132.311 143.803 132.295C143.898 132.277 143.974 132.261 144.03 132.25L144.303 133.455C144.212 133.489 144.085 133.523 143.922 133.557C143.76 133.595 143.553 133.614 143.303 133.614C142.924 133.614 142.553 133.532 142.189 133.369C141.83 133.206 141.53 132.958 141.292 132.625C141.057 132.292 140.939 131.871 140.939 131.364V122.682ZM152.405 136.773C152.177 136.773 151.975 136.754 151.797 136.716C151.619 136.682 151.496 136.648 151.427 136.614L151.768 135.432C152.094 135.515 152.382 135.545 152.632 135.523C152.882 135.5 153.104 135.388 153.297 135.188C153.494 134.991 153.674 134.67 153.836 134.227L154.086 133.545L150.859 124.773H152.314L154.723 131.727H154.814L157.223 124.773H158.677L154.973 134.773C154.806 135.223 154.6 135.597 154.354 135.892C154.107 136.191 153.821 136.413 153.496 136.557C153.174 136.701 152.81 136.773 152.405 136.773ZM164.12 133.682C163.332 133.682 162.641 133.494 162.046 133.119C161.455 132.744 160.993 132.22 160.66 131.545C160.33 130.871 160.166 130.083 160.166 129.182C160.166 128.273 160.33 127.479 160.66 126.801C160.993 126.123 161.455 125.597 162.046 125.222C162.641 124.847 163.332 124.659 164.12 124.659C164.908 124.659 165.598 124.847 166.188 125.222C166.783 125.597 167.245 126.123 167.575 126.801C167.908 127.479 168.075 128.273 168.075 129.182C168.075 130.083 167.908 130.871 167.575 131.545C167.245 132.22 166.783 132.744 166.188 133.119C165.598 133.494 164.908 133.682 164.12 133.682ZM164.12 132.477C164.719 132.477 165.211 132.324 165.598 132.017C165.984 131.71 166.27 131.307 166.455 130.807C166.641 130.307 166.734 129.765 166.734 129.182C166.734 128.598 166.641 128.055 166.455 127.551C166.27 127.047 165.984 126.64 165.598 126.33C165.211 126.019 164.719 125.864 164.12 125.864C163.522 125.864 163.029 126.019 162.643 126.33C162.257 126.64 161.971 127.047 161.785 127.551C161.599 128.055 161.507 128.598 161.507 129.182C161.507 129.765 161.599 130.307 161.785 130.807C161.971 131.307 162.257 131.71 162.643 132.017C163.029 132.324 163.522 132.477 164.12 132.477ZM176.062 129.932V124.773H177.403V133.5H176.062V132.023H175.971C175.766 132.466 175.448 132.843 175.016 133.153C174.584 133.46 174.039 133.614 173.38 133.614C172.834 133.614 172.35 133.494 171.925 133.256C171.501 133.013 171.168 132.65 170.925 132.165C170.683 131.676 170.562 131.061 170.562 130.318V124.773H171.903V130.227C171.903 130.864 172.081 131.371 172.437 131.75C172.797 132.129 173.255 132.318 173.812 132.318C174.145 132.318 174.484 132.233 174.829 132.062C175.177 131.892 175.469 131.631 175.704 131.278C175.942 130.926 176.062 130.477 176.062 129.932ZM187.807 133.705C187.254 133.705 186.752 133.6 186.301 133.392C185.85 133.18 185.492 132.875 185.227 132.477C184.962 132.076 184.829 131.591 184.829 131.023C184.829 130.523 184.928 130.117 185.125 129.807C185.322 129.492 185.585 129.246 185.915 129.068C186.244 128.89 186.608 128.758 187.006 128.67C187.407 128.58 187.81 128.508 188.216 128.455C188.746 128.386 189.176 128.335 189.506 128.301C189.839 128.263 190.081 128.201 190.233 128.114C190.388 128.027 190.466 127.875 190.466 127.659V127.614C190.466 127.053 190.312 126.617 190.006 126.307C189.703 125.996 189.242 125.841 188.625 125.841C187.985 125.841 187.483 125.981 187.119 126.261C186.756 126.542 186.5 126.841 186.352 127.159L185.079 126.705C185.307 126.174 185.61 125.761 185.989 125.466C186.371 125.167 186.788 124.958 187.239 124.841C187.693 124.72 188.14 124.659 188.579 124.659C188.86 124.659 189.182 124.693 189.545 124.761C189.913 124.826 190.267 124.96 190.608 125.165C190.953 125.369 191.239 125.678 191.466 126.091C191.693 126.504 191.807 127.057 191.807 127.75V133.5H190.466V132.318H190.398C190.307 132.508 190.155 132.71 189.943 132.926C189.731 133.142 189.449 133.326 189.096 133.477C188.744 133.629 188.314 133.705 187.807 133.705ZM188.011 132.5C188.542 132.5 188.989 132.396 189.352 132.188C189.72 131.979 189.996 131.71 190.182 131.381C190.371 131.051 190.466 130.705 190.466 130.341V129.114C190.409 129.182 190.284 129.244 190.091 129.301C189.901 129.354 189.682 129.402 189.432 129.443C189.185 129.481 188.945 129.515 188.71 129.545C188.479 129.572 188.292 129.595 188.148 129.614C187.799 129.659 187.473 129.733 187.17 129.835C186.871 129.934 186.629 130.083 186.443 130.284C186.261 130.481 186.17 130.75 186.17 131.091C186.17 131.557 186.343 131.909 186.687 132.148C187.036 132.383 187.477 132.5 188.011 132.5ZM201.611 133.5L198.952 124.773H200.361L202.248 131.455H202.339L204.202 124.773H205.634L207.475 131.432H207.566L209.452 124.773H210.861L208.202 133.5H206.884L204.975 126.795H204.839L202.93 133.5H201.611ZM216.323 133.682C215.535 133.682 214.844 133.494 214.249 133.119C213.658 132.744 213.196 132.22 212.863 131.545C212.533 130.871 212.368 130.083 212.368 129.182C212.368 128.273 212.533 127.479 212.863 126.801C213.196 126.123 213.658 125.597 214.249 125.222C214.844 124.847 215.535 124.659 216.323 124.659C217.111 124.659 217.8 124.847 218.391 125.222C218.986 125.597 219.448 126.123 219.777 126.801C220.111 127.479 220.277 128.273 220.277 129.182C220.277 130.083 220.111 130.871 219.777 131.545C219.448 132.22 218.986 132.744 218.391 133.119C217.8 133.494 217.111 133.682 216.323 133.682ZM216.323 132.477C216.921 132.477 217.414 132.324 217.8 132.017C218.186 131.71 218.472 131.307 218.658 130.807C218.844 130.307 218.936 129.765 218.936 129.182C218.936 128.598 218.844 128.055 218.658 127.551C218.472 127.047 218.186 126.64 217.8 126.33C217.414 126.019 216.921 125.864 216.323 125.864C215.724 125.864 215.232 126.019 214.845 126.33C214.459 126.64 214.173 127.047 213.988 127.551C213.802 128.055 213.709 128.598 213.709 129.182C213.709 129.765 213.802 130.307 213.988 130.807C214.173 131.307 214.459 131.71 214.845 132.017C215.232 132.324 215.724 132.477 216.323 132.477ZM222.764 133.5V124.773H224.06V126.091H224.151C224.31 125.659 224.597 125.309 225.014 125.04C225.431 124.771 225.901 124.636 226.423 124.636C226.522 124.636 226.645 124.638 226.793 124.642C226.94 124.646 227.052 124.652 227.128 124.659V126.023C227.082 126.011 226.978 125.994 226.815 125.972C226.656 125.945 226.488 125.932 226.31 125.932C225.885 125.932 225.507 126.021 225.173 126.199C224.844 126.373 224.582 126.616 224.389 126.926C224.2 127.233 224.105 127.583 224.105 127.977V133.5H222.764ZM230.407 130.318L230.385 128.659H230.657L234.475 124.773H236.135L232.066 128.886H231.953L230.407 130.318ZM229.157 133.5V121.864H230.498V133.5H229.157ZM234.703 133.5L231.294 129.182L232.248 128.25L236.407 133.5H234.703ZM243.24 136.773V124.773H244.536V126.159H244.695C244.793 126.008 244.93 125.814 245.104 125.58C245.282 125.341 245.536 125.129 245.865 124.943C246.199 124.754 246.649 124.659 247.218 124.659C247.953 124.659 248.6 124.843 249.161 125.21C249.721 125.578 250.159 126.098 250.473 126.773C250.788 127.447 250.945 128.242 250.945 129.159C250.945 130.083 250.788 130.884 250.473 131.562C250.159 132.237 249.723 132.759 249.167 133.131C248.61 133.498 247.968 133.682 247.24 133.682C246.68 133.682 246.231 133.589 245.894 133.403C245.557 133.214 245.297 133 245.115 132.761C244.934 132.519 244.793 132.318 244.695 132.159H244.581V136.773H243.24ZM244.559 129.136C244.559 129.795 244.655 130.377 244.848 130.881C245.042 131.381 245.324 131.773 245.695 132.057C246.066 132.337 246.521 132.477 247.059 132.477C247.619 132.477 248.087 132.33 248.462 132.034C248.841 131.735 249.125 131.333 249.314 130.83C249.507 130.322 249.604 129.758 249.604 129.136C249.604 128.523 249.509 127.97 249.32 127.477C249.134 126.981 248.852 126.589 248.473 126.301C248.098 126.009 247.627 125.864 247.059 125.864C246.513 125.864 246.055 126.002 245.684 126.278C245.312 126.551 245.032 126.934 244.843 127.426C244.653 127.915 244.559 128.485 244.559 129.136ZM254.771 121.864V133.5H253.43V121.864H254.771ZM260.235 133.705C259.682 133.705 259.181 133.6 258.73 133.392C258.279 133.18 257.921 132.875 257.656 132.477C257.391 132.076 257.258 131.591 257.258 131.023C257.258 130.523 257.357 130.117 257.554 129.807C257.751 129.492 258.014 129.246 258.343 129.068C258.673 128.89 259.037 128.758 259.434 128.67C259.836 128.58 260.239 128.508 260.645 128.455C261.175 128.386 261.605 128.335 261.934 128.301C262.268 128.263 262.51 128.201 262.662 128.114C262.817 128.027 262.895 127.875 262.895 127.659V127.614C262.895 127.053 262.741 126.617 262.434 126.307C262.131 125.996 261.671 125.841 261.054 125.841C260.413 125.841 259.912 125.981 259.548 126.261C259.184 126.542 258.929 126.841 258.781 127.159L257.508 126.705C257.735 126.174 258.038 125.761 258.417 125.466C258.8 125.167 259.217 124.958 259.667 124.841C260.122 124.72 260.569 124.659 261.008 124.659C261.288 124.659 261.61 124.693 261.974 124.761C262.342 124.826 262.696 124.96 263.037 125.165C263.381 125.369 263.667 125.678 263.895 126.091C264.122 126.504 264.235 127.057 264.235 127.75V133.5H262.895V132.318H262.826C262.735 132.508 262.584 132.71 262.372 132.926C262.16 133.142 261.878 133.326 261.525 133.477C261.173 133.629 260.743 133.705 260.235 133.705ZM260.44 132.5C260.97 132.5 261.417 132.396 261.781 132.188C262.148 131.979 262.425 131.71 262.61 131.381C262.8 131.051 262.895 130.705 262.895 130.341V129.114C262.838 129.182 262.713 129.244 262.52 129.301C262.33 129.354 262.11 129.402 261.86 129.443C261.614 129.481 261.374 129.515 261.139 129.545C260.908 129.572 260.72 129.595 260.576 129.614C260.228 129.659 259.902 129.733 259.599 129.835C259.3 129.934 259.057 130.083 258.872 130.284C258.69 130.481 258.599 130.75 258.599 131.091C258.599 131.557 258.771 131.909 259.116 132.148C259.465 132.383 259.906 132.5 260.44 132.5ZM268.464 128.25V133.5H267.123V124.773H268.418V126.136H268.532C268.737 125.693 269.047 125.337 269.464 125.068C269.88 124.795 270.418 124.659 271.077 124.659C271.668 124.659 272.185 124.78 272.629 125.023C273.072 125.261 273.416 125.625 273.663 126.114C273.909 126.598 274.032 127.212 274.032 127.955V133.5H272.691V128.045C272.691 127.36 272.513 126.826 272.157 126.443C271.801 126.057 271.312 125.864 270.691 125.864C270.263 125.864 269.88 125.956 269.543 126.142C269.21 126.328 268.947 126.598 268.754 126.955C268.56 127.311 268.464 127.742 268.464 128.25ZM43.6136 149.773V150.909H38.9091V149.773H43.6136ZM40.3182 158.5V148.568C40.3182 148.068 40.4356 147.652 40.6705 147.318C40.9053 146.985 41.2102 146.735 41.5852 146.568C41.9602 146.402 42.3561 146.318 42.7727 146.318C43.1023 146.318 43.3712 146.345 43.5795 146.398C43.7879 146.451 43.9432 146.5 44.0455 146.545L43.6591 147.705C43.5909 147.682 43.4962 147.653 43.375 147.619C43.2576 147.585 43.1023 147.568 42.9091 147.568C42.4659 147.568 42.1458 147.68 41.9489 147.903C41.7557 148.127 41.6591 148.455 41.6591 148.886V158.5H40.3182ZM49.119 158.682C48.3311 158.682 47.6398 158.494 47.0451 158.119C46.4542 157.744 45.9921 157.22 45.6588 156.545C45.3292 155.871 45.1644 155.083 45.1644 154.182C45.1644 153.273 45.3292 152.479 45.6588 151.801C45.9921 151.123 46.4542 150.597 47.0451 150.222C47.6398 149.847 48.3311 149.659 49.119 149.659C49.9069 149.659 50.5963 149.847 51.1872 150.222C51.7819 150.597 52.244 151.123 52.5735 151.801C52.9069 152.479 53.0735 153.273 53.0735 154.182C53.0735 155.083 52.9069 155.871 52.5735 156.545C52.244 157.22 51.7819 157.744 51.1872 158.119C50.5963 158.494 49.9069 158.682 49.119 158.682ZM49.119 157.477C49.7175 157.477 50.2099 157.324 50.5963 157.017C50.9826 156.71 51.2686 156.307 51.4542 155.807C51.6398 155.307 51.7326 154.765 51.7326 154.182C51.7326 153.598 51.6398 153.055 51.4542 152.551C51.2686 152.047 50.9826 151.64 50.5963 151.33C50.2099 151.019 49.7175 150.864 49.119 150.864C48.5205 150.864 48.0281 151.019 47.6417 151.33C47.2553 151.64 46.9694 152.047 46.7838 152.551C46.5981 153.055 46.5053 153.598 46.5053 154.182C46.5053 154.765 46.5981 155.307 46.7838 155.807C46.9694 156.307 47.2553 156.71 47.6417 157.017C48.0281 157.324 48.5205 157.477 49.119 157.477ZM55.5604 158.5V149.773H56.8559V151.091H56.9468C57.1059 150.659 57.3937 150.309 57.8104 150.04C58.2271 149.771 58.6968 149.636 59.2195 149.636C59.318 149.636 59.4411 149.638 59.5888 149.642C59.7365 149.646 59.8483 149.652 59.924 149.659V151.023C59.8786 151.011 59.7744 150.994 59.6115 150.972C59.4524 150.945 59.2839 150.932 59.1059 150.932C58.6816 150.932 58.3028 151.021 57.9695 151.199C57.6399 151.373 57.3786 151.616 57.1854 151.926C56.996 152.233 56.9013 152.583 56.9013 152.977V158.5H55.5604ZM67.7572 161.773C67.5299 161.773 67.3272 161.754 67.1492 161.716C66.9712 161.682 66.8481 161.648 66.7799 161.614L67.1208 160.432C67.4466 160.515 67.7344 160.545 67.9844 160.523C68.2344 160.5 68.456 160.388 68.6492 160.188C68.8462 159.991 69.0261 159.67 69.189 159.227L69.439 158.545L66.2117 149.773H67.6663L70.0753 156.727H70.1663L72.5753 149.773H74.0299L70.3253 159.773C70.1587 160.223 69.9522 160.597 69.706 160.892C69.4598 161.191 69.1738 161.413 68.8481 161.557C68.5261 161.701 68.1625 161.773 67.7572 161.773ZM79.4727 158.682C78.6848 158.682 77.9936 158.494 77.3989 158.119C76.808 157.744 76.3458 157.22 76.0125 156.545C75.683 155.871 75.5182 155.083 75.5182 154.182C75.5182 153.273 75.683 152.479 76.0125 151.801C76.3458 151.123 76.808 150.597 77.3989 150.222C77.9936 149.847 78.6848 149.659 79.4727 149.659C80.2606 149.659 80.95 149.847 81.5409 150.222C82.1356 150.597 82.5977 151.123 82.9273 151.801C83.2606 152.479 83.4273 153.273 83.4273 154.182C83.4273 155.083 83.2606 155.871 82.9273 156.545C82.5977 157.22 82.1356 157.744 81.5409 158.119C80.95 158.494 80.2606 158.682 79.4727 158.682ZM79.4727 157.477C80.0712 157.477 80.5636 157.324 80.95 157.017C81.3364 156.71 81.6223 156.307 81.808 155.807C81.9936 155.307 82.0864 154.765 82.0864 154.182C82.0864 153.598 81.9936 153.055 81.808 152.551C81.6223 152.047 81.3364 151.64 80.95 151.33C80.5636 151.019 80.0712 150.864 79.4727 150.864C78.8742 150.864 78.3818 151.019 77.9955 151.33C77.6091 151.64 77.3231 152.047 77.1375 152.551C76.9519 153.055 76.8591 153.598 76.8591 154.182C76.8591 154.765 76.9519 155.307 77.1375 155.807C77.3231 156.307 77.6091 156.71 77.9955 157.017C78.3818 157.324 78.8742 157.477 79.4727 157.477ZM91.4141 154.932V149.773H92.7551V158.5H91.4141V157.023H91.3232C91.1187 157.466 90.8005 157.843 90.3687 158.153C89.9369 158.46 89.3914 158.614 88.7323 158.614C88.1869 158.614 87.702 158.494 87.2778 158.256C86.8535 158.013 86.5202 157.65 86.2778 157.165C86.0354 156.676 85.9141 156.061 85.9141 155.318V149.773H87.2551V155.227C87.2551 155.864 87.4331 156.371 87.7891 156.75C88.149 157.129 88.6073 157.318 89.1641 157.318C89.4975 157.318 89.8365 157.233 90.1812 157.062C90.5297 156.892 90.8213 156.631 91.0562 156.278C91.2948 155.926 91.4141 155.477 91.4141 154.932ZM95.651 158.5V149.773H96.9465V151.091H97.0374C97.1965 150.659 97.4844 150.309 97.901 150.04C98.3177 149.771 98.7874 149.636 99.3101 149.636C99.4086 149.636 99.5317 149.638 99.6794 149.642C99.8272 149.646 99.9389 149.652 100.015 149.659V151.023C99.9692 151.011 99.865 150.994 99.7022 150.972C99.5431 150.945 99.3745 150.932 99.1965 150.932C98.7722 150.932 98.3934 151.021 98.0601 151.199C97.7306 151.373 97.4692 151.616 97.276 151.926C97.0866 152.233 96.9919 152.583 96.9919 152.977V158.5H95.651ZM106.984 161.773V149.773H108.28V151.159H108.439C108.537 151.008 108.674 150.814 108.848 150.58C109.026 150.341 109.28 150.129 109.609 149.943C109.942 149.754 110.393 149.659 110.961 149.659C111.696 149.659 112.344 149.843 112.905 150.21C113.465 150.578 113.903 151.098 114.217 151.773C114.531 152.447 114.689 153.242 114.689 154.159C114.689 155.083 114.531 155.884 114.217 156.562C113.903 157.237 113.467 157.759 112.91 158.131C112.353 158.498 111.711 158.682 110.984 158.682C110.424 158.682 109.975 158.589 109.638 158.403C109.3 158.214 109.041 158 108.859 157.761C108.677 157.519 108.537 157.318 108.439 157.159H108.325V161.773H106.984ZM108.302 154.136C108.302 154.795 108.399 155.377 108.592 155.881C108.785 156.381 109.067 156.773 109.439 157.057C109.81 157.337 110.264 157.477 110.802 157.477C111.363 157.477 111.831 157.33 112.206 157.034C112.585 156.735 112.869 156.333 113.058 155.83C113.251 155.322 113.348 154.758 113.348 154.136C113.348 153.523 113.253 152.97 113.064 152.477C112.878 151.981 112.596 151.589 112.217 151.301C111.842 151.009 111.371 150.864 110.802 150.864C110.257 150.864 109.799 151.002 109.427 151.278C109.056 151.551 108.776 151.934 108.586 152.426C108.397 152.915 108.302 153.485 108.302 154.136ZM117.174 158.5V149.773H118.47V151.091H118.561C118.72 150.659 119.007 150.309 119.424 150.04C119.841 149.771 120.311 149.636 120.833 149.636C120.932 149.636 121.055 149.638 121.203 149.642C121.35 149.646 121.462 149.652 121.538 149.659V151.023C121.492 151.011 121.388 150.994 121.225 150.972C121.066 150.945 120.898 150.932 120.72 150.932C120.295 150.932 119.917 151.021 119.583 151.199C119.254 151.373 118.992 151.616 118.799 151.926C118.61 152.233 118.515 152.583 118.515 152.977V158.5H117.174ZM126.847 158.682C126.059 158.682 125.368 158.494 124.773 158.119C124.182 157.744 123.72 157.22 123.387 156.545C123.057 155.871 122.893 155.083 122.893 154.182C122.893 153.273 123.057 152.479 123.387 151.801C123.72 151.123 124.182 150.597 124.773 150.222C125.368 149.847 126.059 149.659 126.847 149.659C127.635 149.659 128.324 149.847 128.915 150.222C129.51 150.597 129.972 151.123 130.302 151.801C130.635 152.479 130.802 153.273 130.802 154.182C130.802 155.083 130.635 155.871 130.302 156.545C129.972 157.22 129.51 157.744 128.915 158.119C128.324 158.494 127.635 158.682 126.847 158.682ZM126.847 157.477C127.446 157.477 127.938 157.324 128.324 157.017C128.711 156.71 128.997 156.307 129.182 155.807C129.368 155.307 129.461 154.765 129.461 154.182C129.461 153.598 129.368 153.055 129.182 152.551C128.997 152.047 128.711 151.64 128.324 151.33C127.938 151.019 127.446 150.864 126.847 150.864C126.249 150.864 125.756 151.019 125.37 151.33C124.983 151.64 124.697 152.047 124.512 152.551C124.326 153.055 124.233 153.598 124.233 154.182C124.233 154.765 124.326 155.307 124.512 155.807C124.697 156.307 124.983 156.71 125.37 157.017C125.756 157.324 126.249 157.477 126.847 157.477ZM133.289 149.773H134.629V159.136C134.629 159.674 134.537 160.14 134.351 160.534C134.169 160.928 133.893 161.233 133.521 161.449C133.154 161.665 132.69 161.773 132.129 161.773C132.084 161.773 132.039 161.773 131.993 161.773C131.948 161.773 131.902 161.773 131.857 161.773V160.523C131.902 160.523 131.944 160.523 131.982 160.523C132.02 160.523 132.061 160.523 132.107 160.523C132.516 160.523 132.815 160.402 133.004 160.159C133.194 159.92 133.289 159.58 133.289 159.136V149.773ZM133.948 148.318C133.686 148.318 133.461 148.229 133.271 148.051C133.086 147.873 132.993 147.659 132.993 147.409C132.993 147.159 133.086 146.945 133.271 146.767C133.461 146.589 133.686 146.5 133.948 146.5C134.209 146.5 134.432 146.589 134.618 146.767C134.807 146.945 134.902 147.159 134.902 147.409C134.902 147.659 134.807 147.873 134.618 148.051C134.432 148.229 134.209 148.318 133.948 148.318ZM141.184 158.682C140.344 158.682 139.618 158.496 139.008 158.125C138.402 157.75 137.934 157.227 137.605 156.557C137.279 155.883 137.116 155.098 137.116 154.205C137.116 153.311 137.279 152.523 137.605 151.841C137.934 151.155 138.393 150.621 138.98 150.239C139.571 149.852 140.26 149.659 141.048 149.659C141.503 149.659 141.952 149.735 142.395 149.886C142.838 150.038 143.241 150.284 143.605 150.625C143.969 150.962 144.258 151.409 144.474 151.966C144.69 152.523 144.798 153.208 144.798 154.023V154.591H138.071V153.432H143.434C143.434 152.939 143.336 152.5 143.139 152.114C142.946 151.727 142.669 151.422 142.309 151.199C141.953 150.975 141.533 150.864 141.048 150.864C140.514 150.864 140.052 150.996 139.662 151.261C139.275 151.523 138.978 151.864 138.77 152.284C138.561 152.705 138.457 153.155 138.457 153.636V154.409C138.457 155.068 138.571 155.627 138.798 156.085C139.029 156.54 139.349 156.886 139.758 157.125C140.167 157.36 140.643 157.477 141.184 157.477C141.537 157.477 141.855 157.428 142.139 157.33C142.427 157.227 142.675 157.076 142.883 156.875C143.092 156.67 143.253 156.417 143.366 156.114L144.662 156.477C144.525 156.917 144.296 157.303 143.974 157.636C143.652 157.966 143.255 158.223 142.781 158.409C142.308 158.591 141.775 158.682 141.184 158.682ZM150.823 158.682C150.005 158.682 149.301 158.489 148.71 158.102C148.119 157.716 147.664 157.184 147.346 156.506C147.028 155.828 146.869 155.053 146.869 154.182C146.869 153.295 147.032 152.513 147.357 151.835C147.687 151.153 148.145 150.621 148.732 150.239C149.323 149.852 150.013 149.659 150.801 149.659C151.414 149.659 151.967 149.773 152.46 150C152.952 150.227 153.356 150.545 153.67 150.955C153.984 151.364 154.179 151.841 154.255 152.386H152.914C152.812 151.989 152.585 151.636 152.232 151.33C151.884 151.019 151.414 150.864 150.823 150.864C150.301 150.864 149.842 151 149.448 151.273C149.058 151.542 148.753 151.922 148.534 152.415C148.318 152.903 148.21 153.477 148.21 154.136C148.21 154.811 148.316 155.398 148.528 155.898C148.744 156.398 149.047 156.786 149.437 157.062C149.831 157.339 150.293 157.477 150.823 157.477C151.172 157.477 151.488 157.417 151.772 157.295C152.056 157.174 152.297 157 152.494 156.773C152.691 156.545 152.831 156.273 152.914 155.955H154.255C154.179 156.47 153.992 156.934 153.693 157.347C153.397 157.756 153.005 158.081 152.517 158.324C152.032 158.562 151.467 158.682 150.823 158.682ZM160.451 149.773V150.909H155.928V149.773H160.451ZM157.246 147.682H158.587V156C158.587 156.379 158.642 156.663 158.752 156.852C158.866 157.038 159.01 157.163 159.184 157.227C159.362 157.288 159.549 157.318 159.746 157.318C159.894 157.318 160.015 157.311 160.11 157.295C160.205 157.277 160.28 157.261 160.337 157.25L160.61 158.455C160.519 158.489 160.392 158.523 160.229 158.557C160.066 158.595 159.86 158.614 159.61 158.614C159.231 158.614 158.86 158.532 158.496 158.369C158.136 158.206 157.837 157.958 157.599 157.625C157.364 157.292 157.246 156.871 157.246 156.364V147.682ZM163.885 158.591C163.605 158.591 163.364 158.491 163.164 158.29C162.963 158.089 162.862 157.848 162.862 157.568C162.862 157.288 162.963 157.047 163.164 156.847C163.364 156.646 163.605 156.545 163.885 156.545C164.165 156.545 164.406 156.646 164.607 156.847C164.808 157.047 164.908 157.288 164.908 157.568C164.908 157.754 164.861 157.924 164.766 158.08C164.675 158.235 164.552 158.36 164.397 158.455C164.245 158.545 164.075 158.591 163.885 158.591Z" fill="white"/>
<path d="M271.115 203.119C270.501 203.119 270.007 202.943 269.632 202.591C269.257 202.236 269.011 201.724 268.895 201.057C268.778 200.386 268.797 199.58 268.95 198.636C269.104 197.699 269.351 196.896 269.692 196.229C270.033 195.558 270.449 195.045 270.94 194.69C271.435 194.332 271.987 194.153 272.598 194.153C273.206 194.153 273.699 194.332 274.077 194.69C274.455 195.045 274.705 195.558 274.827 196.229C274.952 196.896 274.936 197.699 274.78 198.636C274.621 199.577 274.371 200.382 274.03 201.053C273.689 201.72 273.27 202.232 272.773 202.587C272.278 202.942 271.726 203.119 271.115 203.119ZM271.222 202.403C271.892 202.403 272.473 202.077 272.964 201.423C273.459 200.77 273.805 199.841 274.004 198.636C274.135 197.849 274.162 197.173 274.085 196.608C274.011 196.043 273.839 195.609 273.57 195.308C273.3 195.007 272.942 194.857 272.496 194.857C271.828 194.857 271.249 195.186 270.757 195.845C270.266 196.501 269.92 197.432 269.722 198.636C269.591 199.423 269.563 200.098 269.636 200.661C269.71 201.223 269.881 201.655 270.148 201.956C270.415 202.254 270.773 202.403 271.222 202.403ZM279.847 194.153C280.216 194.156 280.563 194.23 280.886 194.375C281.21 194.52 281.484 194.753 281.709 195.074C281.936 195.395 282.088 195.82 282.165 196.348C282.241 196.876 282.216 197.527 282.088 198.3C281.972 199.007 281.804 199.655 281.585 200.243C281.366 200.831 281.098 201.341 280.78 201.773C280.464 202.202 280.101 202.534 279.689 202.77C279.28 203.003 278.825 203.119 278.325 203.119C277.859 203.119 277.459 203.021 277.124 202.825C276.791 202.629 276.538 202.358 276.365 202.011C276.192 201.662 276.114 201.259 276.131 200.801H276.893C276.888 201.273 277.001 201.658 277.234 201.956C277.47 202.254 277.839 202.403 278.342 202.403C279.058 202.403 279.678 202.075 280.2 201.419C280.726 200.76 281.094 199.803 281.304 198.547L281.244 198.589C281.065 198.845 280.851 199.067 280.601 199.254C280.354 199.442 280.084 199.587 279.791 199.689C279.501 199.791 279.202 199.842 278.892 199.842C278.398 199.842 277.966 199.717 277.597 199.467C277.227 199.214 276.955 198.871 276.778 198.436C276.605 198.001 276.565 197.507 276.659 196.953C276.75 196.442 276.943 195.973 277.239 195.547C277.534 195.121 277.905 194.781 278.351 194.528C278.8 194.273 279.298 194.148 279.847 194.153ZM279.825 194.869C279.442 194.869 279.08 194.967 278.739 195.163C278.398 195.357 278.109 195.618 277.874 195.947C277.638 196.274 277.487 196.641 277.422 197.047C277.359 197.43 277.386 197.78 277.503 198.095C277.619 198.411 277.807 198.662 278.065 198.849C278.327 199.034 278.642 199.126 279.011 199.126C279.31 199.126 279.597 199.067 279.872 198.947C280.148 198.825 280.398 198.661 280.622 198.453C280.847 198.246 281.03 198.009 281.172 197.741C281.314 197.474 281.398 197.195 281.423 196.902C281.457 196.51 281.415 196.161 281.295 195.854C281.176 195.547 280.991 195.307 280.741 195.134C280.491 194.957 280.186 194.869 279.825 194.869ZM284.048 201.688C283.875 201.688 283.732 201.628 283.618 201.509C283.504 201.389 283.446 201.244 283.443 201.074C283.446 200.903 283.509 200.761 283.631 200.648C283.756 200.531 283.902 200.473 284.07 200.473C284.237 200.473 284.381 200.533 284.5 200.652C284.622 200.768 284.679 200.909 284.67 201.074C284.668 201.187 284.638 201.291 284.581 201.385C284.524 201.479 284.449 201.553 284.355 201.607C284.261 201.661 284.159 201.688 284.048 201.688ZM284.781 197.26C284.608 197.26 284.464 197.2 284.351 197.081C284.237 196.962 284.179 196.817 284.176 196.646C284.179 196.476 284.241 196.334 284.364 196.22C284.489 196.104 284.635 196.045 284.803 196.045C284.97 196.045 285.114 196.105 285.233 196.224C285.355 196.341 285.412 196.482 285.403 196.646C285.401 196.76 285.371 196.864 285.314 196.957C285.257 197.051 285.182 197.125 285.088 197.179C284.994 197.233 284.892 197.26 284.781 197.26ZM286.321 203L286.423 202.416L289.798 199.212C290.238 198.791 290.598 198.432 290.876 198.134C291.154 197.832 291.368 197.557 291.515 197.307C291.663 197.054 291.76 196.791 291.805 196.518C291.859 196.186 291.831 195.896 291.72 195.649C291.612 195.399 291.437 195.205 291.196 195.065C290.957 194.926 290.667 194.857 290.326 194.857C289.968 194.857 289.64 194.933 289.342 195.087C289.044 195.24 288.795 195.452 288.596 195.722C288.4 195.989 288.272 196.294 288.213 196.638H287.45C287.529 196.155 287.713 195.727 288 195.355C288.289 194.98 288.647 194.686 289.074 194.473C289.5 194.26 289.958 194.153 290.45 194.153C290.939 194.153 291.353 194.259 291.694 194.469C292.035 194.676 292.282 194.959 292.436 195.317C292.589 195.675 292.629 196.075 292.555 196.518C292.498 196.842 292.389 197.155 292.227 197.456C292.065 197.754 291.816 198.088 291.481 198.457C291.146 198.827 290.693 199.278 290.122 199.812L287.561 202.229L287.548 202.284H291.865L291.745 203H286.321ZM297.787 194.273L296.338 203H295.541L296.849 195.108H296.798L294.527 196.467L294.668 195.641L296.956 194.273H297.787Z" fill="black"/>
</svg>
