<svg width="180" height="80" viewBox="0 0 180 80" fill="none" xmlns="http://www.w3.org/2000/svg">
<path d="M0 27.5C0 12.3122 12.3122 0 27.5 0H180V20C180 39.33 164.33 55 145 55H27.5C12.3122 55 0 42.6878 0 27.5Z" fill="#2788FF"/>
<path d="M52.4091 33.5V21.8636H59.3864V23.1136H53.8182V27.0455H58.8636V28.2955H53.8182V33.5H52.4091ZM64.6261 33.7045C64.073 33.7045 63.5712 33.6004 63.1204 33.392C62.6696 33.1799 62.3117 32.875 62.0465 32.4773C61.7814 32.0758 61.6488 31.5909 61.6488 31.0227C61.6488 30.5227 61.7473 30.1174 61.9443 29.8068C62.1412 29.4924 62.4045 29.2462 62.734 29.0682C63.0636 28.8902 63.4272 28.7576 63.8249 28.6705C64.2265 28.5795 64.6299 28.5076 65.0352 28.4545C65.5655 28.3864 65.9954 28.3352 66.3249 28.3011C66.6583 28.2633 66.9007 28.2008 67.0522 28.1136C67.2075 28.0265 67.2852 27.875 67.2852 27.6591V27.6136C67.2852 27.053 67.1318 26.6174 66.8249 26.3068C66.5219 25.9962 66.0617 25.8409 65.4443 25.8409C64.8041 25.8409 64.3022 25.9811 63.9386 26.2614C63.5749 26.5417 63.3193 26.8409 63.1715 27.1591L61.8988 26.7045C62.1261 26.1742 62.4291 25.7614 62.8079 25.4659C63.1905 25.1667 63.6071 24.9583 64.0579 24.8409C64.5124 24.7197 64.9594 24.6591 65.3988 24.6591C65.6791 24.6591 66.0011 24.6932 66.3647 24.7614C66.7321 24.8258 67.0863 24.9602 67.4272 25.1648C67.7719 25.3693 68.0579 25.678 68.2852 26.0909C68.5124 26.5038 68.6261 27.0568 68.6261 27.75V33.5H67.2852V32.3182H67.217C67.1261 32.5076 66.9746 32.7102 66.7624 32.9261C66.5503 33.142 66.2681 33.3258 65.9159 33.4773C65.5636 33.6288 65.1337 33.7045 64.6261 33.7045ZM64.8306 32.5C65.3609 32.5 65.8079 32.3958 66.1715 32.1875C66.539 31.9792 66.8155 31.7102 67.0011 31.3807C67.1905 31.0511 67.2852 30.7045 67.2852 30.3409V29.1136C67.2284 29.1818 67.1034 29.2443 66.9102 29.3011C66.7208 29.3542 66.5011 29.4015 66.2511 29.4432C66.0049 29.4811 65.7643 29.5152 65.5295 29.5455C65.2984 29.572 65.1109 29.5947 64.967 29.6136C64.6185 29.6591 64.2927 29.733 63.9897 29.8352C63.6905 29.9337 63.448 30.0833 63.2624 30.2841C63.0806 30.4811 62.9897 30.75 62.9897 31.0909C62.9897 31.5568 63.1621 31.9091 63.5068 32.1477C63.8552 32.3826 64.2965 32.5 64.8306 32.5ZM72.8544 28.25V33.5H71.5135V24.7727H72.809V26.1364H72.9226C73.1272 25.6932 73.4378 25.3371 73.8544 25.0682C74.2711 24.7955 74.809 24.6591 75.4681 24.6591C76.059 24.6591 76.576 24.7803 77.0192 25.0227C77.4624 25.2614 77.8071 25.625 78.0533 26.1136C78.2995 26.5985 78.4226 27.2121 78.4226 27.9545V33.5H77.0817V28.0455C77.0817 27.3598 76.9037 26.8258 76.5476 26.4432C76.1916 26.0568 75.7029 25.8636 75.0817 25.8636C74.6537 25.8636 74.2711 25.9564 73.934 26.142C73.6006 26.3277 73.3374 26.5985 73.1442 26.9545C72.951 27.3106 72.8544 27.7424 72.8544 28.25ZM85.1084 24.7727V25.9091H80.5856V24.7727H85.1084ZM81.9038 22.6818H83.2447V31C83.2447 31.3788 83.2996 31.6629 83.4095 31.8523C83.5231 32.0379 83.6671 32.1629 83.8413 32.2273C84.0193 32.2879 84.2068 32.3182 84.4038 32.3182C84.5515 32.3182 84.6727 32.3106 84.7674 32.2955C84.8621 32.2765 84.9379 32.2614 84.9947 32.25L85.2674 33.4545C85.1765 33.4886 85.0496 33.5227 84.8868 33.5568C84.7239 33.5947 84.5174 33.6136 84.2674 33.6136C83.8887 33.6136 83.5174 33.5322 83.1538 33.3693C82.794 33.2064 82.4947 32.9583 82.2561 32.625C82.0212 32.2917 81.9038 31.8712 81.9038 31.3636V22.6818ZM90.1336 33.7045C89.5805 33.7045 89.0787 33.6004 88.6279 33.392C88.1771 33.1799 87.8192 32.875 87.554 32.4773C87.2889 32.0758 87.1563 31.5909 87.1563 31.0227C87.1563 30.5227 87.2548 30.1174 87.4518 29.8068C87.6487 29.4924 87.912 29.2462 88.2415 29.0682C88.5711 28.8902 88.9347 28.7576 89.3324 28.6705C89.734 28.5795 90.1374 28.5076 90.5427 28.4545C91.073 28.3864 91.5029 28.3352 91.8324 28.3011C92.1658 28.2633 92.4082 28.2008 92.5597 28.1136C92.715 28.0265 92.7927 27.875 92.7927 27.6591V27.6136C92.7927 27.053 92.6393 26.6174 92.3324 26.3068C92.0294 25.9962 91.5692 25.8409 90.9518 25.8409C90.3116 25.8409 89.8097 25.9811 89.4461 26.2614C89.0824 26.5417 88.8268 26.8409 88.679 27.1591L87.4063 26.7045C87.6336 26.1742 87.9366 25.7614 88.3154 25.4659C88.698 25.1667 89.1146 24.9583 89.5654 24.8409C90.0199 24.7197 90.4669 24.6591 90.9063 24.6591C91.1866 24.6591 91.5086 24.6932 91.8722 24.7614C92.2396 24.8258 92.5938 24.9602 92.9347 25.1648C93.2794 25.3693 93.5654 25.678 93.7927 26.0909C94.0199 26.5038 94.1336 27.0568 94.1336 27.75V33.5H92.7927V32.3182H92.7245C92.6336 32.5076 92.4821 32.7102 92.2699 32.9261C92.0578 33.142 91.7756 33.3258 91.4234 33.4773C91.0711 33.6288 90.6412 33.7045 90.1336 33.7045ZM90.3381 32.5C90.8684 32.5 91.3154 32.3958 91.679 32.1875C92.0465 31.9792 92.323 31.7102 92.5086 31.3807C92.698 31.0511 92.7927 30.7045 92.7927 30.3409V29.1136C92.7359 29.1818 92.6109 29.2443 92.4177 29.3011C92.2283 29.3542 92.0086 29.4015 91.7586 29.4432C91.5124 29.4811 91.2718 29.5152 91.037 29.5455C90.8059 29.572 90.6184 29.5947 90.4745 29.6136C90.126 29.6591 89.8002 29.733 89.4972 29.8352C89.198 29.9337 88.9555 30.0833 88.7699 30.2841C88.5881 30.4811 88.4972 30.75 88.4972 31.0909C88.4972 31.5568 88.6696 31.9091 89.0143 32.1477C89.3627 32.3826 89.804 32.5 90.3381 32.5ZM103.203 26.7273L101.998 27.0682C101.923 26.8674 101.811 26.6723 101.663 26.483C101.519 26.2898 101.322 26.1307 101.072 26.0057C100.822 25.8807 100.502 25.8182 100.112 25.8182C99.5778 25.8182 99.1328 25.9413 98.7767 26.1875C98.4244 26.4299 98.2483 26.7386 98.2483 27.1136C98.2483 27.447 98.3695 27.7102 98.6119 27.9034C98.8544 28.0966 99.2331 28.2576 99.7483 28.3864L101.044 28.7045C101.824 28.8939 102.405 29.1837 102.788 29.5739C103.171 29.9602 103.362 30.4583 103.362 31.0682C103.362 31.5682 103.218 32.0152 102.93 32.4091C102.646 32.803 102.248 33.1136 101.737 33.3409C101.226 33.5682 100.631 33.6818 99.9528 33.6818C99.0627 33.6818 98.3259 33.4886 97.7426 33.1023C97.1593 32.7159 96.79 32.1515 96.6347 31.4091L97.9074 31.0909C98.0286 31.5606 98.2578 31.9129 98.5949 32.1477C98.9358 32.3826 99.3809 32.5 99.9301 32.5C100.555 32.5 101.051 32.3674 101.419 32.1023C101.79 31.8333 101.976 31.5114 101.976 31.1364C101.976 30.8333 101.87 30.5795 101.657 30.375C101.445 30.1667 101.12 30.0114 100.68 29.9091L99.2256 29.5682C98.4263 29.3788 97.8392 29.0852 97.4642 28.6875C97.093 28.286 96.9074 27.7841 96.9074 27.1818C96.9074 26.6894 97.0456 26.2538 97.3222 25.875C97.6025 25.4962 97.9831 25.1989 98.4642 24.983C98.9491 24.767 99.4983 24.6591 100.112 24.6591C100.976 24.6591 101.654 24.8485 102.146 25.2273C102.642 25.6061 102.995 26.1061 103.203 26.7273ZM109.616 24.7727V25.9091H105.093V24.7727H109.616ZM106.411 22.6818H107.752V31C107.752 31.3788 107.807 31.6629 107.917 31.8523C108.031 32.0379 108.175 32.1629 108.349 32.2273C108.527 32.2879 108.714 32.3182 108.911 32.3182C109.059 32.3182 109.18 32.3106 109.275 32.2955C109.37 32.2765 109.445 32.2614 109.502 32.25L109.775 33.4545C109.684 33.4886 109.557 33.5227 109.394 33.5568C109.231 33.5947 109.025 33.6136 108.775 33.6136C108.396 33.6136 108.025 33.5322 107.661 33.3693C107.301 33.2064 107.002 32.9583 106.764 32.625C106.529 32.2917 106.411 31.8712 106.411 31.3636V22.6818ZM112.073 33.5V24.7727H113.414V33.5H112.073ZM112.755 23.3182C112.493 23.3182 112.268 23.2292 112.079 23.0511C111.893 22.8731 111.8 22.6591 111.8 22.4091C111.8 22.1591 111.893 21.9451 112.079 21.767C112.268 21.589 112.493 21.5 112.755 21.5C113.016 21.5 113.24 21.589 113.425 21.767C113.615 21.9451 113.709 22.1591 113.709 22.4091C113.709 22.6591 113.615 22.8731 113.425 23.0511C113.24 23.2292 113.016 23.3182 112.755 23.3182ZM119.855 33.6818C119.037 33.6818 118.332 33.4886 117.742 33.1023C117.151 32.7159 116.696 32.1837 116.378 31.5057C116.06 30.8277 115.901 30.053 115.901 29.1818C115.901 28.2955 116.064 27.5133 116.389 26.8352C116.719 26.1534 117.177 25.6212 117.764 25.2386C118.355 24.8523 119.045 24.6591 119.832 24.6591C120.446 24.6591 120.999 24.7727 121.492 25C121.984 25.2273 122.387 25.5455 122.702 25.9545C123.016 26.3636 123.211 26.8409 123.287 27.3864H121.946C121.844 26.9886 121.617 26.6364 121.264 26.3295C120.916 26.0189 120.446 25.8636 119.855 25.8636C119.332 25.8636 118.874 26 118.48 26.2727C118.09 26.5417 117.785 26.9223 117.565 27.4148C117.35 27.9034 117.242 28.4773 117.242 29.1364C117.242 29.8106 117.348 30.3977 117.56 30.8977C117.776 31.3977 118.079 31.786 118.469 32.0625C118.863 32.339 119.325 32.4773 119.855 32.4773C120.204 32.4773 120.52 32.4167 120.804 32.2955C121.088 32.1742 121.329 32 121.526 31.7727C121.723 31.5455 121.863 31.2727 121.946 30.9545H123.287C123.211 31.4697 123.024 31.9337 122.725 32.3466C122.429 32.7557 122.037 33.0814 121.548 33.3239C121.064 33.5625 120.499 33.6818 119.855 33.6818ZM127.46 21.8636L127.346 30.2273H126.028L125.915 21.8636H127.46ZM126.687 33.5909C126.407 33.5909 126.166 33.4905 125.966 33.2898C125.765 33.089 125.665 32.8485 125.665 32.5682C125.665 32.2879 125.765 32.0473 125.966 31.8466C126.166 31.6458 126.407 31.5455 126.687 31.5455C126.968 31.5455 127.208 31.6458 127.409 31.8466C127.61 32.0473 127.71 32.2879 127.71 32.5682C127.71 32.7538 127.663 32.9242 127.568 33.0795C127.477 33.2348 127.354 33.3598 127.199 33.4545C127.047 33.5455 126.877 33.5909 126.687 33.5909Z" fill="white"/>
<path d="M150.349 77.1193C149.736 77.1193 149.241 76.9432 148.866 76.5909C148.491 76.2358 148.246 75.7244 148.129 75.0568C148.013 74.3864 148.031 73.5795 148.185 72.6364C148.338 71.6989 148.585 70.8963 148.926 70.2287C149.267 69.5582 149.683 69.0455 150.175 68.6903C150.669 68.3324 151.222 68.1534 151.832 68.1534C152.44 68.1534 152.933 68.3324 153.311 68.6903C153.689 69.0455 153.939 69.5582 154.061 70.2287C154.186 70.8963 154.17 71.6989 154.014 72.6364C153.855 73.5767 153.605 74.3821 153.264 75.0526C152.923 75.7202 152.504 76.2315 152.007 76.5866C151.513 76.9418 150.96 77.1193 150.349 77.1193ZM150.456 76.4034C151.126 76.4034 151.707 76.0767 152.199 75.4233C152.693 74.7699 153.04 73.8409 153.239 72.6364C153.369 71.8494 153.396 71.1733 153.32 70.608C153.246 70.0426 153.074 69.6094 152.804 69.3082C152.534 69.0071 152.176 68.8565 151.73 68.8565C151.063 68.8565 150.483 69.1861 149.991 69.8452C149.5 70.5014 149.155 71.4318 148.956 72.6364C148.825 73.4233 148.797 74.098 148.871 74.6605C148.945 75.223 149.115 75.6548 149.382 75.956C149.649 76.2543 150.007 76.4034 150.456 76.4034ZM159.081 68.1534C159.45 68.1562 159.797 68.2301 160.121 68.375C160.445 68.5199 160.719 68.7528 160.943 69.0739C161.17 69.3949 161.322 69.8196 161.399 70.348C161.476 70.8764 161.45 71.527 161.322 72.2997C161.206 73.0071 161.038 73.6548 160.82 74.2429C160.601 74.831 160.332 75.3409 160.014 75.7727C159.699 76.2017 159.335 76.5341 158.923 76.7699C158.514 77.0028 158.06 77.1193 157.56 77.1193C157.094 77.1193 156.693 77.0213 156.358 76.8253C156.026 76.6293 155.773 76.358 155.599 76.0114C155.426 75.6619 155.348 75.2585 155.365 74.8011H156.128C156.122 75.2727 156.236 75.6577 156.469 75.956C156.705 76.2543 157.074 76.4034 157.577 76.4034C158.293 76.4034 158.912 76.0753 159.435 75.419C159.96 74.7599 160.328 73.8026 160.538 72.5469L160.479 72.5895C160.3 72.8452 160.085 73.0668 159.835 73.2543C159.588 73.4418 159.318 73.5866 159.026 73.6889C158.736 73.7912 158.436 73.8423 158.126 73.8423C157.632 73.8423 157.2 73.7173 156.831 73.4673C156.462 73.2145 156.189 72.8707 156.013 72.4361C155.839 72.0014 155.8 71.5071 155.893 70.9531C155.984 70.4418 156.178 69.973 156.473 69.5469C156.768 69.1207 157.139 68.7812 157.585 68.5284C158.034 68.2727 158.533 68.1477 159.081 68.1534ZM159.06 68.8693C158.676 68.8693 158.314 68.9673 157.973 69.1634C157.632 69.3565 157.344 69.6179 157.108 69.9474C156.872 70.2741 156.722 70.6406 156.656 71.0469C156.594 71.4304 156.621 71.7798 156.737 72.0952C156.854 72.4105 157.041 72.6619 157.3 72.8494C157.561 73.0341 157.876 73.1264 158.246 73.1264C158.544 73.1264 158.831 73.0668 159.107 72.9474C159.382 72.8253 159.632 72.6605 159.857 72.4531C160.081 72.2457 160.264 72.0085 160.406 71.7415C160.548 71.4744 160.632 71.1946 160.658 70.902C160.692 70.5099 160.649 70.1605 160.53 69.8537C160.411 69.5469 160.226 69.3068 159.976 69.1335C159.726 68.9574 159.42 68.8693 159.06 68.8693ZM163.283 75.6875C163.109 75.6875 162.966 75.6278 162.852 75.5085C162.739 75.3892 162.68 75.2443 162.678 75.0739C162.68 74.9034 162.743 74.7614 162.865 74.6477C162.99 74.5312 163.136 74.473 163.304 74.473C163.472 74.473 163.615 74.5327 163.734 74.652C163.857 74.7685 163.913 74.9091 163.905 75.0739C163.902 75.1875 163.872 75.2912 163.815 75.3849C163.759 75.4787 163.683 75.5526 163.589 75.6065C163.496 75.6605 163.393 75.6875 163.283 75.6875ZM164.016 71.2599C163.842 71.2599 163.699 71.2003 163.585 71.081C163.472 70.9616 163.413 70.8168 163.411 70.6463C163.413 70.4759 163.476 70.3338 163.598 70.2202C163.723 70.1037 163.869 70.0455 164.037 70.0455C164.205 70.0455 164.348 70.1051 164.467 70.2244C164.589 70.3409 164.646 70.4815 164.638 70.6463C164.635 70.7599 164.605 70.8636 164.548 70.9574C164.491 71.0511 164.416 71.125 164.322 71.179C164.229 71.233 164.126 71.2599 164.016 71.2599ZM165.555 77L165.657 76.4162L169.032 73.2116C169.473 72.7912 169.832 72.4318 170.11 72.1335C170.389 71.8324 170.602 71.5568 170.75 71.3068C170.897 71.054 170.994 70.7912 171.039 70.5185C171.093 70.1861 171.065 69.8963 170.954 69.6491C170.846 69.3991 170.672 69.2045 170.43 69.0653C170.191 68.9261 169.902 68.8565 169.561 68.8565C169.203 68.8565 168.875 68.9332 168.576 69.0866C168.278 69.2401 168.029 69.4517 167.831 69.7216C167.635 69.9886 167.507 70.294 167.447 70.6378H166.684C166.764 70.1548 166.947 69.7273 167.234 69.3551C167.524 68.9801 167.882 68.6861 168.308 68.473C168.734 68.2599 169.193 68.1534 169.684 68.1534C170.173 68.1534 170.588 68.2585 170.929 68.4688C171.27 68.6761 171.517 68.9588 171.67 69.3168C171.824 69.6747 171.863 70.0753 171.789 70.5185C171.733 70.8423 171.623 71.1548 171.461 71.456C171.299 71.7543 171.051 72.0881 170.716 72.4574C170.38 72.8267 169.927 73.2784 169.356 73.8125L166.795 76.2287L166.782 76.2841H171.099L170.98 77H165.555ZM175.73 77.1193C175.19 77.1193 174.722 77.0227 174.324 76.8295C173.926 76.6335 173.631 76.3636 173.438 76.0199C173.244 75.6733 173.179 75.2727 173.241 74.8182H174.038C174.001 75.1335 174.048 75.4105 174.179 75.6491C174.31 75.8878 174.509 76.0739 174.776 76.2074C175.045 76.3381 175.368 76.4034 175.743 76.4034C176.141 76.4034 176.511 76.3295 176.855 76.1818C177.199 76.0312 177.486 75.8224 177.716 75.5554C177.949 75.2855 178.092 74.973 178.146 74.6179C178.2 74.277 178.161 73.9759 178.027 73.7145C177.896 73.4503 177.679 73.2443 177.375 73.0966C177.071 72.9489 176.688 72.875 176.224 72.875H175.705L175.815 72.1591H176.305C176.683 72.1591 177.031 72.0895 177.349 71.9503C177.668 71.8082 177.933 71.6094 178.146 71.3537C178.359 71.0952 178.494 70.7912 178.551 70.4418C178.602 70.1293 178.58 69.8551 178.483 69.6193C178.389 69.3807 178.227 69.1946 177.997 69.0611C177.767 68.9247 177.476 68.8565 177.124 68.8565C176.786 68.8565 176.459 68.9219 176.143 69.0526C175.828 69.1832 175.561 69.3679 175.342 69.6065C175.124 69.8452 174.986 70.1278 174.929 70.4545H174.158C174.24 70.0028 174.428 69.6037 174.72 69.2571C175.013 68.9105 175.371 68.6406 175.794 68.4474C176.217 68.2514 176.67 68.1534 177.153 68.1534C177.67 68.1534 178.101 68.2614 178.445 68.4773C178.791 68.6932 179.04 68.9787 179.19 69.3338C179.341 69.6889 179.381 70.0781 179.31 70.5014C179.233 70.9901 179.03 71.4062 178.7 71.75C178.371 72.0938 177.966 72.3366 177.486 72.4787V72.5213C178.026 72.6321 178.422 72.8864 178.675 73.2841C178.93 73.6818 179.011 74.1577 178.918 74.7116C178.841 75.1889 178.655 75.6094 178.359 75.973C178.064 76.3338 177.69 76.6151 177.239 76.8168C176.787 77.0185 176.284 77.1193 175.73 77.1193Z" fill="black"/>
</svg>
