<svg width="460" height="290" viewBox="0 0 460 290" fill="none" xmlns="http://www.w3.org/2000/svg">
<g clip-path="url(#clip0_528_1590)">
<rect width="460" height="290" rx="40" fill="#383838"/>
<path d="M401 192C401 177.088 413.088 165 428 165H482C496.912 165 509 177.088 509 192C509 206.912 496.912 219 482 219H428C413.088 219 401 206.912 401 192Z" fill="#C1DDFF"/>
<path d="M441.4 199V196.76L441.3 196.34V192.52C441.3 191.707 441.06 191.08 440.58 190.64C440.113 190.187 439.407 189.96 438.46 189.96C437.833 189.96 437.22 190.067 436.62 190.28C436.02 190.48 435.513 190.753 435.1 191.1L434.3 189.66C434.847 189.22 435.5 188.887 436.26 188.66C437.033 188.42 437.84 188.3 438.68 188.3C440.133 188.3 441.253 188.653 442.04 189.36C442.827 190.067 443.22 191.147 443.22 192.6V199H441.4ZM437.92 199.12C437.133 199.12 436.44 198.987 435.84 198.72C435.253 198.453 434.8 198.087 434.48 197.62C434.16 197.14 434 196.6 434 196C434 195.427 434.133 194.907 434.4 194.44C434.68 193.973 435.127 193.6 435.74 193.32C436.367 193.04 437.207 192.9 438.26 192.9H441.62V194.28H438.34C437.38 194.28 436.733 194.44 436.4 194.76C436.067 195.08 435.9 195.467 435.9 195.92C435.9 196.44 436.107 196.86 436.52 197.18C436.933 197.487 437.507 197.64 438.24 197.64C438.96 197.64 439.587 197.48 440.12 197.16C440.667 196.84 441.06 196.373 441.3 195.76L441.68 197.08C441.427 197.707 440.98 198.207 440.34 198.58C439.7 198.94 438.893 199.12 437.92 199.12ZM450.233 199.12C449.326 199.12 448.526 198.953 447.833 198.62C447.153 198.287 446.62 197.78 446.233 197.1C445.86 196.407 445.673 195.54 445.673 194.5V188.4H447.593V194.28C447.593 195.32 447.84 196.1 448.333 196.62C448.84 197.14 449.546 197.4 450.453 197.4C451.12 197.4 451.7 197.267 452.193 197C452.686 196.72 453.066 196.32 453.333 195.8C453.6 195.267 453.733 194.627 453.733 193.88V188.4H455.653V199H453.833V196.14L454.133 196.9C453.786 197.607 453.266 198.153 452.573 198.54C451.88 198.927 451.1 199.12 450.233 199.12ZM461.948 199.12C460.882 199.12 460.055 198.833 459.468 198.26C458.882 197.687 458.588 196.867 458.588 195.8V186.08H460.508V195.72C460.508 196.293 460.648 196.733 460.928 197.04C461.222 197.347 461.635 197.5 462.168 197.5C462.768 197.5 463.268 197.333 463.668 197L464.268 198.38C463.975 198.633 463.622 198.82 463.208 198.94C462.808 199.06 462.388 199.12 461.948 199.12ZM456.788 189.98V188.4H463.548V189.98H456.788ZM469.778 199.12C468.711 199.12 467.765 198.887 466.938 198.42C466.111 197.953 465.458 197.313 464.978 196.5C464.498 195.673 464.258 194.74 464.258 193.7C464.258 192.647 464.498 191.713 464.978 190.9C465.458 190.087 466.111 189.453 466.938 189C467.765 188.533 468.711 188.3 469.778 188.3C470.831 188.3 471.771 188.533 472.598 189C473.438 189.453 474.091 190.087 474.558 190.9C475.038 191.7 475.278 192.633 475.278 193.7C475.278 194.753 475.038 195.687 474.558 196.5C474.091 197.313 473.438 197.953 472.598 198.42C471.771 198.887 470.831 199.12 469.778 199.12ZM469.778 197.44C470.458 197.44 471.065 197.287 471.598 196.98C472.145 196.673 472.571 196.24 472.878 195.68C473.185 195.107 473.338 194.447 473.338 193.7C473.338 192.94 473.185 192.287 472.878 191.74C472.571 191.18 472.145 190.747 471.598 190.44C471.065 190.133 470.458 189.98 469.778 189.98C469.098 189.98 468.491 190.133 467.958 190.44C467.425 190.747 466.998 191.18 466.678 191.74C466.358 192.287 466.198 192.94 466.198 193.7C466.198 194.447 466.358 195.107 466.678 195.68C466.998 196.24 467.425 196.673 467.958 196.98C468.491 197.287 469.098 197.44 469.778 197.44Z" fill="black"/>
<path d="M-25 118C-25 103.088 -12.9117 91 2 91H53C67.9117 91 80 103.088 80 118C80 132.912 67.9117 145 53 145H2C-12.9117 145 -25 132.912 -25 118Z" fill="#CCFFD8"/>
<path d="M-10.04 125.12C-11.1067 125.12 -11.9333 124.833 -12.52 124.26C-13.1067 123.687 -13.4 122.867 -13.4 121.8V112.08H-11.48V121.72C-11.48 122.293 -11.34 122.733 -11.06 123.04C-10.7667 123.347 -10.3533 123.5 -9.82 123.5C-9.22 123.5 -8.72 123.333 -8.32 123L-7.72 124.38C-8.01333 124.633 -8.36667 124.82 -8.78 124.94C-9.18 125.06 -9.6 125.12 -10.04 125.12ZM-15.2 115.98V114.4H-8.44V115.98H-15.2ZM-2.03031 125.12C-3.16365 125.12 -4.16365 124.887 -5.03031 124.42C-5.88365 123.953 -6.55031 123.313 -7.03031 122.5C-7.49698 121.687 -7.73031 120.753 -7.73031 119.7C-7.73031 118.647 -7.50365 117.713 -7.05031 116.9C-6.58365 116.087 -5.95031 115.453 -5.15031 115C-4.33698 114.533 -3.42365 114.3 -2.41031 114.3C-1.38365 114.3 -0.476979 114.527 0.309688 114.98C1.09635 115.433 1.70969 116.073 2.14969 116.9C2.60302 117.713 2.82969 118.667 2.82969 119.76C2.82969 119.84 2.82302 119.933 2.80969 120.04C2.80969 120.147 2.80302 120.247 2.78969 120.34H-6.23031V118.96H1.78969L1.00969 119.44C1.02302 118.76 0.883021 118.153 0.589688 117.62C0.296355 117.087 -0.110312 116.673 -0.630312 116.38C-1.13698 116.073 -1.73031 115.92 -2.41031 115.92C-3.07698 115.92 -3.67031 116.073 -4.19031 116.38C-4.71031 116.673 -5.11698 117.093 -5.41031 117.64C-5.70365 118.173 -5.85031 118.787 -5.85031 119.48V119.8C-5.85031 120.507 -5.69031 121.14 -5.37031 121.7C-5.03698 122.247 -4.57698 122.673 -3.99031 122.98C-3.40365 123.287 -2.73031 123.44 -1.97031 123.44C-1.34365 123.44 -0.776979 123.333 -0.270312 123.12C0.249688 122.907 0.703021 122.587 1.08969 122.16L2.14969 123.4C1.66969 123.96 1.06969 124.387 0.349688 124.68C-0.356979 124.973 -1.15031 125.12 -2.03031 125.12ZM17.7558 114.3C18.6091 114.3 19.3624 114.467 20.0158 114.8C20.6691 115.133 21.1758 115.64 21.5358 116.32C21.9091 117 22.0958 117.86 22.0958 118.9V125H20.1758V119.12C20.1758 118.093 19.9358 117.32 19.4558 116.8C18.9758 116.28 18.3024 116.02 17.4358 116.02C16.7958 116.02 16.2358 116.153 15.7558 116.42C15.2758 116.687 14.9024 117.08 14.6358 117.6C14.3824 118.12 14.2558 118.767 14.2558 119.54V125H12.3358V119.12C12.3358 118.093 12.0958 117.32 11.6158 116.8C11.1491 116.28 10.4758 116.02 9.59578 116.02C8.96912 116.02 8.41578 116.153 7.93578 116.42C7.45578 116.687 7.08245 117.08 6.81578 117.6C6.54911 118.12 6.41578 118.767 6.41578 119.54V125H4.49578V114.4H6.33578V117.22L6.03578 116.5C6.36911 115.807 6.88245 115.267 7.57578 114.88C8.26911 114.493 9.07578 114.3 9.99578 114.3C11.0091 114.3 11.8824 114.553 12.6158 115.06C13.3491 115.553 13.8291 116.307 14.0558 117.32L13.2758 117C13.5958 116.187 14.1558 115.533 14.9558 115.04C15.7558 114.547 16.6891 114.3 17.7558 114.3ZM30.2486 125.12C29.3686 125.12 28.5619 124.92 27.8286 124.52C27.1086 124.107 26.5286 123.5 26.0886 122.7C25.6619 121.9 25.4486 120.9 25.4486 119.7C25.4486 118.5 25.6553 117.5 26.0686 116.7C26.4953 115.9 27.0686 115.3 27.7886 114.9C28.5219 114.5 29.3419 114.3 30.2486 114.3C31.2886 114.3 32.2086 114.527 33.0086 114.98C33.8086 115.433 34.4419 116.067 34.9086 116.88C35.3753 117.68 35.6086 118.62 35.6086 119.7C35.6086 120.78 35.3753 121.727 34.9086 122.54C34.4419 123.353 33.8086 123.987 33.0086 124.44C32.2086 124.893 31.2886 125.12 30.2486 125.12ZM24.6286 128.88V114.4H26.4686V117.26L26.3486 119.72L26.5486 122.18V128.88H24.6286ZM30.0886 123.44C30.7686 123.44 31.3753 123.287 31.9086 122.98C32.4553 122.673 32.8819 122.24 33.1886 121.68C33.5086 121.107 33.6686 120.447 33.6686 119.7C33.6686 118.94 33.5086 118.287 33.1886 117.74C32.8819 117.18 32.4553 116.747 31.9086 116.44C31.3753 116.133 30.7686 115.98 30.0886 115.98C29.4219 115.98 28.8153 116.133 28.2686 116.44C27.7353 116.747 27.3086 117.18 26.9886 117.74C26.6819 118.287 26.5286 118.94 26.5286 119.7C26.5286 120.447 26.6819 121.107 26.9886 121.68C27.3086 122.24 27.7353 122.673 28.2686 122.98C28.8153 123.287 29.4219 123.44 30.0886 123.44ZM37.2614 125V110.16H39.1814V125H37.2614ZM48.4273 125V122.76L48.3273 122.34V118.52C48.3273 117.707 48.0873 117.08 47.6073 116.64C47.1407 116.187 46.434 115.96 45.4873 115.96C44.8607 115.96 44.2473 116.067 43.6473 116.28C43.0473 116.48 42.5407 116.753 42.1273 117.1L41.3273 115.66C41.874 115.22 42.5273 114.887 43.2873 114.66C44.0607 114.42 44.8673 114.3 45.7073 114.3C47.1607 114.3 48.2807 114.653 49.0673 115.36C49.854 116.067 50.2473 117.147 50.2473 118.6V125H48.4273ZM44.9473 125.12C44.1607 125.12 43.4673 124.987 42.8673 124.72C42.2807 124.453 41.8273 124.087 41.5073 123.62C41.1873 123.14 41.0273 122.6 41.0273 122C41.0273 121.427 41.1607 120.907 41.4273 120.44C41.7073 119.973 42.154 119.6 42.7673 119.32C43.394 119.04 44.234 118.9 45.2873 118.9H48.6473V120.28H45.3673C44.4073 120.28 43.7607 120.44 43.4273 120.76C43.094 121.08 42.9273 121.467 42.9273 121.92C42.9273 122.44 43.134 122.86 43.5473 123.18C43.9607 123.487 44.534 123.64 45.2673 123.64C45.9873 123.64 46.614 123.48 47.1473 123.16C47.694 122.84 48.0873 122.373 48.3273 121.76L48.7073 123.08C48.454 123.707 48.0073 124.207 47.3673 124.58C46.7273 124.94 45.9207 125.12 44.9473 125.12ZM56.4405 125.12C55.3738 125.12 54.5471 124.833 53.9605 124.26C53.3738 123.687 53.0805 122.867 53.0805 121.8V112.08H55.0005V121.72C55.0005 122.293 55.1405 122.733 55.4205 123.04C55.7138 123.347 56.1271 123.5 56.6605 123.5C57.2605 123.5 57.7605 123.333 58.1605 123L58.7605 124.38C58.4671 124.633 58.1138 124.82 57.7005 124.94C57.3005 125.06 56.8805 125.12 56.4405 125.12ZM51.2805 115.98V114.4H58.0405V115.98H51.2805ZM64.4502 125.12C63.3168 125.12 62.3168 124.887 61.4502 124.42C60.5968 123.953 59.9302 123.313 59.4502 122.5C58.9835 121.687 58.7502 120.753 58.7502 119.7C58.7502 118.647 58.9768 117.713 59.4302 116.9C59.8968 116.087 60.5302 115.453 61.3302 115C62.1435 114.533 63.0568 114.3 64.0702 114.3C65.0968 114.3 66.0035 114.527 66.7902 114.98C67.5768 115.433 68.1902 116.073 68.6302 116.9C69.0835 117.713 69.3102 118.667 69.3102 119.76C69.3102 119.84 69.3035 119.933 69.2902 120.04C69.2902 120.147 69.2835 120.247 69.2702 120.34H60.2502V118.96H68.2702L67.4902 119.44C67.5035 118.76 67.3635 118.153 67.0702 117.62C66.7768 117.087 66.3702 116.673 65.8502 116.38C65.3435 116.073 64.7502 115.92 64.0702 115.92C63.4035 115.92 62.8102 116.073 62.2902 116.38C61.7702 116.673 61.3635 117.093 61.0702 117.64C60.7768 118.173 60.6302 118.787 60.6302 119.48V119.8C60.6302 120.507 60.7902 121.14 61.1102 121.7C61.4435 122.247 61.9035 122.673 62.4902 122.98C63.0768 123.287 63.7502 123.44 64.5102 123.44C65.1368 123.44 65.7035 123.333 66.2102 123.12C66.7302 122.907 67.1835 122.587 67.5702 122.16L68.6302 123.4C68.1502 123.96 67.5502 124.387 66.8302 124.68C66.1235 124.973 65.3302 125.12 64.4502 125.12Z" fill="black"/>
<path d="M332 117.5C332 102.312 344.312 90 359.5 90H433.5C448.688 90 461 102.312 461 117.5C461 132.688 448.688 145 433.5 145H359.5C344.312 145 332 132.688 332 117.5Z" fill="#A7FF9F"/>
<path d="M374.86 124.62C373.98 124.62 373.14 124.5 372.34 124.26C371.553 124.02 370.933 123.727 370.48 123.38L371.28 121.86C371.733 122.167 372.293 122.427 372.96 122.64C373.627 122.853 374.307 122.96 375 122.96C375.893 122.96 376.533 122.833 376.92 122.58C377.32 122.327 377.52 121.973 377.52 121.52C377.52 121.187 377.4 120.927 377.16 120.74C376.92 120.553 376.6 120.413 376.2 120.32C375.813 120.227 375.38 120.147 374.9 120.08C374.42 120 373.94 119.907 373.46 119.8C372.98 119.68 372.54 119.52 372.14 119.32C371.74 119.107 371.42 118.82 371.18 118.46C370.94 118.087 370.82 117.593 370.82 116.98C370.82 116.34 371 115.78 371.36 115.3C371.72 114.82 372.227 114.453 372.88 114.2C373.547 113.933 374.333 113.8 375.24 113.8C375.933 113.8 376.633 113.887 377.34 114.06C378.06 114.22 378.647 114.453 379.1 114.76L378.28 116.28C377.8 115.96 377.3 115.74 376.78 115.62C376.26 115.5 375.74 115.44 375.22 115.44C374.38 115.44 373.753 115.58 373.34 115.86C372.927 116.127 372.72 116.473 372.72 116.9C372.72 117.26 372.84 117.54 373.08 117.74C373.333 117.927 373.653 118.073 374.04 118.18C374.44 118.287 374.88 118.38 375.36 118.46C375.84 118.527 376.32 118.62 376.8 118.74C377.28 118.847 377.713 119 378.1 119.2C378.5 119.4 378.82 119.68 379.06 120.04C379.313 120.4 379.44 120.88 379.44 121.48C379.44 122.12 379.253 122.673 378.88 123.14C378.507 123.607 377.98 123.973 377.3 124.24C376.62 124.493 375.807 124.62 374.86 124.62ZM385.46 124.62C384.38 124.62 383.413 124.387 382.56 123.92C381.72 123.453 381.06 122.813 380.58 122C380.1 121.187 379.86 120.253 379.86 119.2C379.86 118.147 380.1 117.213 380.58 116.4C381.06 115.587 381.72 114.953 382.56 114.5C383.413 114.033 384.38 113.8 385.46 113.8C386.42 113.8 387.273 113.993 388.02 114.38C388.78 114.753 389.366 115.313 389.78 116.06L388.32 117C387.973 116.48 387.546 116.1 387.04 115.86C386.546 115.607 386.013 115.48 385.44 115.48C384.746 115.48 384.126 115.633 383.58 115.94C383.033 116.247 382.6 116.68 382.28 117.24C381.96 117.787 381.8 118.44 381.8 119.2C381.8 119.96 381.96 120.62 382.28 121.18C382.6 121.74 383.033 122.173 383.58 122.48C384.126 122.787 384.746 122.94 385.44 122.94C386.013 122.94 386.546 122.82 387.04 122.58C387.546 122.327 387.973 121.94 388.32 121.42L389.78 122.34C389.366 123.073 388.78 123.64 388.02 124.04C387.273 124.427 386.42 124.62 385.46 124.62ZM391.265 124.5V113.9H393.105V116.78L392.925 116.06C393.219 115.327 393.712 114.767 394.405 114.38C395.099 113.993 395.952 113.8 396.965 113.8V115.66C396.885 115.647 396.805 115.64 396.725 115.64C396.659 115.64 396.592 115.64 396.525 115.64C395.499 115.64 394.685 115.947 394.085 116.56C393.485 117.173 393.185 118.06 393.185 119.22V124.5H391.265ZM398.332 124.5V113.9H400.252V124.5H398.332ZM399.292 111.86C398.918 111.86 398.605 111.74 398.352 111.5C398.112 111.26 397.992 110.967 397.992 110.62C397.992 110.26 398.112 109.96 398.352 109.72C398.605 109.48 398.918 109.36 399.292 109.36C399.665 109.36 399.972 109.48 400.212 109.72C400.465 109.947 400.592 110.233 400.592 110.58C400.592 110.94 400.472 111.247 400.232 111.5C399.992 111.74 399.678 111.86 399.292 111.86ZM408.538 124.62C407.658 124.62 406.851 124.42 406.118 124.02C405.398 123.607 404.818 123 404.378 122.2C403.951 121.4 403.738 120.4 403.738 119.2C403.738 118 403.944 117 404.358 116.2C404.784 115.4 405.358 114.8 406.078 114.4C406.811 114 407.631 113.8 408.538 113.8C409.578 113.8 410.498 114.027 411.298 114.48C412.098 114.933 412.731 115.567 413.198 116.38C413.664 117.18 413.898 118.12 413.898 119.2C413.898 120.28 413.664 121.227 413.198 122.04C412.731 122.853 412.098 123.487 411.298 123.94C410.498 124.393 409.578 124.62 408.538 124.62ZM402.918 128.38V113.9H404.758V116.76L404.638 119.22L404.838 121.68V128.38H402.918ZM408.378 122.94C409.058 122.94 409.664 122.787 410.198 122.48C410.744 122.173 411.171 121.74 411.478 121.18C411.798 120.607 411.958 119.947 411.958 119.2C411.958 118.44 411.798 117.787 411.478 117.24C411.171 116.68 410.744 116.247 410.198 115.94C409.664 115.633 409.058 115.48 408.378 115.48C407.711 115.48 407.104 115.633 406.558 115.94C406.024 116.247 405.598 116.68 405.278 117.24C404.971 117.787 404.818 118.44 404.818 119.2C404.818 119.947 404.971 120.607 405.278 121.18C405.598 121.74 406.024 122.173 406.558 122.48C407.104 122.787 407.711 122.94 408.378 122.94ZM419.19 124.62C418.124 124.62 417.297 124.333 416.71 123.76C416.124 123.187 415.83 122.367 415.83 121.3V111.58H417.75V121.22C417.75 121.793 417.89 122.233 418.17 122.54C418.464 122.847 418.877 123 419.41 123C420.01 123 420.51 122.833 420.91 122.5L421.51 123.88C421.217 124.133 420.864 124.32 420.45 124.44C420.05 124.56 419.63 124.62 419.19 124.62ZM414.03 115.48V113.9H420.79V115.48H414.03Z" fill="black"/>
<path d="M26 42C26 26.536 38.536 14 54 14H127C142.464 14 155 26.536 155 42C155 57.464 142.464 70 127 70H54C38.536 70 26 57.464 26 42Z" fill="#C1DDFF"/>
<path d="M62.58 38.3C63.4333 38.3 64.1867 38.4667 64.84 38.8C65.4933 39.1333 66 39.64 66.36 40.32C66.7333 41 66.92 41.86 66.92 42.9V49H65V43.12C65 42.0933 64.76 41.32 64.28 40.8C63.8 40.28 63.1267 40.02 62.26 40.02C61.62 40.02 61.06 40.1533 60.58 40.42C60.1 40.6867 59.7267 41.08 59.46 41.6C59.2067 42.12 59.08 42.7667 59.08 43.54V49H57.16V43.12C57.16 42.0933 56.92 41.32 56.44 40.8C55.9733 40.28 55.3 40.02 54.42 40.02C53.7933 40.02 53.24 40.1533 52.76 40.42C52.28 40.6867 51.9067 41.08 51.64 41.6C51.3733 42.12 51.24 42.7667 51.24 43.54V49H49.32V38.4H51.16V41.22L50.86 40.5C51.1933 39.8067 51.7067 39.2667 52.4 38.88C53.0933 38.4933 53.9 38.3 54.82 38.3C55.8333 38.3 56.7067 38.5533 57.44 39.06C58.1733 39.5533 58.6533 40.3067 58.88 41.32L58.1 41C58.42 40.1867 58.98 39.5333 59.78 39.04C60.58 38.5467 61.5133 38.3 62.58 38.3ZM74.1728 49.12C73.0395 49.12 72.0395 48.8867 71.1728 48.42C70.3195 47.9533 69.6528 47.3133 69.1728 46.5C68.7061 45.6867 68.4728 44.7533 68.4728 43.7C68.4728 42.6467 68.6995 41.7133 69.1528 40.9C69.6195 40.0867 70.2528 39.4533 71.0528 39C71.8661 38.5333 72.7795 38.3 73.7928 38.3C74.8195 38.3 75.7261 38.5267 76.5128 38.98C77.2995 39.4333 77.9128 40.0733 78.3528 40.9C78.8061 41.7133 79.0328 42.6667 79.0328 43.76C79.0328 43.84 79.0261 43.9333 79.0128 44.04C79.0128 44.1467 79.0061 44.2467 78.9928 44.34H69.9728V42.96H77.9928L77.2128 43.44C77.2261 42.76 77.0861 42.1533 76.7928 41.62C76.4995 41.0867 76.0928 40.6733 75.5728 40.38C75.0661 40.0733 74.4728 39.92 73.7928 39.92C73.1261 39.92 72.5328 40.0733 72.0128 40.38C71.4928 40.6733 71.0861 41.0933 70.7928 41.64C70.4995 42.1733 70.3528 42.7867 70.3528 43.48V43.8C70.3528 44.5067 70.5128 45.14 70.8328 45.7C71.1661 46.2467 71.6261 46.6733 72.2128 46.98C72.7995 47.2867 73.4728 47.44 74.2328 47.44C74.8595 47.44 75.4261 47.3333 75.9328 47.12C76.4528 46.9067 76.9061 46.5867 77.2928 46.16L78.3528 47.4C77.8728 47.96 77.2728 48.3867 76.5528 48.68C75.8461 48.9733 75.0528 49.12 74.1728 49.12ZM83.7389 49.12C82.8589 49.12 82.0189 49 81.2189 48.76C80.4322 48.52 79.8122 48.2267 79.3589 47.88L80.1589 46.36C80.6122 46.6667 81.1722 46.9267 81.8389 47.14C82.5056 47.3533 83.1856 47.46 83.8789 47.46C84.7722 47.46 85.4122 47.3333 85.7989 47.08C86.1989 46.8267 86.3989 46.4733 86.3989 46.02C86.3989 45.6867 86.2789 45.4267 86.0389 45.24C85.7989 45.0533 85.4789 44.9133 85.0789 44.82C84.6922 44.7267 84.2589 44.6467 83.7789 44.58C83.2989 44.5 82.8189 44.4067 82.3389 44.3C81.8589 44.18 81.4189 44.02 81.0189 43.82C80.6189 43.6067 80.2989 43.32 80.0589 42.96C79.8189 42.5867 79.6989 42.0933 79.6989 41.48C79.6989 40.84 79.8789 40.28 80.2389 39.8C80.5989 39.32 81.1056 38.9533 81.7589 38.7C82.4256 38.4333 83.2122 38.3 84.1189 38.3C84.8122 38.3 85.5122 38.3867 86.2189 38.56C86.9389 38.72 87.5256 38.9533 87.9789 39.26L87.1589 40.78C86.6789 40.46 86.1789 40.24 85.6589 40.12C85.1389 40 84.6189 39.94 84.0989 39.94C83.2589 39.94 82.6322 40.08 82.2189 40.36C81.8056 40.6267 81.5989 40.9733 81.5989 41.4C81.5989 41.76 81.7189 42.04 81.9589 42.24C82.2122 42.4267 82.5322 42.5733 82.9189 42.68C83.3189 42.7867 83.7589 42.88 84.2389 42.96C84.7189 43.0267 85.1989 43.12 85.6789 43.24C86.1589 43.3467 86.5922 43.5 86.9789 43.7C87.3789 43.9 87.6989 44.18 87.9389 44.54C88.1922 44.9 88.3189 45.38 88.3189 45.98C88.3189 46.62 88.1322 47.1733 87.7589 47.64C87.3856 48.1067 86.8589 48.4733 86.1789 48.74C85.4989 48.9933 84.6856 49.12 83.7389 49.12ZM92.7584 49.12C91.8784 49.12 91.0384 49 90.2384 48.76C89.4518 48.52 88.8318 48.2267 88.3784 47.88L89.1784 46.36C89.6318 46.6667 90.1918 46.9267 90.8584 47.14C91.5251 47.3533 92.2051 47.46 92.8984 47.46C93.7918 47.46 94.4318 47.3333 94.8184 47.08C95.2184 46.8267 95.4184 46.4733 95.4184 46.02C95.4184 45.6867 95.2984 45.4267 95.0584 45.24C94.8184 45.0533 94.4984 44.9133 94.0984 44.82C93.7118 44.7267 93.2784 44.6467 92.7984 44.58C92.3184 44.5 91.8384 44.4067 91.3584 44.3C90.8784 44.18 90.4384 44.02 90.0384 43.82C89.6384 43.6067 89.3184 43.32 89.0784 42.96C88.8384 42.5867 88.7184 42.0933 88.7184 41.48C88.7184 40.84 88.8984 40.28 89.2584 39.8C89.6184 39.32 90.1251 38.9533 90.7784 38.7C91.4451 38.4333 92.2318 38.3 93.1384 38.3C93.8318 38.3 94.5318 38.3867 95.2384 38.56C95.9584 38.72 96.5451 38.9533 96.9984 39.26L96.1784 40.78C95.6984 40.46 95.1984 40.24 94.6784 40.12C94.1584 40 93.6384 39.94 93.1184 39.94C92.2784 39.94 91.6518 40.08 91.2384 40.36C90.8251 40.6267 90.6184 40.9733 90.6184 41.4C90.6184 41.76 90.7384 42.04 90.9784 42.24C91.2318 42.4267 91.5518 42.5733 91.9384 42.68C92.3384 42.7867 92.7784 42.88 93.2584 42.96C93.7384 43.0267 94.2184 43.12 94.6984 43.24C95.1784 43.3467 95.6118 43.5 95.9984 43.7C96.3984 43.9 96.7184 44.18 96.9584 44.54C97.2118 44.9 97.3384 45.38 97.3384 45.98C97.3384 46.62 97.1518 47.1733 96.7784 47.64C96.4051 48.1067 95.8784 48.4733 95.1984 48.74C94.5184 48.9933 93.7051 49.12 92.7584 49.12ZM105.318 49V46.76L105.218 46.34V42.52C105.218 41.7067 104.978 41.08 104.498 40.64C104.031 40.1867 103.325 39.96 102.378 39.96C101.751 39.96 101.138 40.0667 100.538 40.28C99.938 40.48 99.4313 40.7533 99.018 41.1L98.218 39.66C98.7646 39.22 99.418 38.8867 100.178 38.66C100.951 38.42 101.758 38.3 102.598 38.3C104.051 38.3 105.171 38.6533 105.958 39.36C106.745 40.0667 107.138 41.1467 107.138 42.6V49H105.318ZM101.838 49.12C101.051 49.12 100.358 48.9867 99.758 48.72C99.1713 48.4533 98.718 48.0867 98.398 47.62C98.078 47.14 97.918 46.6 97.918 46C97.918 45.4267 98.0513 44.9067 98.318 44.44C98.598 43.9733 99.0446 43.6 99.658 43.32C100.285 43.04 101.125 42.9 102.178 42.9H105.538V44.28H102.258C101.298 44.28 100.651 44.44 100.318 44.76C99.9846 45.08 99.818 45.4667 99.818 45.92C99.818 46.44 100.025 46.86 100.438 47.18C100.851 47.4867 101.425 47.64 102.158 47.64C102.878 47.64 103.505 47.48 104.038 47.16C104.585 46.84 104.978 46.3733 105.218 45.76L105.598 47.08C105.345 47.7067 104.898 48.2067 104.258 48.58C103.618 48.94 102.811 49.12 101.838 49.12ZM114.331 53C113.358 53 112.411 52.86 111.491 52.58C110.584 52.3133 109.844 51.9267 109.271 51.42L110.191 49.94C110.684 50.3667 111.291 50.7 112.011 50.94C112.731 51.1933 113.484 51.32 114.271 51.32C115.524 51.32 116.444 51.0267 117.031 50.44C117.618 49.8533 117.911 48.96 117.911 47.76V45.52L118.111 43.42L118.011 41.3V38.4H119.831V47.56C119.831 49.4267 119.364 50.8 118.431 51.68C117.498 52.56 116.131 53 114.331 53ZM114.091 48.56C113.064 48.56 112.144 48.3467 111.331 47.92C110.531 47.48 109.891 46.8733 109.411 46.1C108.944 45.3267 108.711 44.4333 108.711 43.42C108.711 42.3933 108.944 41.5 109.411 40.74C109.891 39.9667 110.531 39.3667 111.331 38.94C112.144 38.5133 113.064 38.3 114.091 38.3C114.998 38.3 115.824 38.4867 116.571 38.86C117.318 39.22 117.911 39.78 118.351 40.54C118.804 41.3 119.031 42.26 119.031 43.42C119.031 44.5667 118.804 45.52 118.351 46.28C117.911 47.04 117.318 47.6133 116.571 48C115.824 48.3733 114.998 48.56 114.091 48.56ZM114.311 46.88C115.018 46.88 115.644 46.7333 116.191 46.44C116.738 46.1467 117.164 45.74 117.471 45.22C117.791 44.7 117.951 44.1 117.951 43.42C117.951 42.74 117.791 42.14 117.471 41.62C117.164 41.1 116.738 40.7 116.191 40.42C115.644 40.1267 115.018 39.98 114.311 39.98C113.604 39.98 112.971 40.1267 112.411 40.42C111.864 40.7 111.431 41.1 111.111 41.62C110.804 42.14 110.651 42.74 110.651 43.42C110.651 44.1 110.804 44.7 111.111 45.22C111.431 45.74 111.864 46.1467 112.411 46.44C112.971 46.7333 113.604 46.88 114.311 46.88ZM127.22 49.12C126.086 49.12 125.086 48.8867 124.22 48.42C123.366 47.9533 122.7 47.3133 122.22 46.5C121.753 45.6867 121.52 44.7533 121.52 43.7C121.52 42.6467 121.746 41.7133 122.2 40.9C122.666 40.0867 123.3 39.4533 124.1 39C124.913 38.5333 125.826 38.3 126.84 38.3C127.866 38.3 128.773 38.5267 129.56 38.98C130.346 39.4333 130.96 40.0733 131.4 40.9C131.853 41.7133 132.08 42.6667 132.08 43.76C132.08 43.84 132.073 43.9333 132.06 44.04C132.06 44.1467 132.053 44.2467 132.04 44.34H123.02V42.96H131.04L130.26 43.44C130.273 42.76 130.133 42.1533 129.84 41.62C129.546 41.0867 129.14 40.6733 128.62 40.38C128.113 40.0733 127.52 39.92 126.84 39.92C126.173 39.92 125.58 40.0733 125.06 40.38C124.54 40.6733 124.133 41.0933 123.84 41.64C123.546 42.1733 123.4 42.7867 123.4 43.48V43.8C123.4 44.5067 123.56 45.14 123.88 45.7C124.213 46.2467 124.673 46.6733 125.26 46.98C125.846 47.2867 126.52 47.44 127.28 47.44C127.906 47.44 128.473 47.3333 128.98 47.12C129.5 46.9067 129.953 46.5867 130.34 46.16L131.4 47.4C130.92 47.96 130.32 48.3867 129.6 48.68C128.893 48.9733 128.1 49.12 127.22 49.12Z" fill="black"/>
<path d="M128 255C128 240.088 140.088 228 155 228H203C217.912 228 230 240.088 230 255C230 269.912 217.912 282 203 282H155C140.088 282 128 269.912 128 255Z" fill="#A0ABFD"/>
<path d="M151.46 262.12C150.393 262.12 149.567 261.833 148.98 261.26C148.393 260.687 148.1 259.867 148.1 258.8V249.08H150.02V258.72C150.02 259.293 150.16 259.733 150.44 260.04C150.733 260.347 151.147 260.5 151.68 260.5C152.28 260.5 152.78 260.333 153.18 260L153.78 261.38C153.487 261.633 153.133 261.82 152.72 261.94C152.32 262.06 151.9 262.12 151.46 262.12ZM146.3 252.98V251.4H153.06V252.98H146.3ZM159.47 262.12C158.336 262.12 157.336 261.887 156.47 261.42C155.616 260.953 154.95 260.313 154.47 259.5C154.003 258.687 153.77 257.753 153.77 256.7C153.77 255.647 153.996 254.713 154.45 253.9C154.916 253.087 155.55 252.453 156.35 252C157.163 251.533 158.076 251.3 159.09 251.3C160.116 251.3 161.023 251.527 161.81 251.98C162.596 252.433 163.21 253.073 163.65 253.9C164.103 254.713 164.33 255.667 164.33 256.76C164.33 256.84 164.323 256.933 164.31 257.04C164.31 257.147 164.303 257.247 164.29 257.34H155.27V255.96H163.29L162.51 256.44C162.523 255.76 162.383 255.153 162.09 254.62C161.796 254.087 161.39 253.673 160.87 253.38C160.363 253.073 159.77 252.92 159.09 252.92C158.423 252.92 157.83 253.073 157.31 253.38C156.79 253.673 156.383 254.093 156.09 254.64C155.796 255.173 155.65 255.787 155.65 256.48V256.8C155.65 257.507 155.81 258.14 156.13 258.7C156.463 259.247 156.923 259.673 157.51 259.98C158.096 260.287 158.77 260.44 159.53 260.44C160.156 260.44 160.723 260.333 161.23 260.12C161.75 259.907 162.203 259.587 162.59 259.16L163.65 260.4C163.17 260.96 162.57 261.387 161.85 261.68C161.143 261.973 160.35 262.12 159.47 262.12ZM169.036 262.12C168.156 262.12 167.316 262 166.516 261.76C165.729 261.52 165.109 261.227 164.656 260.88L165.456 259.36C165.909 259.667 166.469 259.927 167.136 260.14C167.802 260.353 168.482 260.46 169.176 260.46C170.069 260.46 170.709 260.333 171.096 260.08C171.496 259.827 171.696 259.473 171.696 259.02C171.696 258.687 171.576 258.427 171.336 258.24C171.096 258.053 170.776 257.913 170.376 257.82C169.989 257.727 169.556 257.647 169.076 257.58C168.596 257.5 168.116 257.407 167.636 257.3C167.156 257.18 166.716 257.02 166.316 256.82C165.916 256.607 165.596 256.32 165.356 255.96C165.116 255.587 164.996 255.093 164.996 254.48C164.996 253.84 165.176 253.28 165.536 252.8C165.896 252.32 166.402 251.953 167.056 251.7C167.722 251.433 168.509 251.3 169.416 251.3C170.109 251.3 170.809 251.387 171.516 251.56C172.236 251.72 172.822 251.953 173.276 252.26L172.456 253.78C171.976 253.46 171.476 253.24 170.956 253.12C170.436 253 169.916 252.94 169.396 252.94C168.556 252.94 167.929 253.08 167.516 253.36C167.102 253.627 166.896 253.973 166.896 254.4C166.896 254.76 167.016 255.04 167.256 255.24C167.509 255.427 167.829 255.573 168.216 255.68C168.616 255.787 169.056 255.88 169.536 255.96C170.016 256.027 170.496 256.12 170.976 256.24C171.456 256.347 171.889 256.5 172.276 256.7C172.676 256.9 172.996 257.18 173.236 257.54C173.489 257.9 173.616 258.38 173.616 258.98C173.616 259.62 173.429 260.173 173.056 260.64C172.682 261.107 172.156 261.473 171.476 261.74C170.796 261.993 169.982 262.12 169.036 262.12ZM178.655 262.12C177.589 262.12 176.762 261.833 176.175 261.26C175.589 260.687 175.295 259.867 175.295 258.8V249.08H177.215V258.72C177.215 259.293 177.355 259.733 177.635 260.04C177.929 260.347 178.342 260.5 178.875 260.5C179.475 260.5 179.975 260.333 180.375 260L180.975 261.38C180.682 261.633 180.329 261.82 179.915 261.94C179.515 262.06 179.095 262.12 178.655 262.12ZM173.495 252.98V251.4H180.255V252.98H173.495ZM182.297 262V251.4H184.217V262H182.297ZM183.257 249.36C182.883 249.36 182.57 249.24 182.317 249C182.077 248.76 181.957 248.467 181.957 248.12C181.957 247.76 182.077 247.46 182.317 247.22C182.57 246.98 182.883 246.86 183.257 246.86C183.63 246.86 183.937 246.98 184.177 247.22C184.43 247.447 184.557 247.733 184.557 248.08C184.557 248.44 184.437 248.747 184.197 249C183.957 249.24 183.643 249.36 183.257 249.36ZM192.543 251.3C193.409 251.3 194.169 251.467 194.823 251.8C195.489 252.133 196.009 252.64 196.383 253.32C196.756 254 196.943 254.86 196.943 255.9V262H195.023V256.12C195.023 255.093 194.769 254.32 194.263 253.8C193.769 253.28 193.069 253.02 192.163 253.02C191.483 253.02 190.889 253.153 190.383 253.42C189.876 253.687 189.483 254.08 189.203 254.6C188.936 255.12 188.803 255.767 188.803 256.54V262H186.883V251.4H188.723V254.26L188.423 253.5C188.769 252.807 189.303 252.267 190.023 251.88C190.743 251.493 191.583 251.3 192.543 251.3ZM204.136 266C203.162 266 202.216 265.86 201.296 265.58C200.389 265.313 199.649 264.927 199.076 264.42L199.996 262.94C200.489 263.367 201.096 263.7 201.816 263.94C202.536 264.193 203.289 264.32 204.076 264.32C205.329 264.32 206.249 264.027 206.836 263.44C207.422 262.853 207.716 261.96 207.716 260.76V258.52L207.916 256.42L207.816 254.3V251.4H209.636V260.56C209.636 262.427 209.169 263.8 208.236 264.68C207.302 265.56 205.936 266 204.136 266ZM203.896 261.56C202.869 261.56 201.949 261.347 201.136 260.92C200.336 260.48 199.696 259.873 199.216 259.1C198.749 258.327 198.516 257.433 198.516 256.42C198.516 255.393 198.749 254.5 199.216 253.74C199.696 252.967 200.336 252.367 201.136 251.94C201.949 251.513 202.869 251.3 203.896 251.3C204.802 251.3 205.629 251.487 206.376 251.86C207.122 252.22 207.716 252.78 208.156 253.54C208.609 254.3 208.836 255.26 208.836 256.42C208.836 257.567 208.609 258.52 208.156 259.28C207.716 260.04 207.122 260.613 206.376 261C205.629 261.373 204.802 261.56 203.896 261.56ZM204.116 259.88C204.822 259.88 205.449 259.733 205.996 259.44C206.542 259.147 206.969 258.74 207.276 258.22C207.596 257.7 207.756 257.1 207.756 256.42C207.756 255.74 207.596 255.14 207.276 254.62C206.969 254.1 206.542 253.7 205.996 253.42C205.449 253.127 204.822 252.98 204.116 252.98C203.409 252.98 202.776 253.127 202.216 253.42C201.669 253.7 201.236 254.1 200.916 254.62C200.609 255.14 200.456 255.74 200.456 256.42C200.456 257.1 200.609 257.7 200.916 258.22C201.236 258.74 201.669 259.147 202.216 259.44C202.776 259.733 203.409 259.88 204.116 259.88Z" fill="black"/>
<path d="M-26 192C-26 176.536 -13.464 164 2 164H86C101.464 164 114 176.536 114 192C114 207.464 101.464 220 86 220H2C-13.464 220 -26 207.464 -26 192Z" fill="#D8C0FF"/>
<path d="M5.9 199V196.76L5.8 196.34V192.52C5.8 191.707 5.56 191.08 5.08 190.64C4.61333 190.187 3.90667 189.96 2.96 189.96C2.33333 189.96 1.72 190.067 1.12 190.28C0.52 190.48 0.0133335 190.753 -0.4 191.1L-1.2 189.66C-0.653333 189.22 9.93411e-08 188.887 0.76 188.66C1.53333 188.42 2.34 188.3 3.18 188.3C4.63333 188.3 5.75333 188.653 6.54 189.36C7.32667 190.067 7.72 191.147 7.72 192.6V199H5.9ZM2.42 199.12C1.63333 199.12 0.94 198.987 0.34 198.72C-0.246667 198.453 -0.7 198.087 -1.02 197.62C-1.34 197.14 -1.5 196.6 -1.5 196C-1.5 195.427 -1.36667 194.907 -1.1 194.44C-0.82 193.973 -0.373333 193.6 0.24 193.32C0.866667 193.04 1.70667 192.9 2.76 192.9H6.12V194.28H2.84C1.88 194.28 1.23333 194.44 0.9 194.76C0.566667 195.08 0.4 195.467 0.4 195.92C0.4 196.44 0.606667 196.86 1.02 197.18C1.43333 197.487 2.00667 197.64 2.74 197.64C3.46 197.64 4.08667 197.48 4.62 197.16C5.16667 196.84 5.56 196.373 5.8 195.76L6.18 197.08C5.92667 197.707 5.48 198.207 4.84 198.58C4.2 198.94 3.39333 199.12 2.42 199.12ZM10.2731 199V184.16H12.1931V199H10.2731ZM19.4991 203C18.5257 203 17.5791 202.86 16.6591 202.58C15.7524 202.313 15.0124 201.927 14.4391 201.42L15.3591 199.94C15.8524 200.367 16.4591 200.7 17.1791 200.94C17.8991 201.193 18.6524 201.32 19.4391 201.32C20.6924 201.32 21.6124 201.027 22.1991 200.44C22.7857 199.853 23.0791 198.96 23.0791 197.76V195.52L23.2791 193.42L23.1791 191.3V188.4H24.9991V197.56C24.9991 199.427 24.5324 200.8 23.5991 201.68C22.6657 202.56 21.2991 203 19.4991 203ZM19.2591 198.56C18.2324 198.56 17.3124 198.347 16.4991 197.92C15.6991 197.48 15.0591 196.873 14.5791 196.1C14.1124 195.327 13.8791 194.433 13.8791 193.42C13.8791 192.393 14.1124 191.5 14.5791 190.74C15.0591 189.967 15.6991 189.367 16.4991 188.94C17.3124 188.513 18.2324 188.3 19.2591 188.3C20.1657 188.3 20.9924 188.487 21.7391 188.86C22.4857 189.22 23.0791 189.78 23.5191 190.54C23.9724 191.3 24.1991 192.26 24.1991 193.42C24.1991 194.567 23.9724 195.52 23.5191 196.28C23.0791 197.04 22.4857 197.613 21.7391 198C20.9924 198.373 20.1657 198.56 19.2591 198.56ZM19.4791 196.88C20.1857 196.88 20.8124 196.733 21.3591 196.44C21.9057 196.147 22.3324 195.74 22.6391 195.22C22.9591 194.7 23.1191 194.1 23.1191 193.42C23.1191 192.74 22.9591 192.14 22.6391 191.62C22.3324 191.1 21.9057 190.7 21.3591 190.42C20.8124 190.127 20.1857 189.98 19.4791 189.98C18.7724 189.98 18.1391 190.127 17.5791 190.42C17.0324 190.7 16.5991 191.1 16.2791 191.62C15.9724 192.14 15.8191 192.74 15.8191 193.42C15.8191 194.1 15.9724 194.7 16.2791 195.22C16.5991 195.74 17.0324 196.147 17.5791 196.44C18.1391 196.733 18.7724 196.88 19.4791 196.88ZM32.2077 199.12C31.141 199.12 30.1943 198.887 29.3677 198.42C28.541 197.953 27.8877 197.313 27.4077 196.5C26.9277 195.673 26.6877 194.74 26.6877 193.7C26.6877 192.647 26.9277 191.713 27.4077 190.9C27.8877 190.087 28.541 189.453 29.3677 189C30.1943 188.533 31.141 188.3 32.2077 188.3C33.261 188.3 34.201 188.533 35.0277 189C35.8677 189.453 36.521 190.087 36.9877 190.9C37.4677 191.7 37.7077 192.633 37.7077 193.7C37.7077 194.753 37.4677 195.687 36.9877 196.5C36.521 197.313 35.8677 197.953 35.0277 198.42C34.201 198.887 33.261 199.12 32.2077 199.12ZM32.2077 197.44C32.8877 197.44 33.4943 197.287 34.0277 196.98C34.5743 196.673 35.001 196.24 35.3077 195.68C35.6143 195.107 35.7677 194.447 35.7677 193.7C35.7677 192.94 35.6143 192.287 35.3077 191.74C35.001 191.18 34.5743 190.747 34.0277 190.44C33.4943 190.133 32.8877 189.98 32.2077 189.98C31.5277 189.98 30.921 190.133 30.3877 190.44C29.8543 190.747 29.4277 191.18 29.1077 191.74C28.7877 192.287 28.6277 192.94 28.6277 193.7C28.6277 194.447 28.7877 195.107 29.1077 195.68C29.4277 196.24 29.8543 196.673 30.3877 196.98C30.921 197.287 31.5277 197.44 32.2077 197.44ZM39.363 199V188.4H41.203V191.28L41.023 190.56C41.3163 189.827 41.8096 189.267 42.503 188.88C43.1963 188.493 44.0496 188.3 45.063 188.3V190.16C44.983 190.147 44.903 190.14 44.823 190.14C44.7563 190.14 44.6896 190.14 44.623 190.14C43.5963 190.14 42.783 190.447 42.183 191.06C41.583 191.673 41.283 192.56 41.283 193.72V199H39.363ZM46.4294 199V188.4H48.3494V199H46.4294ZM47.3894 186.36C47.016 186.36 46.7027 186.24 46.4494 186C46.2094 185.76 46.0894 185.467 46.0894 185.12C46.0894 184.76 46.2094 184.46 46.4494 184.22C46.7027 183.98 47.016 183.86 47.3894 183.86C47.7627 183.86 48.0694 183.98 48.3094 184.22C48.5627 184.447 48.6894 184.733 48.6894 185.08C48.6894 185.44 48.5694 185.747 48.3294 186C48.0894 186.24 47.776 186.36 47.3894 186.36ZM54.6553 199.12C53.5886 199.12 52.762 198.833 52.1753 198.26C51.5886 197.687 51.2953 196.867 51.2953 195.8V186.08H53.2153V195.72C53.2153 196.293 53.3553 196.733 53.6353 197.04C53.9286 197.347 54.342 197.5 54.8753 197.5C55.4753 197.5 55.9753 197.333 56.3753 197L56.9753 198.38C56.682 198.633 56.3286 198.82 55.9153 198.94C55.5153 199.06 55.0953 199.12 54.6553 199.12ZM49.4953 189.98V188.4H56.2553V189.98H49.4953ZM63.9566 188.3C64.8232 188.3 65.5832 188.467 66.2366 188.8C66.9032 189.133 67.4232 189.64 67.7966 190.32C68.1699 191 68.3566 191.86 68.3566 192.9V199H66.4366V193.12C66.4366 192.093 66.1832 191.32 65.6766 190.8C65.1832 190.28 64.4832 190.02 63.5766 190.02C62.8966 190.02 62.3032 190.153 61.7966 190.42C61.2899 190.687 60.8966 191.08 60.6166 191.6C60.3499 192.12 60.2166 192.767 60.2166 193.54V199H58.2966V184.16H60.2166V191.26L59.8366 190.5C60.1832 189.807 60.7166 189.267 61.4366 188.88C62.1566 188.493 62.9966 188.3 63.9566 188.3ZM84.1698 188.3C85.0232 188.3 85.7765 188.467 86.4298 188.8C87.0832 189.133 87.5898 189.64 87.9498 190.32C88.3232 191 88.5098 191.86 88.5098 192.9V199H86.5898V193.12C86.5898 192.093 86.3498 191.32 85.8698 190.8C85.3898 190.28 84.7165 190.02 83.8498 190.02C83.2098 190.02 82.6498 190.153 82.1698 190.42C81.6898 190.687 81.3165 191.08 81.0498 191.6C80.7965 192.12 80.6698 192.767 80.6698 193.54V199H78.7498V193.12C78.7498 192.093 78.5098 191.32 78.0298 190.8C77.5632 190.28 76.8898 190.02 76.0098 190.02C75.3832 190.02 74.8298 190.153 74.3498 190.42C73.8698 190.687 73.4965 191.08 73.2298 191.6C72.9632 192.12 72.8298 192.767 72.8298 193.54V199H70.9098V188.4H72.7498V191.22L72.4498 190.5C72.7832 189.807 73.2965 189.267 73.9898 188.88C74.6832 188.493 75.4898 188.3 76.4098 188.3C77.4232 188.3 78.2965 188.553 79.0298 189.06C79.7632 189.553 80.2432 190.307 80.4698 191.32L79.6898 191C80.0098 190.187 80.5698 189.533 81.3698 189.04C82.1698 188.547 83.1032 188.3 84.1698 188.3Z" fill="black"/>
<path d="M255 11C255 -3.91169 267.088 -16 282 -16H329C343.912 -16 356 -3.91169 356 11C356 25.9117 343.912 38 329 38H282C267.088 38 255 25.9117 255 11Z" fill="#EAEAEA"/>
<path d="M288.48 18L294.82 4H296.8L303.16 18H301.06L295.4 5.12H296.2L290.54 18H288.48ZM291.18 14.5L291.72 12.9H299.6L300.18 14.5H291.18ZM304.248 18V4H309.708C310.935 4 311.982 4.19333 312.848 4.58C313.715 4.96667 314.382 5.52667 314.848 6.26C315.315 6.99333 315.548 7.86667 315.548 8.88C315.548 9.89333 315.315 10.7667 314.848 11.5C314.382 12.22 313.715 12.78 312.848 13.18C311.982 13.5667 310.935 13.76 309.708 13.76H305.348L306.248 12.82V18H304.248ZM306.248 13.02L305.348 12.02H309.648C310.928 12.02 311.895 11.7467 312.548 11.2C313.215 10.6533 313.548 9.88 313.548 8.88C313.548 7.88 313.215 7.10667 312.548 6.56C311.895 6.01333 310.928 5.74 309.648 5.74H305.348L306.248 4.74V13.02ZM317.487 18V4H319.487V18H317.487Z" fill="black"/>
<path d="M297 255C297 240.088 309.088 228 324 228H374C388.912 228 401 240.088 401 255C401 269.912 388.912 282 374 282H324C309.088 282 297 269.912 297 255Z" fill="white"/>
<path d="M315.44 262.12C314.56 262.12 313.753 261.92 313.02 261.52C312.3 261.107 311.72 260.5 311.28 259.7C310.853 258.9 310.64 257.9 310.64 256.7C310.64 255.5 310.847 254.5 311.26 253.7C311.687 252.9 312.26 252.3 312.98 251.9C313.713 251.5 314.533 251.3 315.44 251.3C316.48 251.3 317.4 251.527 318.2 251.98C319 252.433 319.633 253.067 320.1 253.88C320.567 254.68 320.8 255.62 320.8 256.7C320.8 257.78 320.567 258.727 320.1 259.54C319.633 260.353 319 260.987 318.2 261.44C317.4 261.893 316.48 262.12 315.44 262.12ZM309.82 265.88V251.4H311.66V254.26L311.54 256.72L311.74 259.18V265.88H309.82ZM315.28 260.44C315.96 260.44 316.567 260.287 317.1 259.98C317.647 259.673 318.073 259.24 318.38 258.68C318.7 258.107 318.86 257.447 318.86 256.7C318.86 255.94 318.7 255.287 318.38 254.74C318.073 254.18 317.647 253.747 317.1 253.44C316.567 253.133 315.96 252.98 315.28 252.98C314.613 252.98 314.007 253.133 313.46 253.44C312.927 253.747 312.5 254.18 312.18 254.74C311.873 255.287 311.72 255.94 311.72 256.7C311.72 257.447 311.873 258.107 312.18 258.68C312.5 259.24 312.927 259.673 313.46 259.98C314.007 260.287 314.613 260.44 315.28 260.44ZM322.453 262V247.16H324.373V262H322.453ZM333.619 262V259.76L333.519 259.34V255.52C333.519 254.707 333.279 254.08 332.799 253.64C332.332 253.187 331.625 252.96 330.679 252.96C330.052 252.96 329.439 253.067 328.839 253.28C328.239 253.48 327.732 253.753 327.319 254.1L326.519 252.66C327.065 252.22 327.719 251.887 328.479 251.66C329.252 251.42 330.059 251.3 330.899 251.3C332.352 251.3 333.472 251.653 334.259 252.36C335.045 253.067 335.439 254.147 335.439 255.6V262H333.619ZM330.139 262.12C329.352 262.12 328.659 261.987 328.059 261.72C327.472 261.453 327.019 261.087 326.699 260.62C326.379 260.14 326.219 259.6 326.219 259C326.219 258.427 326.352 257.907 326.619 257.44C326.899 256.973 327.345 256.6 327.959 256.32C328.585 256.04 329.425 255.9 330.479 255.9H333.839V257.28H330.559C329.599 257.28 328.952 257.44 328.619 257.76C328.285 258.08 328.119 258.467 328.119 258.92C328.119 259.44 328.325 259.86 328.739 260.18C329.152 260.487 329.725 260.64 330.459 260.64C331.179 260.64 331.805 260.48 332.339 260.16C332.885 259.84 333.279 259.373 333.519 258.76L333.899 260.08C333.645 260.707 333.199 261.207 332.559 261.58C331.919 261.94 331.112 262.12 330.139 262.12ZM341.632 262.12C340.565 262.12 339.739 261.833 339.152 261.26C338.565 260.687 338.272 259.867 338.272 258.8V249.08H340.192V258.72C340.192 259.293 340.332 259.733 340.612 260.04C340.905 260.347 341.319 260.5 341.852 260.5C342.452 260.5 342.952 260.333 343.352 260L343.952 261.38C343.659 261.633 343.305 261.82 342.892 261.94C342.492 262.06 342.072 262.12 341.632 262.12ZM336.472 252.98V251.4H343.232V252.98H336.472ZM345.553 262V250.46C345.553 249.42 345.853 248.593 346.453 247.98C347.066 247.353 347.933 247.04 349.053 247.04C349.466 247.04 349.86 247.093 350.233 247.2C350.62 247.293 350.946 247.447 351.213 247.66L350.633 249.12C350.433 248.96 350.206 248.84 349.953 248.76C349.7 248.667 349.433 248.62 349.153 248.62C348.593 248.62 348.166 248.78 347.873 249.1C347.58 249.407 347.433 249.867 347.433 250.48V251.9L347.473 252.78V262H345.553ZM343.753 252.98V251.4H350.513V252.98H343.753ZM355.708 262.12C354.641 262.12 353.694 261.887 352.868 261.42C352.041 260.953 351.388 260.313 350.908 259.5C350.428 258.673 350.188 257.74 350.188 256.7C350.188 255.647 350.428 254.713 350.908 253.9C351.388 253.087 352.041 252.453 352.868 252C353.694 251.533 354.641 251.3 355.708 251.3C356.761 251.3 357.701 251.533 358.528 252C359.368 252.453 360.021 253.087 360.488 253.9C360.968 254.7 361.208 255.633 361.208 256.7C361.208 257.753 360.968 258.687 360.488 259.5C360.021 260.313 359.368 260.953 358.528 261.42C357.701 261.887 356.761 262.12 355.708 262.12ZM355.708 260.44C356.388 260.44 356.994 260.287 357.528 259.98C358.074 259.673 358.501 259.24 358.808 258.68C359.114 258.107 359.268 257.447 359.268 256.7C359.268 255.94 359.114 255.287 358.808 254.74C358.501 254.18 358.074 253.747 357.528 253.44C356.994 253.133 356.388 252.98 355.708 252.98C355.028 252.98 354.421 253.133 353.888 253.44C353.354 253.747 352.928 254.18 352.608 254.74C352.288 255.287 352.128 255.94 352.128 256.7C352.128 257.447 352.288 258.107 352.608 258.68C352.928 259.24 353.354 259.673 353.888 259.98C354.421 260.287 355.028 260.44 355.708 260.44ZM362.863 262V251.4H364.703V254.28L364.523 253.56C364.816 252.827 365.31 252.267 366.003 251.88C366.696 251.493 367.55 251.3 368.563 251.3V253.16C368.483 253.147 368.403 253.14 368.323 253.14C368.256 253.14 368.19 253.14 368.123 253.14C367.096 253.14 366.283 253.447 365.683 254.06C365.083 254.673 364.783 255.56 364.783 256.72V262H362.863ZM383.189 251.3C384.043 251.3 384.796 251.467 385.449 251.8C386.103 252.133 386.609 252.64 386.969 253.32C387.343 254 387.529 254.86 387.529 255.9V262H385.609V256.12C385.609 255.093 385.369 254.32 384.889 253.8C384.409 253.28 383.736 253.02 382.869 253.02C382.229 253.02 381.669 253.153 381.189 253.42C380.709 253.687 380.336 254.08 380.069 254.6C379.816 255.12 379.689 255.767 379.689 256.54V262H377.769V256.12C377.769 255.093 377.529 254.32 377.049 253.8C376.583 253.28 375.909 253.02 375.029 253.02C374.403 253.02 373.849 253.153 373.369 253.42C372.889 253.687 372.516 254.08 372.249 254.6C371.983 255.12 371.849 255.767 371.849 256.54V262H369.929V251.4H371.769V254.22L371.469 253.5C371.803 252.807 372.316 252.267 373.009 251.88C373.703 251.493 374.509 251.3 375.429 251.3C376.443 251.3 377.316 251.553 378.049 252.06C378.783 252.553 379.263 253.307 379.489 254.32L378.709 254C379.029 253.187 379.589 252.533 380.389 252.04C381.189 251.547 382.123 251.3 383.189 251.3Z" fill="black"/>
<path d="M377 42C377 26.536 389.536 14 405 14H471C486.464 14 499 26.536 499 42C499 57.464 486.464 70 471 70H405C389.536 70 377 57.464 377 42Z" fill="#424BFF"/>
<path d="M407.44 49.12C406.36 49.12 405.393 48.8867 404.54 48.42C403.7 47.9533 403.04 47.3133 402.56 46.5C402.08 45.6867 401.84 44.7533 401.84 43.7C401.84 42.6467 402.08 41.7133 402.56 40.9C403.04 40.0867 403.7 39.4533 404.54 39C405.393 38.5333 406.36 38.3 407.44 38.3C408.4 38.3 409.253 38.4933 410 38.88C410.76 39.2533 411.347 39.8133 411.76 40.56L410.3 41.5C409.953 40.98 409.527 40.6 409.02 40.36C408.527 40.1067 407.993 39.98 407.42 39.98C406.727 39.98 406.107 40.1333 405.56 40.44C405.013 40.7467 404.58 41.18 404.26 41.74C403.94 42.2867 403.78 42.94 403.78 43.7C403.78 44.46 403.94 45.12 404.26 45.68C404.58 46.24 405.013 46.6733 405.56 46.98C406.107 47.2867 406.727 47.44 407.42 47.44C407.993 47.44 408.527 47.32 409.02 47.08C409.527 46.8267 409.953 46.44 410.3 45.92L411.76 46.84C411.347 47.5733 410.76 48.14 410 48.54C409.253 48.9267 408.4 49.12 407.44 49.12ZM418.769 38.3C419.636 38.3 420.396 38.4667 421.049 38.8C421.716 39.1333 422.236 39.64 422.609 40.32C422.982 41 423.169 41.86 423.169 42.9V49H421.249V43.12C421.249 42.0933 420.996 41.32 420.489 40.8C419.996 40.28 419.296 40.02 418.389 40.02C417.709 40.02 417.116 40.1533 416.609 40.42C416.102 40.6867 415.709 41.08 415.429 41.6C415.162 42.12 415.029 42.7667 415.029 43.54V49H413.109V34.16H415.029V41.26L414.649 40.5C414.996 39.8067 415.529 39.2667 416.249 38.88C416.969 38.4933 417.809 38.3 418.769 38.3ZM432.302 49V46.76L432.202 46.34V42.52C432.202 41.7067 431.962 41.08 431.482 40.64C431.016 40.1867 430.309 39.96 429.362 39.96C428.736 39.96 428.122 40.0667 427.522 40.28C426.922 40.48 426.416 40.7533 426.002 41.1L425.202 39.66C425.749 39.22 426.402 38.8867 427.162 38.66C427.936 38.42 428.742 38.3 429.582 38.3C431.036 38.3 432.156 38.6533 432.942 39.36C433.729 40.0667 434.122 41.1467 434.122 42.6V49H432.302ZM428.822 49.12C428.036 49.12 427.342 48.9867 426.742 48.72C426.156 48.4533 425.702 48.0867 425.382 47.62C425.062 47.14 424.902 46.6 424.902 46C424.902 45.4267 425.036 44.9067 425.302 44.44C425.582 43.9733 426.029 43.6 426.642 43.32C427.269 43.04 428.109 42.9 429.162 42.9H432.522V44.28H429.242C428.282 44.28 427.636 44.44 427.302 44.76C426.969 45.08 426.802 45.4667 426.802 45.92C426.802 46.44 427.009 46.86 427.422 47.18C427.836 47.4867 428.409 47.64 429.142 47.64C429.862 47.64 430.489 47.48 431.022 47.16C431.569 46.84 431.962 46.3733 432.202 45.76L432.582 47.08C432.329 47.7067 431.882 48.2067 431.242 48.58C430.602 48.94 429.796 49.12 428.822 49.12ZM440.315 49.12C439.249 49.12 438.422 48.8333 437.835 48.26C437.249 47.6867 436.955 46.8667 436.955 45.8V36.08H438.875V45.72C438.875 46.2933 439.015 46.7333 439.295 47.04C439.589 47.3467 440.002 47.5 440.535 47.5C441.135 47.5 441.635 47.3333 442.035 47L442.635 48.38C442.342 48.6333 441.989 48.82 441.575 48.94C441.175 49.06 440.755 49.12 440.315 49.12ZM435.155 39.98V38.4H441.915V39.98H435.155ZM449.577 49.12C448.67 49.12 447.85 48.92 447.117 48.52C446.397 48.1067 445.823 47.5 445.397 46.7C444.983 45.9 444.777 44.9 444.777 43.7C444.777 42.5 444.99 41.5 445.417 40.7C445.857 39.9 446.437 39.3 447.157 38.9C447.89 38.5 448.697 38.3 449.577 38.3C450.617 38.3 451.537 38.5267 452.337 38.98C453.137 39.4333 453.77 40.0667 454.237 40.88C454.703 41.68 454.937 42.62 454.937 43.7C454.937 44.78 454.703 45.7267 454.237 46.54C453.77 47.3533 453.137 47.9867 452.337 48.44C451.537 48.8933 450.617 49.12 449.577 49.12ZM443.957 49V34.16H445.877V41.22L445.677 43.68L445.797 46.14V49H443.957ZM449.417 47.44C450.097 47.44 450.703 47.2867 451.237 46.98C451.783 46.6733 452.21 46.24 452.517 45.68C452.837 45.1067 452.997 44.4467 452.997 43.7C452.997 42.94 452.837 42.2867 452.517 41.74C452.21 41.18 451.783 40.7467 451.237 40.44C450.703 40.1333 450.097 39.98 449.417 39.98C448.75 39.98 448.143 40.1333 447.597 40.44C447.063 40.7467 446.637 41.18 446.317 41.74C446.01 42.2867 445.857 42.94 445.857 43.7C445.857 44.4467 446.01 45.1067 446.317 45.68C446.637 46.24 447.063 46.6733 447.597 46.98C448.143 47.2867 448.75 47.44 449.417 47.44ZM461.13 49.12C460.063 49.12 459.116 48.8867 458.29 48.42C457.463 47.9533 456.81 47.3133 456.33 46.5C455.85 45.6733 455.61 44.74 455.61 43.7C455.61 42.6467 455.85 41.7133 456.33 40.9C456.81 40.0867 457.463 39.4533 458.29 39C459.116 38.5333 460.063 38.3 461.13 38.3C462.183 38.3 463.123 38.5333 463.95 39C464.79 39.4533 465.443 40.0867 465.91 40.9C466.39 41.7 466.63 42.6333 466.63 43.7C466.63 44.7533 466.39 45.6867 465.91 46.5C465.443 47.3133 464.79 47.9533 463.95 48.42C463.123 48.8867 462.183 49.12 461.13 49.12ZM461.13 47.44C461.81 47.44 462.416 47.2867 462.95 46.98C463.496 46.6733 463.923 46.24 464.23 45.68C464.536 45.1067 464.69 44.4467 464.69 43.7C464.69 42.94 464.536 42.2867 464.23 41.74C463.923 41.18 463.496 40.7467 462.95 40.44C462.416 40.1333 461.81 39.98 461.13 39.98C460.45 39.98 459.843 40.1333 459.31 40.44C458.776 40.7467 458.35 41.18 458.03 41.74C457.71 42.2867 457.55 42.94 457.55 43.7C457.55 44.4467 457.71 45.1067 458.03 45.68C458.35 46.24 458.776 46.6733 459.31 46.98C459.843 47.2867 460.45 47.44 461.13 47.44ZM471.925 49.12C470.858 49.12 470.032 48.8333 469.445 48.26C468.858 47.6867 468.565 46.8667 468.565 45.8V36.08H470.485V45.72C470.485 46.2933 470.625 46.7333 470.905 47.04C471.198 47.3467 471.612 47.5 472.145 47.5C472.745 47.5 473.245 47.3333 473.645 47L474.245 48.38C473.952 48.6333 473.598 48.82 473.185 48.94C472.785 49.06 472.365 49.12 471.925 49.12ZM466.765 39.98V38.4H473.525V39.98H466.765Z" fill="white"/>
<rect x="84" y="46" width="293" height="198" fill="#D9D9D9"/>
</g>
<defs>
<clipPath id="clip0_528_1590">
<rect width="460" height="290" rx="40" fill="white"/>
</clipPath>
</defs>
</svg>
