<svg width="110" height="121" viewBox="0 0 110 121" fill="none" xmlns="http://www.w3.org/2000/svg">
<path d="M54.5451 4.69141C39.0757 4.69141 29.0505 15.6029 17.1907 19.5806C12.3707 21.2019 9.95534 22.0071 8.98375 23.1475C8.00674 24.2824 7.71907 25.9524 7.14914 29.2815C1.03196 64.929 14.4007 97.8851 46.2785 110.715C49.7035 112.093 51.4187 112.78 54.5614 112.78C57.7041 112.78 59.4247 112.088 62.8497 110.71C94.7274 97.8851 108.08 64.929 101.963 29.2815C101.387 25.9524 101.105 24.2824 100.128 23.1421C99.1511 22.0017 96.7412 21.1965 91.9212 19.5806C80.056 15.6029 70.0145 4.69141 54.5451 4.69141Z" stroke="white" stroke-width="5" stroke-linecap="round" stroke-linejoin="round"/>
<path d="M54.5561 80.3526C55.316 80.3526 56.0216 80.0067 57.4274 79.3258L68.7499 73.797C73.7598 71.3488 76.2675 70.1274 76.2675 68.1927V43.8728M54.5561 80.3526C53.7962 80.3526 53.0906 80.0067 51.6848 79.3258L40.3623 73.797C35.3524 71.3488 32.8447 70.1274 32.8447 68.1927V43.8728M54.5561 80.3526V56.0327M76.2675 43.8728C76.2675 41.938 73.7598 40.7166 68.7499 38.2684L57.4329 32.7451C56.0162 32.0588 55.3106 31.7129 54.5561 31.7129C53.7962 31.7129 53.0906 32.0588 51.6848 32.7397L40.3623 38.2738C35.3524 40.7166 32.8447 41.938 32.8447 43.8728M76.2675 43.8728C76.2675 45.8076 73.7598 47.029 68.7499 49.4772L57.4274 55.0005C56.0162 55.6869 55.3106 56.0327 54.5561 56.0327M32.8447 43.8728C32.8447 45.8076 35.3524 47.029 40.3623 49.4772L51.6848 55.0005C53.096 55.6869 53.8016 56.0327 54.5561 56.0327" stroke="white" stroke-width="5" stroke-linecap="round" stroke-linejoin="round"/>
</svg>
